<?xml version="1.0" encoding="utf-8"?>
<!-- Generator: Adobe Illustrator 18.0.0, SVG Export Plug-In . SVG Version: 6.00 Build 0)  -->
<!DOCTYPE svg PUBLIC "-//W3C//DTD SVG 1.1//EN" "http://www.w3.org/Graphics/SVG/1.1/DTD/svg11.dtd">
<svg version="1.1" id="Layer_1" xmlns="http://www.w3.org/2000/svg" xmlns:xlink="http://www.w3.org/1999/xlink" x="0px" y="0px"
	 viewBox="0 0 512 512" enable-background="new 0 0 512 512" xml:space="preserve">
<g>
	<path fill="#40596B" d="M508,510H4c-1.1,0-2-0.9-2-2V4c0-1.1,0.9-2,2-2h504c1.1,0,2,0.9,2,2v504C510,509.1,509.1,510,508,510z"/>
	<rect x="23.2" y="23.2" fill="#ACB3BA" width="465.7" height="465.7"/>
	<rect x="33.8" y="23.2" fill="#CDD6E0" width="444.5" height="465.7"/>
	<rect x="23.2" y="23.2" fill="#F2F2F2" width="444.5" height="465.7"/>
	<polygon fill="#FF7058" points="157.4,129 115.6,105.3 73.7,129 73.7,23.2 157.4,23.2 	"/>
	<g>
		<rect x="66.8" y="175.7" fill="#CDD6E0" width="357.2" height="23"/>
		<rect x="66.8" y="238.4" fill="#CDD6E0" width="357.2" height="23"/>
		<rect x="66.8" y="301" fill="#CDD6E0" width="357.2" height="23"/>
		<rect x="66.8" y="363.7" fill="#CDD6E0" width="182.8" height="23"/>
	</g>
	
		<rect x="345.6" y="87.3" transform="matrix(-0.7073 -0.7069 0.7069 -0.7073 586.7585 450.852)" fill="#F8B64C" width="82.3" height="33.3"/>
	<polygon fill="#FFD15C" points="181.7,250.8 239.9,309 193.1,322.8 157.4,333.4 167.9,297.7 	"/>
	<path fill="#F1543F" d="M369.4,63.1l58.2,58.2l29.3-29.4c0.8-0.8,0.8-2,0-2.8l-55.4-55.3c-0.8-0.8-2-0.8-2.8,0L369.4,63.1z"/>
	<polygon fill="#334A5E" points="167.9,297.7 193.1,322.8 157.4,333.4 	"/>
	<polygon fill="#84DBFF" points="239.9,309 404,144.8 374.9,115.7 210.8,279.9 	"/>
	<polygon fill="#54C0EB" points="181.7,250.9 210.8,279.9 374.9,115.7 345.8,86.7 	"/>
</g>
</svg>
