<?xml version="1.0" encoding="utf-8"?>
<!-- Generator: Adobe Illustrator 18.0.0, SVG Export Plug-In . SVG Version: 6.00 Build 0)  -->
<!DOCTYPE svg PUBLIC "-//W3C//DTD SVG 1.1//EN" "http://www.w3.org/Graphics/SVG/1.1/DTD/svg11.dtd">
<svg version="1.1" id="Layer_1" xmlns="http://www.w3.org/2000/svg" xmlns:xlink="http://www.w3.org/1999/xlink" x="0px" y="0px"
	 viewBox="0 0 512 512" enable-background="new 0 0 512 512" xml:space="preserve">
<g>
	<path fill="#40596B" d="M395.7,175.5c-24.3,2.6-66.9,12.2-65.7,47.6c0.9,25.9-1.3,51.9-12.3,75.4c-16.1,34.5-46.7,74.4-104,85.9
		c-32.3,6.4-65.7,0.9-95.7-12.7C76.2,352.8,17.6,313.1,4.5,235.6c-9-53.1,6.2-108.2,40.6-149.6C78,46.6,135.9,4.4,232.3,8.2
		c0,0,105.8,0.5,174.1,71.3c12.7,13.2,21.9,29.7,25.1,47.7c0.1,0.3,0.1,0.7,0.2,1C435.6,151.2,418.8,173,395.7,175.5z"/>
	<circle fill="#F2F2F2" cx="322.3" cy="93.6" r="34.9"/>
	<circle fill="#FF7058" cx="183.5" cy="75" r="34.9"/>
	<circle fill="#FFD15C" cx="74" cy="169" r="34.9"/>
	<circle fill="#54C0EB" cx="105.8" cy="286.3" r="34.9"/>
	<circle fill="#84DBFF" cx="232.8" cy="286.2" r="34.9"/>
	<path fill="#FFD15C" d="M227,408.8c23-23,57.2-26.2,76.3-7c19.1,19.1,16,53.3-7,76.3c-23,23-95.2,26-95.2,26
		C227.8,469,204,431.8,227,408.8z"/>
	
		<rect x="274.9" y="394.7" transform="matrix(-0.7071 -0.7071 0.7071 -0.7071 230.8339 901.4814)" fill="#FF7058" width="54.3" height="16.5"/>
	<path fill="#3DC9AE" d="M510,233.5c0.6-14.2-24.2-39-38.4-38.4c-12.5,0.5-27.3,8.3-43.1,20.4l61.2,61.2
		C501.6,260.8,509.4,246,510,233.5z"/>
	<path fill="#4CDBC4" d="M428.4,215.4C365.8,263,288.8,377.9,288.8,377.9l38.4,38.4c0,0,114.8-77.1,162.5-139.7L428.4,215.4z"/>
</g>
</svg>
