<?xml version="1.0" encoding="utf-8"?>
<!-- Generator: Adobe Illustrator 18.0.0, SVG Export Plug-In . SVG Version: 6.00 Build 0)  -->
<!DOCTYPE svg PUBLIC "-//W3C//DTD SVG 1.1//EN" "http://www.w3.org/Graphics/SVG/1.1/DTD/svg11.dtd">
<svg version="1.1" id="Layer_1" xmlns="http://www.w3.org/2000/svg" xmlns:xlink="http://www.w3.org/1999/xlink" x="0px" y="0px"
	 viewBox="0 0 512 512" enable-background="new 0 0 512 512" xml:space="preserve">
<g>
	<path fill="#F2F2F2" d="M239.2,295.9c95.6,58.3,178,34.5,215.8,21.9c0-0.5,0.1-1,0.1-1.6c0.1-1.8,0.1-3.7,0.1-5.5
		c0-3.1-0.1-6.2-0.2-9.3c-4.2-91.9-70.6-167.3-158.1-185.6v-64h-81.9v63.9c-82.6,17.3-146.3,85.6-156.6,170.6
		C87.9,270.7,157,245.7,239.2,295.9z"/>
	<path fill="#54C0EB" d="M239.2,295.9c-82.3-50.2-151.3-25.2-180.8-9.5c-1,8-1.7,16.1-1.7,24.4c0,2.2,0,4.4,0.1,6.7
		c0.8,23.8,5.8,46.7,14.3,67.6C100.6,458.3,172.2,510,256.1,510c107.6,0,195.3-85.3,199-192.1C417.2,330.4,334.8,354.2,239.2,295.9z
		"/>
	<rect x="194.7" y="2" fill="#CDD6E0" width="122.6" height="49.9"/>
	<circle fill="#84DBFF" cx="265.5" cy="419.5" r="44.2"/>
	<circle fill="#54C0EB" cx="297" cy="164.1" r="33.9"/>
	<circle fill="#84DBFF" cx="383.3" cy="361.2" r="19.8"/>
	<circle fill="#84DBFF" cx="142.5" cy="380.9" r="19.8"/>
	<circle fill="#84DBFF" cx="232.5" cy="341.4" r="19.8"/>
	<circle fill="#54C0EB" cx="334.2" cy="217.8" r="19.8"/>
	<circle fill="#54C0EB" cx="188.5" cy="203.6" r="19.8"/>
</g>
</svg>
