<?xml version="1.0" encoding="utf-8"?>
<!-- Generator: Adobe Illustrator 18.0.0, SVG Export Plug-In . SVG Version: 6.00 Build 0)  -->
<!DOCTYPE svg PUBLIC "-//W3C//DTD SVG 1.1//EN" "http://www.w3.org/Graphics/SVG/1.1/DTD/svg11.dtd">
<svg version="1.1" id="Layer_1" xmlns="http://www.w3.org/2000/svg" xmlns:xlink="http://www.w3.org/1999/xlink" x="0px" y="0px"
	 viewBox="0 0 512 512" enable-background="new 0 0 512 512" xml:space="preserve">
<g>
	<path fill="#FFD15C" d="M476.2,510H35.8c-1.1,0-2-0.9-2-2V71.7c0-1.1,0.9-2,2-2h440.5c1.1,0,2,0.9,2,2V508
		C478.3,509.1,477.4,510,476.2,510z"/>
	<polygon fill="#F2F2F2" points="446.1,98.5 65.9,98.5 65.9,481.2 376.8,481.2 446.1,411.9 	"/>
	<polygon fill="#CDD6E0" points="376.8,481.2 446.1,411.9 376.8,411.9 	"/>
	<rect x="98.2" y="144.7" fill="#CDD6E0" width="72.2" height="72.2"/>
	<rect x="98.2" y="253.7" fill="#CDD6E0" width="72.2" height="72.2"/>
	<rect x="98.2" y="362.8" fill="#CDD6E0" width="72.2" height="72.2"/>
	<rect x="204.1" y="144.7" fill="#CDD6E0" width="210.3" height="23"/>
	<rect x="204.1" y="193.8" fill="#4CDBC4" width="130.3" height="23"/>
	<rect x="204.1" y="253.7" fill="#CDD6E0" width="210.3" height="23"/>
	<rect x="204.1" y="302.9" fill="#4CDBC4" width="130.3" height="23"/>
	<rect x="204.1" y="362.8" fill="#CDD6E0" width="210.3" height="23"/>
	<rect x="204.1" y="412" fill="#4CDBC4" width="130.3" height="23"/>
	<g>
		<polygon fill="#FF7058" points="115.4,219.4 85.3,189.4 94.7,180 115.4,200.6 173.9,142.1 183.3,151.5 		"/>
	</g>
	<path fill="#40596B" d="M341.3,43.7h-43.7C297.7,20.7,279,2,256,2c-23,0-41.7,18.7-41.7,41.7h-43.7c-11.7,0-21.2,9.5-21.2,21.2
		v57.5h213V64.8C362.5,53.2,353,43.7,341.3,43.7z M256,64.5c-11.5,0-20.9-9.3-20.9-20.9c0-11.5,9.3-20.9,20.9-20.9
		c11.5,0,20.9,9.3,20.9,20.9C276.9,55.2,267.5,64.5,256,64.5z"/>
</g>
</svg>
