<?xml version="1.0" encoding="utf-8"?>
<!-- Generator: Adobe Illustrator 18.0.0, SVG Export Plug-In . SVG Version: 6.00 Build 0)  -->
<!DOCTYPE svg PUBLIC "-//W3C//DTD SVG 1.1//EN" "http://www.w3.org/Graphics/SVG/1.1/DTD/svg11.dtd">
<svg version="1.1" id="Layer_1" xmlns="http://www.w3.org/2000/svg" xmlns:xlink="http://www.w3.org/1999/xlink" x="0px" y="0px"
	 viewBox="0 0 512 512" enable-background="new 0 0 512 512" xml:space="preserve">
<g>
	<g>
		<circle fill="#84DBFF" cx="253.6" cy="256" r="194.6"/>
		<path fill="#54C0EB" d="M443.9,218.3c-11.4-4.6-22.6-10-34-14.3c-9.7-3.7-21.9-6.1-29.2,1.2c-3.9,3.8-5.3,9.4-6.6,14.7
			c-1.7,7-3.5,14.2-7.4,20.3c-3.9,6.1-10.5,10.9-17.7,10.9c-5.2,0-10-2.5-14.6-4.8c-14.1-7.1-28.3-13.9-42.8-20.2
			c-6.9-3-14.1-6-21.6-6.5c-17.4-1.2-34.6,12.7-37,30c-0.5,3.9-0.4,8,0.8,11.7c2.5,7.8,9.3,13.5,16.4,17.7c7.9,4.7,16.6,8,25.6,9.8
			c7.3,1.5,15.4,2.3,20.8,7.4c5.1,4.9,6.5,12.5,6.3,19.6c-0.2,7.1-1.8,14.1-1.3,21.2c0.9,14.2,11.1,27.9,25,30.9
			c7.6,1.7,15.5,0.3,23.2-0.8c19.6-2.9,41.7-3.5,57,9c5.6-7.3,10.9-15,15.5-23.3C446.5,310.4,452.8,262.7,443.9,218.3z"/>
		<path fill="#54C0EB" d="M156.6,87.3c-0.7,11.9,12,19.5,22.5,25.1c19.3,10.3,38.7,25.3,42.9,46.8c1.4,7.3,1.1,15.1,4.4,21.8
			c4,8,13.4,12.9,22.3,11.5c8.8-1.4,16.4-8.8,17.8-17.6c1.2-7.5-1.6-15.2-0.6-22.8c1.4-10.5,9.7-18.5,14-28.1
			c5.1-11.5,3.9-25.6-3.1-36.1c-3.9-5.8-9.4-10.5-13.1-16.5c-2-3.1-3.3-6.5-4.4-10C223.4,60.5,187.7,69.5,156.6,87.3z"/>
		<path fill="#54C0EB" d="M167.7,269.7c0.6-29.9,23.5-55.4,26.3-85.2c0.2-1.9,0.2-3.9-0.7-5.6c-0.9-1.6-2.6-2.6-4.2-3.6
			c-5.7-3.3-11.4-6.6-17.2-9.9c-3.7-2.2-7.7-4.4-12-4.2c-4.1,0.2-7.7,2.5-11,4.9c-8.5,6.2-16.2,13.5-22.9,21.6
			c-6.7,8.1-12.9,17.4-22.6,21.2c-6.6,2.6-13.9,2.3-21,2.5c-6.3,0.2-12.6,0.9-18.9,2c-9.8,43.8-4,89.3,15.4,128.7
			c4.9-2.3,9.4-5.8,14-8.7c12.8-8,28.3-11.7,43.3-10.4c5.8,0.5,11.8,1.7,17.3,0c9.5-3,14.6-13.7,15.3-23.6
			C169.8,289.6,167.5,279.6,167.7,269.7z"/>
	</g>
	<path fill="none" d="M56.3,321.5c3.2,10.6,12.7,19.6,26.8,26.5c-10.2-19.1-17.3-39.7-20.8-61C55.5,299.8,53.3,311.6,56.3,321.5z"/>
	<path fill="none" d="M452.4,201.5c-2.6-8.6-9.5-16.1-19.6-22.4c7.5,17.4,12.4,35.7,14.6,54.5C453.3,221.8,455.2,210.8,452.4,201.5z
		"/>
	<path fill="#40596B" d="M436.2,324.7C399.6,352,351,376,294.3,393.2c-54.9,16.6-107.1,23.6-151.8,21.9
		C70.9,412.4,18.7,387.3,5.2,343C-7,303,16,258.2,63.4,219c-4.4,22.6-4.7,45.7-1.1,68.1c-6.9,12.7-9.1,24.6-6,34.5
		c3.2,10.5,12.7,19.5,26.8,26.5c38.8,19.2,113.6,22.4,196.6-2.8c86.7-26.2,148.7-73.3,167.6-111.8c5.9-11.7,7.8-22.8,5-32.1
		c-2.5-8.6-9.4-16.1-19.5-22.4c-9.2-21.3-22.1-41.1-38.7-58.2c58.7,7.1,100.9,31.1,112.6,70.2C520,234.4,491.8,283.3,436.2,324.7z"
		/>
</g>
</svg>
