<?xml version="1.0" encoding="utf-8"?>
<!-- Generator: Adobe Illustrator 18.0.0, SVG Export Plug-In . SVG Version: 6.00 Build 0)  -->
<!DOCTYPE svg PUBLIC "-//W3C//DTD SVG 1.1//EN" "http://www.w3.org/Graphics/SVG/1.1/DTD/svg11.dtd">
<svg version="1.1" id="Layer_1" xmlns="http://www.w3.org/2000/svg" xmlns:xlink="http://www.w3.org/1999/xlink" x="0px" y="0px"
	 viewBox="0 0 512 512" enable-background="new 0 0 512 512" xml:space="preserve">
<g>
	<circle fill="#FF7058" cx="256" cy="256" r="254"/>
	<path fill="#F1543F" d="M207.3,192.3c47.8-53,63-125,45.8-190.2c-7.2,0.1-14.4,0.4-21.6,1.1c17.2,59.3,4.1,125.5-39.3,174.2
		L84.1,69.1c-2.6,2.4-5.2,4.8-7.7,7.3c-2.5,2.5-4.9,5.1-7.3,7.7l108.2,108.2c-48.7,43.4-114.9,56.4-174.1,39.2
		c-0.7,7.2-1,14.4-1.1,21.6c65.2,17.2,137.2,2,190.2-45.8L241,256L69.1,427.9c2.4,2.6,4.8,5.2,7.3,7.7c2.5,2.5,5.1,4.9,7.7,7.3
		L256,271l48.7,48.7c-47.8,53-63,125-45.8,190.2c7.2-0.1,14.4-0.4,21.6-1.1c-17.2-59.3-4.1-125.5,39.2-174.2l108.2,108.2
		c2.6-2.4,5.2-4.8,7.7-7.3c2.5-2.5,4.9-5.1,7.3-7.7L334.7,319.7c48.7-43.4,114.9-56.4,174.2-39.2c0.7-7.2,1-14.4,1.1-21.6
		c-65.2-17.2-137.2-2-190.2,45.8L271,256L442.9,84.1c-2.4-2.6-4.8-5.2-7.3-7.7c-2.5-2.5-5.1-4.9-7.7-7.3L256,241L207.3,192.3z"/>
</g>
</svg>
