<?xml version="1.0" encoding="utf-8"?>
<!-- Generator: Adobe Illustrator 18.0.0, SVG Export Plug-In . SVG Version: 6.00 Build 0)  -->
<!DOCTYPE svg PUBLIC "-//W3C//DTD SVG 1.1//EN" "http://www.w3.org/Graphics/SVG/1.1/DTD/svg11.dtd">
<svg version="1.1" id="Layer_1" xmlns="http://www.w3.org/2000/svg" xmlns:xlink="http://www.w3.org/1999/xlink" x="0px" y="0px"
	 viewBox="0 0 512 512" enable-background="new 0 0 512 512" xml:space="preserve">
<g>
	<polygon fill="#F1543F" points="451.4,2 60.6,2 60.4,103.7 451.6,103.7 	"/>
	<path fill="#FF7058" d="M495.7,128.4L381.1,307.8c-0.8-8.8-2-17.4-6.9-23.9c-8.7-12-27-14.6-38.8-23.3
		c-10.2-7.4-17.7-20.7-28.6-27.3L451.5,2l12.6,7.3C505.6,33.4,519.8,86.8,495.7,128.4z"/>
	<path fill="#FF7058" d="M205.3,233.3c-10.9,6.6-18.4,19.9-28.6,27.3c-11.9,8.7-30.3,11.3-38.9,23.3c-4.9,6.6-5.9,15.2-6.8,24.1
		L16.4,128.4C-7.9,86.8,6.3,33.4,48,9.3L60.6,2L205.3,233.3z"/>
	<path fill="#F8B64C" d="M402.1,369.7c0,15.2-13.4,28-17.8,41.7c-4.6,14.2-1.5,32.4-10.1,44.2c-8.7,11.9-27,14.6-38.9,23.2
		c-11.8,8.6-19.9,25.3-34.1,29.9c-13.7,4.4-30-4.1-45.2-4.1c-15.2,0-31.5,8.6-45.2,4.1c-14.2-4.6-22.3-21.3-34.1-29.9
		c-11.9-8.7-30.3-11.3-38.9-23.2c-8.6-11.8-5.5-30-10.1-44.2c-4.4-13.7-17.8-26.5-17.8-41.7c0-15.2,13.4-28,17.8-41.7
		c4.6-14.2,1.5-32.4,10.1-44.2c8.7-11.9,27-14.6,38.9-23.2c11.8-8.6,19.9-25.3,34.1-29.9c13.7-4.4,30,4.1,45.2,4.1
		c15.2,0,31.5-8.6,45.2-4.1c14.2,4.6,22.3,21.3,34.1,29.9c11.9,8.7,30.3,11.3,38.9,23.2c8.6,11.8,5.5,30,10.1,44.2
		C388.8,341.7,402.1,354.6,402.1,369.7z"/>
	<circle fill="#FFD15C" cx="256" cy="369.7" r="106.1"/>
	<path fill="#F8B64C" d="M329.4,342h-48c-2.4,0-4.6-1.6-5.3-3.9l-14.8-45.6c-1.7-5.1-8.9-5.1-10.6,0l-14.8,45.6
		c-0.7,2.3-2.9,3.9-5.3,3.9h-48c-5.4,0-7.6,6.9-3.3,10.1l38.8,28.2c2,1.4,2.8,3.9,2,6.2l-14.8,45.6c-1.7,5.1,4.2,9.4,8.6,6.2
		l38.8-28.2c2-1.4,4.6-1.4,6.6,0l38.8,28.2c4.4,3.2,10.2-1.1,8.6-6.2l-14.8-45.6c-0.7-2.3,0.1-4.8,2-6.2l38.8-28.2
		C337.1,348.9,334.8,342,329.4,342z"/>
</g>
</svg>
