<?xml version="1.0" encoding="utf-8"?>
<!-- Generator: Adobe Illustrator 18.0.0, SVG Export Plug-In . SVG Version: 6.00 Build 0)  -->
<!DOCTYPE svg PUBLIC "-//W3C//DTD SVG 1.1//EN" "http://www.w3.org/Graphics/SVG/1.1/DTD/svg11.dtd">
<svg version="1.1" id="Layer_1" xmlns="http://www.w3.org/2000/svg" xmlns:xlink="http://www.w3.org/1999/xlink" x="0px" y="0px"
	 viewBox="0 0 512 512" enable-background="new 0 0 512 512" xml:space="preserve">
<g>
	<rect x="232.5" y="339.8" fill="#CDD6E0" width="46.9" height="114.9"/>
	<rect x="232.5" y="339.8" fill="#ACB3BA" width="46.9" height="15.8"/>
	<path fill="#F2F2F2" d="M476.7,53.6v265c0,11.7-9.5,21.1-21.1,21.1H56.3c-11.6,0-21.1-9.4-21.1-21.1v-265H476.7z"/>
	<path fill="#40596B" d="M373.1,510c-18.3-46.8-63.8-80-117.1-80c-53.3,0-98.8,33.2-117.1,80H373.1z"/>
	<rect x="35.2" y="53.6" fill="#E0E1E2" width="441.6" height="17"/>
	<path fill="#CDD6E0" d="M483.6,2H30.3C16.5,2,3.9,11.8,2.7,25.5C1.4,40.8,13.4,53.6,28.4,53.6h453.7c13.5,0,25.8-9.7,27.2-23.2
		C510.8,15,498.7,2,483.6,2z"/>
	<path fill="#84DBFF" d="M94.4,233.5v-73.6h54.6v12.5h-39.7v16.3h37v12.4h-37v20h41.1v12.4H94.4z"/>
	<path fill="#84DBFF" d="M168.3,192.6v-13h51.5v13H168.3z M168.3,214.9v-13h51.5v13H168.3z"/>
	<path fill="#84DBFF" d="M239.9,233.5v-73.6h22.2l13.4,50.2l13.2-50.2H311v73.6h-13.8v-57.9l-14.6,57.9h-14.3l-14.6-57.9v57.9H239.9
		z"/>
	<path fill="#84DBFF" d="M381.4,206.5l14.4,4.6c-2.2,8-5.9,14-11,17.9c-5.1,3.9-11.7,5.8-19.6,5.8c-9.8,0-17.8-3.3-24.1-10
		c-6.3-6.7-9.4-15.8-9.4-27.4c0-12.2,3.2-21.8,9.5-28.5s14.6-10.2,25-10.2c9,0,16.3,2.7,21.9,8c3.3,3.1,5.9,7.7,7.5,13.6l-14.7,3.5
		c-0.9-3.8-2.7-6.8-5.4-9c-2.8-2.2-6.1-3.3-10.1-3.3c-5.5,0-9.9,2-13.3,5.9c-3.4,3.9-5.1,10.3-5.1,19c0,9.3,1.7,15.9,5,19.9
		c3.3,3.9,7.7,5.9,13.1,5.9c3.9,0,7.3-1.3,10.2-3.8C378.2,215.8,380.2,211.9,381.4,206.5z"/>
	<path fill="#84DBFF" d="M417.6,176.8v3.7h-13.9c0.2-1.4,0.6-2.7,1.4-4c0.8-1.3,2.2-2.9,4.5-5c1.8-1.7,2.9-2.8,3.3-3.4
		c0.5-0.8,0.8-1.6,0.8-2.4c0-0.9-0.2-1.6-0.7-2c-0.5-0.5-1.1-0.7-2-0.7c-0.8,0-1.5,0.3-2,0.8c-0.5,0.5-0.8,1.3-0.8,2.5l-4-0.4
		c0.2-2.2,1-3.8,2.2-4.7c1.2-1,2.8-1.4,4.7-1.4c2,0,3.7,0.6,4.8,1.7c1.2,1.1,1.8,2.5,1.8,4.1c0,0.9-0.2,1.8-0.5,2.7
		c-0.3,0.8-0.9,1.7-1.6,2.7c-0.5,0.6-1.3,1.5-2.6,2.6c-1.3,1.2-2.1,1.9-2.4,2.3c-0.3,0.4-0.6,0.7-0.8,1.1H417.6z"/>
</g>
</svg>
