<?xml version="1.0" encoding="utf-8"?>
<!-- Generator: Adobe Illustrator 18.0.0, SVG Export Plug-In . SVG Version: 6.00 Build 0)  -->
<!DOCTYPE svg PUBLIC "-//W3C//DTD SVG 1.1//EN" "http://www.w3.org/Graphics/SVG/1.1/DTD/svg11.dtd">
<svg version="1.1" id="Layer_1" xmlns="http://www.w3.org/2000/svg" xmlns:xlink="http://www.w3.org/1999/xlink" x="0px" y="0px"
	 viewBox="0 0 512 512" enable-background="new 0 0 512 512" xml:space="preserve">
<g>
	<path fill="#40596B" d="M341.1,341.1c46.1-46.1,109-64.6,168.9-56.1c-5.9-41.2-24.4-80.9-56.1-112.5c-77.7-77.7-203.7-77.7-281.5,0
		c-77.7,77.7-77.7,203.7,0,281.5c31.7,31.7,71.4,50.2,112.5,56.1C276.5,450.1,295,387.1,341.1,341.1z"/>
	<path fill="#FF7058" d="M418.3,314.7L314.8,418.2C173.4,396.7,53.6,286.5,17.3,149.4c-1.5-5.6-2.9-11.4-4.2-17.1
		c-3.6-16.6-5.9-33.6-6.9-50.8L2,2l79.4,4.3c17.2,1,34.3,3.3,50.8,6.9c5.7,1.3,11.5,2.6,17.1,4.2
		C286.6,53.7,396.8,173.4,418.3,314.7z"/>
	<path fill="#F8B64C" d="M343.1,426.4c38,49.5,97.6,81.5,164.8,81.5c0-67.2-32-126.8-81.5-164.8L343.1,426.4z"/>
	<path fill="#FFD15C" d="M352.5,417c27.9,25.2,64.7,40.7,105.3,40.7c0-40.6-15.5-77.3-40.7-105.3L352.5,417z"/>
	<path fill="#F1543F" d="M432.8,346.4l-86.4,86.4c-0.2,0.2-0.6,0.2-0.9,0l-22.6-22.6l87.3-87.3l22.6,22.6
		C433,345.7,433,346.1,432.8,346.4z"/>
	<path fill="#40596B" d="M132.2,13.1c-6.8,28.1-21.1,54.4-42.9,76.2c-21.8,21.8-48.1,36.1-76.2,42.9c-3.6-16.6-5.9-33.6-6.9-50.8
		L2,2l79.4,4.3C98.6,7.2,115.7,9.6,132.2,13.1z"/>
	<circle fill="#84DBFF" cx="168.6" cy="168.5" r="70.3"/>
	<circle fill="#FFFFFF" cx="168.6" cy="168.5" r="49.8"/>
</g>
</svg>
