<?xml version="1.0" encoding="utf-8"?>
<!-- Generator: Adobe Illustrator 18.0.0, SVG Export Plug-In . SVG Version: 6.00 Build 0)  -->
<!DOCTYPE svg PUBLIC "-//W3C//DTD SVG 1.1//EN" "http://www.w3.org/Graphics/SVG/1.1/DTD/svg11.dtd">
<svg version="1.1" id="Layer_1" xmlns="http://www.w3.org/2000/svg" xmlns:xlink="http://www.w3.org/1999/xlink" x="0px" y="0px"
	 viewBox="0 0 512 512" enable-background="new 0 0 512 512" xml:space="preserve">
<g>
	<path fill="#F2F2F2" d="M458.4,2H145.6L32.5,115.2v373.7c0,11.7,9.5,21.2,21.2,21.2h404.7c11.7,0,21.2-9.5,21.2-21.2V23.2
		C479.5,11.5,470,2,458.4,2z"/>
	<path fill="#CDD6E0" d="M124.5,115.2c11.7,0,21.2-9.5,21.2-21.2V2L32.5,115.2H124.5z"/>
	<g>
		<rect x="115.7" y="123.4" fill="#CDD6E0" width="280.6" height="23"/>
		<rect x="115.7" y="190" fill="#CDD6E0" width="280.6" height="23"/>
		<rect x="115.7" y="256.6" fill="#CDD6E0" width="280.6" height="23"/>
	</g>
	<rect x="193.3" y="57.3" fill="#CDD6E0" width="203" height="23"/>
	<g>
		<g>
			<polygon fill="#FFD15C" points="451.6,483.7 424.2,478.3 410.7,502.8 381.7,440.5 422.6,421.4 			"/>
			<polygon fill="#FFD15C" points="298.6,483.7 326,478.3 339.5,502.8 368.6,440.5 327.6,421.4 			"/>
		</g>
		<path fill="#84DBFF" d="M461.3,377.5c0,8.6-13.8,14.9-16.3,22.7c-2.6,8.1,4.8,21.3-0.1,28c-4.9,6.8-19.8,3.8-26.6,8.7
			c-6.7,4.9-8.5,20-16.5,22.6c-7.8,2.5-18-8.6-26.6-8.6c-8.6,0-18.9,11.1-26.6,8.6c-8.1-2.6-9.8-17.7-16.5-22.6
			c-6.8-4.9-21.6-2-26.6-8.7c-4.9-6.7,2.5-19.9-0.1-28c-2.5-7.8-16.3-14.1-16.3-22.7c0-8.6,13.8-14.9,16.3-22.7
			c2.6-8.1-4.8-21.3,0.1-28c4.9-6.8,19.8-3.8,26.6-8.7c6.7-4.9,8.5-20,16.5-22.6c7.8-2.5,18,8.6,26.6,8.6c8.6,0,18.9-11.1,26.6-8.6
			c8.1,2.6,9.8,17.7,16.5,22.6c6.8,4.9,21.6,2,26.6,8.7c4.9,6.7-2.5,19.9,0.1,28C447.5,362.6,461.3,368.9,461.3,377.5z"/>
		<circle fill="#FFD15C" cx="375.1" cy="377.5" r="60.3"/>
	</g>
</g>
</svg>
