<?xml version="1.0" encoding="utf-8"?>
<!-- Generator: Adobe Illustrator 18.0.0, SVG Export Plug-In . SVG Version: 6.00 Build 0)  -->
<!DOCTYPE svg PUBLIC "-//W3C//DTD SVG 1.1//EN" "http://www.w3.org/Graphics/SVG/1.1/DTD/svg11.dtd">
<svg version="1.1" id="Layer_1" xmlns="http://www.w3.org/2000/svg" xmlns:xlink="http://www.w3.org/1999/xlink" x="0px" y="0px"
	 viewBox="0 0 512 512" enable-background="new 0 0 512 512" xml:space="preserve">
<g>
	<polygon fill="#FF7058" points="255.7,358.3 106.8,507.2 89.2,420.2 2,402.5 151,253.5 	"/>
	<polygon fill="#FF7058" points="510,402.5 422.9,420.2 405.3,507.2 336.5,438.5 256.4,358.3 361,253.5 452.1,344.6 	"/>
	<path fill="#F1543F" d="M151,253.5l104.8,104.8L174,440c-13.4-7-21.9-20.2-29.5-32c-5-7.6-10.2-15.6-15.3-19.4
		c-5.2-3.8-14.6-6.3-23.4-8.7c-15.6-4.2-33.2-8.9-43.8-23.4c-2.1-2.8-3.8-5.9-5-9L151,253.5z"/>
	<path fill="#F1543F" d="M452.1,344.6c-1.4,4.2-3.3,8.2-6.1,11.9c-10.7,14.6-28.3,19.3-43.9,23.4c-8.9,2.4-18.1,4.9-23.4,8.7
		c-5.1,3.8-10.3,11.7-15.2,19.4c-7.2,11.1-15.1,23.2-27,30.5l-80.2-80.2L361,253.5L452.1,344.6z"/>
	<path fill="#FFD15C" d="M475.7,216.9c0,22.6-28.1,40.4-34.7,60.8c-6.9,21.1,5.1,52-7.7,69.5c-12.9,17.7-46.1,15.8-63.8,28.7
		c-17.6,12.8-25.9,45-47,51.8c-20.4,6.6-46-14.3-68.5-14.3c-22.6,0-48.2,20.9-68.5,14.3c-21.1-6.9-29.5-39-47-51.8
		c-17.7-12.9-50.9-11-63.8-28.7c-12.8-17.6-0.8-48.4-7.7-69.5c-6.6-20.4-34.7-38.2-34.7-60.8c0-22.6,28.1-40.4,34.7-60.8
		c6.9-21.1-5.1-52,7.7-69.5c12.9-17.7,46.1-15.8,63.8-28.7c17.6-12.8,25.9-45,47-51.8c20.4-6.6,46,14.3,68.5,14.3
		c22.6,0,48.2-20.9,68.5-14.3c21.1,6.9,29.5,39,47,51.8c17.7,12.9,50.9,11,63.8,28.7c12.8,17.6,0.8,48.4,7.7,69.5
		C447.6,176.5,475.7,194.4,475.7,216.9z"/>
	<circle fill="#F8B64C" cx="254" cy="216.9" r="166.8"/>
	<path fill="#FFD15C" d="M254,77.9c-76.7,0-139.1,62.4-139.1,139.1S177.3,356,254,356c76.7,0,139.1-62.4,139.1-139.1
		S330.7,77.9,254,77.9z M254,337.7c-66.6,0-120.7-54.2-120.7-120.7S187.4,96.2,254,96.2s120.7,54.2,120.7,120.7
		S320.5,337.7,254,337.7z"/>
	<path fill="#FFFFFF" d="M348,182.6h-62.2c-2.9,0-5.4-1.8-6.3-4.6l-19.2-59.1c-2-6.1-10.6-6.1-12.6,0L228.5,178
		c-0.9,2.7-3.4,4.6-6.3,4.6H160c-6.4,0-9.1,8.2-3.9,12l50.3,36.5c2.3,1.7,3.3,4.7,2.4,7.4l-19.2,59.1c-2,6.1,5,11.2,10.2,7.4
		l50.3-36.5c2.3-1.7,5.5-1.7,7.8,0l50.3,36.5c5.2,3.8,12.2-1.3,10.2-7.4l-19.2-59.1c-0.9-2.7,0.1-5.7,2.4-7.4l50.3-36.5
		C357,190.8,354.4,182.6,348,182.6z"/>
</g>
</svg>
