<?xml version="1.0" encoding="utf-8"?>
<!-- Generator: Adobe Illustrator 18.0.0, SVG Export Plug-In . SVG Version: 6.00 Build 0)  -->
<!DOCTYPE svg PUBLIC "-//W3C//DTD SVG 1.1//EN" "http://www.w3.org/Graphics/SVG/1.1/DTD/svg11.dtd">
<svg version="1.1" id="Layer_1" xmlns="http://www.w3.org/2000/svg" xmlns:xlink="http://www.w3.org/1999/xlink" x="0px" y="0px"
	 viewBox="0 0 512 512" enable-background="new 0 0 512 512" xml:space="preserve">
<g>
	<polygon fill="#FF7058" points="348.9,510 256,470.2 163.1,510 163.1,319 348.9,319 	"/>
	<path fill="#FFD15C" d="M467.9,209.2c0,15.6-17.9,29-21.2,43.6c-3.4,15.1,6.8,34.8,0.2,48.4c-6.7,13.8-28.6,18.1-38,30
		c-9.5,11.9-8.9,34.2-20.8,43.7c-11.9,9.5-33.4,3.9-47.2,10.6c-13.6,6.6-22.7,26.9-37.7,30.4c-14.6,3.3-31.6-11-47.2-11
		c-15.6,0-32.6,14.3-47.2,11c-15.1-3.4-24.1-23.8-37.7-30.4c-13.8-6.7-35.4-1.1-47.2-10.6c-11.9-9.5-11.3-31.8-20.8-43.7
		c-9.5-11.9-31.4-16.2-38-30c-6.6-13.6,3.6-33.4,0.2-48.4c-3.3-14.6-21.2-28-21.2-43.6c0-15.6,17.8-29,21.2-43.6
		c3.4-15.1-6.8-34.8-0.2-48.4c6.7-13.8,28.6-18.1,38-30c9.5-11.9,8.9-34.2,20.8-43.7c11.9-9.5,33.4-3.9,47.2-10.6
		c13.6-6.6,22.7-26.9,37.7-30.4c14.6-3.3,31.6,11,47.2,11c15.6,0,32.6-14.3,47.2-11c15.1,3.4,24.1,23.8,37.7,30.4
		c13.8,6.7,35.4,1.1,47.2,10.6c11.9,9.5,11.3,31.8,20.8,43.7c9.5,11.9,31.4,16.2,38,30c6.6,13.6-3.6,33.4-0.2,48.4
		C450.1,180.2,467.9,193.6,467.9,209.2z"/>
	<circle fill="#F8B64C" cx="256" cy="209.2" r="140.2"/>
	<path fill="#FFFFFF" d="M355.6,175.2h-69c-2.1,0-4-1.4-4.6-3.4l-21.3-65.7c-1.5-4.5-7.8-4.5-9.3,0L230,171.8
		c-0.7,2-2.5,3.4-4.6,3.4h-69c-4.7,0-6.7,6-2.9,8.8l55.9,40.6c1.7,1.2,2.4,3.4,1.8,5.4l-21.3,65.7c-1.5,4.5,3.7,8.2,7.5,5.4
		l55.9-40.6c1.7-1.2,4-1.2,5.7,0l55.9,40.6c3.8,2.8,9-1,7.5-5.4L300.9,230c-0.7-2,0.1-4.2,1.8-5.4l55.9-40.6
		C362.3,181.2,360.4,175.2,355.6,175.2z"/>
</g>
</svg>
