<?xml version="1.0" encoding="utf-8"?>
<!-- Generator: Adobe Illustrator 18.0.0, SVG Export Plug-In . SVG Version: 6.00 Build 0)  -->
<!DOCTYPE svg PUBLIC "-//W3C//DTD SVG 1.1//EN" "http://www.w3.org/Graphics/SVG/1.1/DTD/svg11.dtd">
<svg version="1.1" id="Layer_1" xmlns="http://www.w3.org/2000/svg" xmlns:xlink="http://www.w3.org/1999/xlink" x="0px" y="0px"
	 viewBox="0 0 512 512" enable-background="new 0 0 512 512" xml:space="preserve">
<g>
	<path fill="#F2F2F2" d="M388.5,319.1C388.5,424.5,303,510,197.6,510S6.7,424.5,6.7,319.1c0-87.7,59.2-161.4,139.7-183.8V67.3h102.4
		v67.9C329.3,157.7,388.5,231.4,388.5,319.1z"/>
	<path fill="#CDD6E0" d="M249.7,2H145.4c-18,0-32.6,14.6-32.6,32.6c0,18,14.6,32.6,32.6,32.6h104.3c18,0,32.6-14.6,32.6-32.6
		C282.4,16.6,267.7,2,249.7,2z"/>
	<path fill="#84DBFF" d="M197.6,467.6c71,0,130.4-50.1,145-116.7c-27.7-51.9-82.3-87.3-145-87.3c-62.8,0-117.4,35.4-145,87.3
		C67.2,417.6,126.6,467.6,197.6,467.6z"/>
	<path fill="#CDD6E0" d="M494.6,191.3h-86c-6,0-10.8,4.8-10.8,10.8l0,0c0,6,4.8,10.8,10.8,10.8h86c6,0,10.8-4.8,10.8-10.8l0,0
		C505.3,196.1,500.5,191.3,494.6,191.3z"/>
	<path fill="#F2F2F2" d="M492.8,212.8v255.7c0,22.8-18.5,41.3-41.3,41.3c-22.9,0-41.3-18.5-41.3-41.3V212.8H492.8z"/>
	<path fill="#84DBFF" d="M420.8,339.2v129.3c0,16.9,13.8,30.7,30.7,30.7s30.7-13.8,30.7-30.7V339.2
		C468.2,325.5,451.6,350.5,420.8,339.2z"/>
	<rect x="410.2" y="271.4" fill="#4CDBC4" width="22.9" height="2.6"/>
	<rect x="410.2" y="291" fill="#4CDBC4" width="22.9" height="2.6"/>
	<rect x="410.2" y="310.5" fill="#4CDBC4" width="22.9" height="2.6"/>
	<rect x="410.2" y="330" fill="#4CDBC4" width="22.9" height="2.6"/>
	<rect x="410.2" y="349.6" fill="#4CDBC4" width="22.9" height="2.6"/>
	<rect x="410.2" y="369.1" fill="#4CDBC4" width="22.9" height="2.6"/>
	<rect x="410.2" y="388.7" fill="#4CDBC4" width="22.9" height="2.6"/>
	<rect x="410.2" y="408.2" fill="#4CDBC4" width="22.9" height="2.6"/>
	<rect x="410.2" y="427.7" fill="#4CDBC4" width="22.9" height="2.6"/>
	<rect x="146.3" y="67.3" fill="#E0E1E2" width="102.4" height="15.9"/>
	<rect x="410.3" y="212.8" fill="#E0E1E2" width="82.5" height="15.9"/>
</g>
</svg>
