<?xml version="1.0" encoding="utf-8"?>
<!-- Generator: Adobe Illustrator 18.0.0, SVG Export Plug-In . SVG Version: 6.00 Build 0)  -->
<!DOCTYPE svg PUBLIC "-//W3C//DTD SVG 1.1//EN" "http://www.w3.org/Graphics/SVG/1.1/DTD/svg11.dtd">
<svg version="1.1" id="Layer_1" xmlns="http://www.w3.org/2000/svg" xmlns:xlink="http://www.w3.org/1999/xlink" x="0px" y="0px"
	 viewBox="0 0 512 512" enable-background="new 0 0 512 512" xml:space="preserve">
<g>
	<path fill="#40596B" d="M340.5,425.1H27.7c-2.2,0-4,1.8-4,4v76.6c0,2.2,1.8,4,4,4h312.8V425.1z"/>
	<path fill="#CDD6E0" d="M340.5,148.1v277H76.6c-29.2,0-52.9,13.1-52.9,42.3V148.1c0-11.7,9.5-21.2,21.2-21.2h274.5
		C331,126.9,340.5,136.3,340.5,148.1z"/>
	<path fill="#ACB3BA" d="M128.6,126.9v298.2h-52c-29.2,0-52.9,14.7-52.9,43.9V148.1c0-11.7,9.5-21.2,21.2-21.2H128.6z"/>
	<path fill="#ACB3BA" d="M340.5,425.1H27.7c-2.2,0-4,1.8-4,4v76.6c0,2.2,1.8,4,4,4h312.8V425.1z"/>
	<path fill="#F2F2F2" d="M66,488.6c-11.7,0-21.1-9.5-21.1-21.1c0-11.7,9.5-21.2,21.1-21.2h274.5v42.3H66z"/>
	<path fill="#40596B" d="M171.5,300.2H446c23.4,0,42.3,18.9,42.3,42.3l0,0c0,23.4-18.9,42.3-42.3,42.3H171.5V300.2z"/>
	<path fill="#4CDBC4" d="M171.5,23.2v277h263.9c29.2,0,52.9,18.1,52.9,47.3V23.2c0-11.7-9.5-21.2-21.2-21.2H192.7
		C181,2,171.5,11.4,171.5,23.2z"/>
	<path fill="#3DC9AE" d="M383.4,2v298.2h52c29.2,0,52.9,18.1,52.9,47.3V23.2c0-11.7-9.5-21.2-21.2-21.2H383.4z"/>
	<path fill="#3DC9AE" d="M171.5,300.2H446c23.4,0,42.3,18.9,42.3,42.3l0,0c0,23.4-18.9,42.3-42.3,42.3H171.5V300.2z"/>
	<path fill="#F2F2F2" d="M446,363.6c11.7,0,21.1-9.5,21.1-21.1c0-11.7-9.5-21.2-21.1-21.2H171.5v42.3H446z"/>
	<rect x="206.4" y="183.1" fill="#F2F2F2" width="142.2" height="75.2"/>
	<polygon fill="#40596B" points="148.6,510 126.7,502.4 104.9,510 104.9,467.4 148.6,467.4 	"/>
</g>
</svg>
