<?xml version="1.0" encoding="utf-8"?>
<!-- Generator: Adobe Illustrator 18.0.0, SVG Export Plug-In . SVG Version: 6.00 Build 0)  -->
<!DOCTYPE svg PUBLIC "-//W3C//DTD SVG 1.1//EN" "http://www.w3.org/Graphics/SVG/1.1/DTD/svg11.dtd">
<svg version="1.1" id="Layer_1" xmlns="http://www.w3.org/2000/svg" xmlns:xlink="http://www.w3.org/1999/xlink" x="0px" y="0px"
	 viewBox="0 0 512 512" enable-background="new 0 0 512 512" xml:space="preserve">
<g>
	<path fill="#FFD15C" d="M458,417.7H54l0-324.8C54,79,60.9,66,72.7,58.6c83-52,283.7-52,366.7,0c11.8,7.4,18.7,20.4,18.7,34.3
		L458,417.7z"/>
	<path fill="#F8B64C" d="M458,411.7l0-30.2c0-60.1-41.5-113.1-100.4-124.9c-63-12.7-140.3-12.7-203.3,0
		C95.5,268.5,54,321.5,54,381.5l0,30.2H458z"/>
	<circle fill="#FFFFFF" cx="117.5" cy="347.5" r="31.5"/>
	<circle fill="#FFFFFF" cx="394.5" cy="347.5" r="31.5"/>
	<path fill="#FFD15C" d="M347.4,394.7H164.6c-1.1,0-2-0.9-2-2v-90.4c0-1.1,0.9-2,2-2h182.8c1.1,0,2,0.9,2,2v90.4
		C349.4,393.8,348.5,394.7,347.4,394.7z"/>
	<path fill="#334A5E" d="M457.2,411.7H54.8c-5.7,0-10.3,4.6-10.3,10.3l0,0c0,5.7,4.6,10.3,10.3,10.3h402.4c5.7,0,10.3-4.6,10.3-10.3
		l0,0C467.5,416.4,462.9,411.7,457.2,411.7z"/>
	<path fill="#40596B" d="M447.4,432.4V475c0,9.6-7.7,17.4-17.4,17.4h-39.3c-9.6,0-17.5-7.7-17.5-17.4v-42.6H447.4z"/>
	<path fill="#40596B" d="M138.6,432.4V475c0,9.6-7.8,17.4-17.4,17.4H81.9c-9.5,0-17.4-7.7-17.4-17.4v-42.6H138.6z"/>
	<rect x="81.9" y="105.1" fill="#FFFFFF" width="150" height="97.7"/>
	<rect x="271.9" y="105.1" fill="#FFFFFF" width="150" height="97.7"/>
	<rect x="464.5" y="171.4" fill="#ACB3BA" width="45.5" height="70.5"/>
	<path fill="#CDD6E0" d="M495.2,171.4h-15.9v-16.1c0-2.7-2.2-4.9-4.9-4.9H458v-15.9h16.4c11.4,0,20.8,9.3,20.8,20.8V171.4z"/>
	<rect x="2" y="171.4" fill="#ACB3BA" width="45.5" height="70.5"/>
	<path fill="#CDD6E0" d="M32.7,171.4H16.8v-16.1c0-11.4,9.3-20.8,20.8-20.8h16.4v15.9H37.6c-2.7,0-4.9,2.2-4.9,4.9V171.4z"/>
	<path fill="#FF7058" d="M193.3,330.1L193.3,330.1c0,6.4,5.2,11.5,11.5,11.5h102.4c6.4,0,11.5-5.2,11.5-11.5v0
		c0-6.4-5.2-11.5-11.5-11.5H204.8C198.4,318.5,193.3,323.7,193.3,330.1z"/>
	<path fill="#FF7058" d="M193.3,364.9L193.3,364.9c0,6.4,5.2,11.5,11.5,11.5h102.4c6.4,0,11.5-5.2,11.5-11.5l0,0
		c0-6.4-5.2-11.5-11.5-11.5H204.8C198.4,353.4,193.3,358.6,193.3,364.9z"/>
	<rect x="64.5" y="432.4" fill="#344956" width="74.1" height="15.9"/>
	<rect x="373.4" y="432.4" fill="#344956" width="74.1" height="15.9"/>
</g>
</svg>
