<?xml version="1.0" encoding="utf-8"?>
<!-- Generator: Adobe Illustrator 18.0.0, SVG Export Plug-In . SVG Version: 6.00 Build 0)  -->
<!DOCTYPE svg PUBLIC "-//W3C//DTD SVG 1.1//EN" "http://www.w3.org/Graphics/SVG/1.1/DTD/svg11.dtd">
<svg version="1.1" id="Layer_1" xmlns="http://www.w3.org/2000/svg" xmlns:xlink="http://www.w3.org/1999/xlink" x="0px" y="0px"
	 viewBox="0 0 512 512" enable-background="new 0 0 512 512" xml:space="preserve">
<g>
	<path fill="#40596B" d="M510,18.9C510,9.6,502.4,2,493.1,2H23.2C11.5,2,2,11.5,2,23.2v315.3h508V18.9z"/>
	<path fill="#F2F2F2" d="M2,338.5V400c0,11.7,9.5,21.2,21.2,21.2h465.6c11.7,0,21.2-9.5,21.2-21.2v-61.5H2z"/>
	<circle fill="#CDD5DF" cx="256" cy="379.8" r="14.3"/>
	<rect x="158.6" y="421.2" fill="#CDD6E0" width="194.7" height="56.7"/>
	<rect x="120.4" y="477.8" fill="#F2F2F2" width="271.1" height="32.2"/>
	<rect x="35.7" y="33.9" fill="#FFFFFF" width="440.5" height="280.3"/>
	<rect x="56.9" y="55" fill="#84DBFF" width="136.8" height="163.5"/>
	<rect x="213.7" y="128.9" fill="#CDD6E0" width="241.3" height="23"/>
	<rect x="212.7" y="195.5" fill="#CDD6E0" width="242.4" height="23"/>
	<rect x="55.8" y="262.2" fill="#CDD6E0" width="399.2" height="23"/>
	<rect x="213.7" y="62.8" fill="#CDD6E0" width="241.3" height="23"/>
	<path fill="#334A5E" d="M208.2,117.3l-50-10.2l10.2,50c2-4.9,6.2-11.1,11.9-17.5l14,14l10.4-10.4l-14-14
		C197.1,123.6,203.4,119.4,208.2,117.3z"/>
	<rect x="158.6" y="421.2" fill="#ACB3BA" width="194.7" height="15.9"/>
</g>
</svg>
