<?xml version="1.0" encoding="utf-8"?>
<!-- Generator: Adobe Illustrator 18.0.0, SVG Export Plug-In . SVG Version: 6.00 Build 0)  -->
<!DOCTYPE svg PUBLIC "-//W3C//DTD SVG 1.1//EN" "http://www.w3.org/Graphics/SVG/1.1/DTD/svg11.dtd">
<svg version="1.1" id="Layer_1" xmlns="http://www.w3.org/2000/svg" xmlns:xlink="http://www.w3.org/1999/xlink" x="0px" y="0px"
	 viewBox="0 0 512 512" enable-background="new 0 0 512 512" xml:space="preserve">
<g>
	<path fill="#F2F2F2" d="M377.5,5.9H80.1l-78,78v401.4c0,11.5,9.3,20.8,20.8,20.8h354.5c11.5,0,20.8-9.3,20.8-20.8V26.8
		C398.4,15.2,389,5.9,377.5,5.9z"/>
	<path fill="#65C5B8" d="M59.3,83.9c11.5,0,20.8-9.3,20.8-20.8V5.9l-78,78H59.3z"/>
	<rect x="46.4" y="109.6" fill="#FFD15C" width="194.5" height="22.8"/>
	<rect x="46.4" y="177.1" fill="#89D6F7" width="307.7" height="22.8"/>
	<rect x="46.4" y="244.6" fill="#89D6F7" width="307.7" height="22.8"/>
	<rect x="46.4" y="312.1" fill="#89D6F7" width="307.7" height="22.8"/>
	<rect x="46.4" y="379.6" fill="#89D6F7" width="307.7" height="22.8"/>
	
		<rect x="80.1" y="256.7" transform="matrix(0.7071 -0.7071 0.7071 0.7071 -144.5677 270.2668)" fill="#CDD5DF" width="347.8" height="105.9"/>
	<path fill="#FFD15C" d="M93.6,395.1l74.9,74.9l-47.2,14.1l-41.6,12.5c-7.8,2.4-15-4.8-12.6-12.6l12.5-41.6L93.6,395.1z"/>
	
		<rect x="371" y="119.5" transform="matrix(0.7071 -0.7071 0.7071 0.7071 -7.3504 327.1042)" fill="#40596B" width="40.3" height="105.9"/>
	<path fill="#FF7058" d="M509.3,129.2l-66.4,66.4L368,120.7l66.4-66.4c0.8-0.8,2-0.8,2.8,0l72.1,72.1
		C510,127.2,510,128.5,509.3,129.2z"/>
	<path fill="#334A5E" d="M105.2,458.5c7.4,7.4,12.8,16.3,16.1,25.6l-41.6,12.5c-7.8,2.4-15-4.8-12.6-12.6l12.5-41.6
		C88.8,445.6,97.7,451,105.2,458.5z"/>
</g>
</svg>
