<?xml version="1.0" encoding="utf-8"?>
<!-- Generator: Adobe Illustrator 18.0.0, SVG Export Plug-In . SVG Version: 6.00 Build 0)  -->
<!DOCTYPE svg PUBLIC "-//W3C//DTD SVG 1.1//EN" "http://www.w3.org/Graphics/SVG/1.1/DTD/svg11.dtd">
<svg version="1.1" id="Layer_1" xmlns="http://www.w3.org/2000/svg" xmlns:xlink="http://www.w3.org/1999/xlink" x="0px" y="0px"
	 viewBox="0 0 512 512" enable-background="new 0 0 512 512" xml:space="preserve">
<g>
	<g>
		<path fill="#CDD6E0" d="M269.4,301.4h-26.8C109.9,301.4,2,193.4,2,60.8V45h508v15.8C510,193.4,402.1,301.4,269.4,301.4z
			 M34.1,76.5c8.1,108,98.5,193.3,208.5,193.3h26.8c110,0,200.4-85.4,208.5-193.3H34.1z"/>
	</g>
	<rect x="225.7" y="274.5" fill="#F8B64C" width="60.6" height="132.7"/>
	<path fill="#40596B" d="M401.8,507.6H110.2V397.1c0-6.4,5.2-11.5,11.5-11.5h268.5c6.4,0,11.5,5.2,11.5,11.5V507.6z"/>
	<path fill="#F8B64C" d="M430.9,4.4h-350c-0.7,0-1.3,0.6-1.3,1.3v25.4c0,0.7,0.6,1.3,1.3,1.3h350c0.7,0,1.3-0.6,1.3-1.3V5.7
		C432.2,5,431.6,4.4,430.9,4.4z"/>
	<path fill="#FFD15C" d="M418.2,32.4H93.6c-1.9,0-3.7-0.4-5.4-1.1c-11.5,85.7,15.2,175.4,81,241.3l86.8,86.8l86.8-86.8
		c65.9-65.9,92.6-155.7,81-241.4C422.1,32,420.2,32.4,418.2,32.4z"/>
</g>
</svg>
