<?xml version="1.0" encoding="utf-8"?>
<!-- Generator: Adobe Illustrator 18.0.0, SVG Export Plug-In . SVG Version: 6.00 Build 0)  -->
<!DOCTYPE svg PUBLIC "-//W3C//DTD SVG 1.1//EN" "http://www.w3.org/Graphics/SVG/1.1/DTD/svg11.dtd">
<svg version="1.1" id="Layer_1" xmlns="http://www.w3.org/2000/svg" xmlns:xlink="http://www.w3.org/1999/xlink" x="0px" y="0px"
	 viewBox="0 0 512 512" enable-background="new 0 0 512 512" xml:space="preserve">
<g>
	<path fill="#40596B" d="M378.9,413.4l-12.7,9l-28.6,15.8l46.5,62.2c8.7,11.6,25.7,12.8,35.9,2.6l0,0c8.4-8.4,9.3-21.6,2.2-31.1
		L378.9,413.4z"/>
	<path fill="#40596B" d="M132.3,413.4l12.7,9l28.6,15.8L127,500.4c-8.7,11.6-25.7,12.8-35.9,2.6l0,0c-8.4-8.4-9.3-21.6-2.2-31.1
		L132.3,413.4z"/>
	<path fill="#40596B" d="M95.4,60.3L59.7,95.7l26.1,26.1c10.8,10.8,28.7,9.5,37.8-2.7c7.5-10,6.5-24-2.3-32.8L95.4,60.3z"/>
	<path fill="#FFD15C" d="M131.3,24.4L24,131.1c-29.5-29.6-29.3-77.5,0.3-107C54-5.4,101.9-5.3,131.3,24.4z"/>
	<path fill="#40596B" d="M416.6,60.3l35.7,35.5l-26.1,26.1c-10.8,10.8-28.7,9.5-37.8-2.7c-7.5-10-6.5-24,2.3-32.8L416.6,60.3z"/>
	<path fill="#FFD15C" d="M380.7,24.4L488,131.1c29.5-29.6,29.3-77.5-0.3-107C458-5.4,410.1-5.3,380.7,24.4z"/>
	<circle fill="#FF7058" cx="255.6" cy="256" r="228"/>
	<path fill="#F2F2F2" d="M255,441.8c-102.5-0.3-185.5-83.9-185.2-186.4C70.1,153,153.7,69.9,256.2,70.2
		c102.5,0.3,185.5,83.9,185.2,186.4C441.1,359,357.5,442.1,255,441.8z"/>
	<path fill="#84DBFF" d="M256.1,84.7c-4.2,0-7.6,3.4-7.6,7.5l-0.1,20.1c0,4.2,3.4,7.6,7.5,7.6c4.2,0,7.6-3.4,7.6-7.5l0.1-20.1
		C263.7,88.1,260.3,84.7,256.1,84.7z"/>
	<path fill="#84DBFF" d="M255.2,392c-4.2,0-7.6,3.4-7.6,7.5l-0.1,20.1c0,4.2,3.4,7.6,7.5,7.6c4.2,0,7.6-3.4,7.6-7.5l0.1-20.1
		C262.7,395.5,259.3,392.1,255.2,392z"/>
	<path fill="#84DBFF" d="M426.9,256.5c0-4.2-3.4-7.6-7.5-7.6l-20.1-0.1c-4.2,0-7.6,3.4-7.6,7.5c0,4.2,3.4,7.6,7.5,7.6l20.1,0.1
		C423.5,264.1,426.9,260.7,426.9,256.5z"/>
	<path fill="#84DBFF" d="M119.5,255.6c0-4.2-3.4-7.6-7.5-7.6l-20.1-0.1c-4.2,0-7.6,3.4-7.6,7.5c0,4.2,3.4,7.6,7.5,7.6l20.1,0.1
		C116.1,263.1,119.5,259.7,119.5,255.6z"/>
	<path fill="#ACB3BA" d="M255.7,141.7c-7,0-12.6,5.7-12.6,12.7l0.5,125.2c0,7,5.7,12.6,12.7,12.6c7,0,12.6-5.7,12.6-12.7l-0.5-125.2
		C268.4,147.3,262.7,141.6,255.7,141.7z"/>
	<path fill="#CDD6E0" d="M173.4,268.2l94.6-0.1c5.8,0,10.6-5.7,10.6-12.6c0-7-4.7-12.6-10.6-12.6l-94.6,0.1
		c-5.8,0-10.6,5.7-10.6,12.6C162.8,262.5,167.6,268.2,173.4,268.2z"/>
	<path fill="#FFFFFF" d="M255.6,264.2c-4.5,0-8.2-3.7-8.2-8.2c0-4.5,3.7-8.2,8.2-8.2s8.2,3.7,8.2,8.2
		C263.8,260.5,260.1,264.2,255.6,264.2z"/>
</g>
</svg>
