<?xml version="1.0" encoding="utf-8"?>
<!-- Generator: Adobe Illustrator 18.0.0, SVG Export Plug-In . SVG Version: 6.00 Build 0)  -->
<!DOCTYPE svg PUBLIC "-//W3C//DTD SVG 1.1//EN" "http://www.w3.org/Graphics/SVG/1.1/DTD/svg11.dtd">
<svg version="1.1" id="Layer_1" xmlns="http://www.w3.org/2000/svg" xmlns:xlink="http://www.w3.org/1999/xlink" x="0px" y="0px"
	 viewBox="0 0 512 512" enable-background="new 0 0 512 512" xml:space="preserve">
<g>
	<path fill="#F2F2F2" d="M437.6,243.8v244.7c0,11.7-9.5,21.2-21.2,21.2H87.3c-11.8,0-21.2-9.5-21.2-21.2V243.8H437.6z"/>
	<rect x="186.7" y="327.3" fill="#ACB3BA" width="138.6" height="182.7"/>
	<rect x="66.1" y="243.8" fill="#CDD6E0" width="371.5" height="17.3"/>
	<rect x="102.4" y="41.7" fill="#FF7058" width="69.9" height="131.9"/>
	<path fill="#40596B" d="M241.6,7.6L23.8,208.4c-14.2,13.1-4.9,36.8,14.4,36.8h435.6c19.3,0,28.6-23.7,14.4-36.8L270.4,7.6
		C262.3,0.1,249.7,0.1,241.6,7.6z"/>
	<circle fill="#FFD15C" cx="256" cy="149" r="41.4"/>
</g>
</svg>
