<?xml version="1.0" encoding="utf-8"?>
<!-- Generator: Adobe Illustrator 18.0.0, SVG Export Plug-In . SVG Version: 6.00 Build 0)  -->
<!DOCTYPE svg PUBLIC "-//W3C//DTD SVG 1.1//EN" "http://www.w3.org/Graphics/SVG/1.1/DTD/svg11.dtd">
<svg version="1.1" id="Layer_1" xmlns="http://www.w3.org/2000/svg" xmlns:xlink="http://www.w3.org/1999/xlink" x="0px" y="0px"
	 viewBox="0 0 512 512" enable-background="new 0 0 512 512" xml:space="preserve">
<g>
	<path fill="#F2F2F2" d="M67.8,363.8L67.8,363.8c-11.3,5.3-24.8,0.4-30.1-11l-33.6-72c-5.3-11.3-0.4-24.8,11-30.1l0,0
		c11.3-5.3,24.8-0.4,30.1,11l33.6,72C84.1,345,79.2,358.5,67.8,363.8z"/>
	<path fill="#84DBFF" d="M497.8,210.2l-2.7,1.3c-10.6,4.9-23.2,0.4-28.1-10.2L396.2,49.4c-4.9-10.6-0.4-23.2,10.2-28.1l2.7-1.3
		c10.6-4.9,23.2-0.4,28.1,10.2L508,182.1C513,192.7,508.4,205.3,497.8,210.2z"/>
	<path fill="#CDD6E0" d="M179.8,192.1l-14.4,6.7L42.9,257.7c0.9,1.2,1.7,2.5,2.3,3.9l33.6,72c1.1,2.4,1.7,5,1.9,7.5l137.8-66
		L179.8,192.1z"/>
	<path fill="#F2F2F2" d="M466.6,200.5l-14.4,6.7l-138.6,64.7l-60.1,28.1c-10.6,5-23.2,0.4-28.2-10.3l-17.8-38.1l-34.5-74
		c-4.9-10.6-0.3-23.2,10.3-28.2l198.8-92.7l14.3-6.7L466.6,200.5z"/>
	<polygon fill="#F2F2F2" points="403.4,494 357.9,494 278.5,371.8 278.5,494 233,494 233,371.7 153.6,494 108.1,494 211.2,335.2 
		214.1,330.6 233,301.6 278.5,301.6 297.3,330.6 300.3,335.2 	"/>
	<polygon fill="#CDD6E0" points="466.6,200.5 457.1,205 452.2,207.2 382.1,56.7 386.9,54.5 396.4,50 	"/>
	<polygon fill="#ACB3BA" points="218.6,275.2 209,279.7 204.2,281.9 165.5,198.7 170.2,196.5 179.8,192.1 	"/>
	<path fill="#CDD6E0" d="M300.3,335.2c-11.6,11-27.4,17.7-44.6,17.7c-17.3,0-32.9-6.7-44.6-17.7l21.8-33.6h45.5L300.3,335.2z"/>
	<circle fill="#40596B" cx="255.8" cy="287.5" r="49.5"/>
	<circle fill="#FFFFFF" cx="255.8" cy="287.5" r="25.9"/>
</g>
</svg>
