<?xml version="1.0" encoding="utf-8"?>
<!-- Generator: Adobe Illustrator 18.0.0, SVG Export Plug-In . SVG Version: 6.00 Build 0)  -->
<!DOCTYPE svg PUBLIC "-//W3C//DTD SVG 1.1//EN" "http://www.w3.org/Graphics/SVG/1.1/DTD/svg11.dtd">
<svg version="1.1" id="Layer_1" xmlns="http://www.w3.org/2000/svg" xmlns:xlink="http://www.w3.org/1999/xlink" x="0px" y="0px"
	 viewBox="0 0 512 512" enable-background="new 0 0 512 512" xml:space="preserve">
<g>
	<path fill="#FFD15C" d="M391.5,179.8c-5.4,0-10.8-2.1-15-6.2L256,53.1L135.5,173.6c-8.3,8.3-21.7,8.3-29.9,0
		c-8.3-8.3-8.3-21.7,0-29.9L241,8.2c8.3-8.3,21.7-8.3,29.9,0l135.5,135.5c8.3,8.3,8.3,21.7,0,29.9
		C402.3,177.7,396.9,179.8,391.5,179.8z"/>
	<path fill="#CDD6E0" d="M143.1,221.8V510H23.2C11.5,510,2,500.5,2,488.8V243c0-11.6,9.5-21.2,21.2-21.2H143.1z"/>
	<path fill="#CDD6E0" d="M510,243v245.8c0,11.6-9.5,21.2-21.2,21.2H368.9V221.8h119.9C500.5,221.8,510,231.3,510,243z"/>
	<polygon fill="#F2F2F2" points="256,53.1 143.1,166 143.1,510 369,510 369,166 	"/>
	<polygon fill="#F2F2F2" points="368.9,166.1 368.9,510 143.1,510 143.1,166.1 256,53.1 	"/>
	<rect x="212.9" y="407.9" fill="#ACB3BA" width="86.1" height="102.1"/>
	<circle fill="#40596B" cx="256" cy="144.1" r="35.7"/>
	<path fill="#FFFFFF" d="M256,117.7c-2,0-3.7,1.7-3.7,3.7v19h-12.9c-2,0-3.7,1.7-3.7,3.7c0,2,1.7,3.7,3.7,3.7H256
		c0.5,0,1-0.1,1.4-0.3c1.3-0.6,2.3-1.9,2.3-3.4v-22.7C259.7,119.3,258.1,117.7,256,117.7z"/>
	<rect x="44.8" y="289.9" fill="#FFFFFF" width="55.5" height="55.5"/>
	<rect x="44.8" y="386.4" fill="#FFFFFF" width="55.5" height="55.5"/>
	<rect x="411.7" y="289.9" fill="#FFFFFF" width="55.5" height="55.5"/>
	<rect x="411.7" y="386.4" fill="#FFFFFF" width="55.5" height="55.5"/>
	<rect x="276.6" y="224.5" fill="#FFFFFF" width="55.5" height="55.5"/>
	<rect x="180" y="224.5" fill="#FFFFFF" width="55.5" height="55.5"/>
	<rect x="276.6" y="310.3" fill="#FFFFFF" width="55.5" height="55.5"/>
	<rect x="180" y="310.3" fill="#FFFFFF" width="55.5" height="55.5"/>
	<path fill="#E0E1E2" d="M368.9,166.1V188c-1.3-1-2.4-2-3.6-3.2L256,75.6L146.7,184.9c-1.2,1.2-2.3,2.2-3.6,3.1v-21.9L256,53.1
		L368.9,166.1z"/>
</g>
</svg>
