<?xml version="1.0" encoding="utf-8"?>
<!-- Generator: Adobe Illustrator 18.0.0, SVG Export Plug-In . SVG Version: 6.00 Build 0)  -->
<!DOCTYPE svg PUBLIC "-//W3C//DTD SVG 1.1//EN" "http://www.w3.org/Graphics/SVG/1.1/DTD/svg11.dtd">
<svg version="1.1" id="Layer_1" xmlns="http://www.w3.org/2000/svg" xmlns:xlink="http://www.w3.org/1999/xlink" x="0px" y="0px"
	 viewBox="0 0 512 512" enable-background="new 0 0 512 512" xml:space="preserve">
<g>
	<path fill="#FF7058" d="M413.2,256c0-31,7.1-60.1,19.6-85.4c22.6-45.9,36.4-95.7,36.4-146.9v-0.5c0-11.7-9.5-21.2-21.2-21.2H63.9
		c-11.7,0-21.2,9.5-21.2,21.2v0.5c0,51.2,13.8,101,36.4,146.9C91.7,195.9,98.8,225,98.8,256c0,31-7.1,60.1-19.6,85.4
		c-22.6,45.9-36.4,95.7-36.4,146.9v0.4c0,11.7,9.5,21.2,21.2,21.2h384.1c11.7,0,21.2-9.5,21.2-21.2v-0.4c0-51.2-13.8-101-36.4-146.9
		C420.3,316.1,413.2,287,413.2,256z"/>
	<rect x="149.8" y="2" fill="#F1543F" width="28" height="508"/>
	<rect x="172.4" y="2" fill="#F2F2F2" width="154.9" height="508"/>
	<rect x="172.4" y="2" fill="#CDD6E0" width="23.5" height="508"/>
	<circle fill="#CDD6E0" cx="256" cy="256" r="32.4"/>
</g>
</svg>
