<?xml version="1.0" encoding="utf-8"?>
<!-- Generator: Adobe Illustrator 18.0.0, SVG Export Plug-In . SVG Version: 6.00 Build 0)  -->
<!DOCTYPE svg PUBLIC "-//W3C//DTD SVG 1.1//EN" "http://www.w3.org/Graphics/SVG/1.1/DTD/svg11.dtd">
<svg version="1.1" id="Layer_1" xmlns="http://www.w3.org/2000/svg" xmlns:xlink="http://www.w3.org/1999/xlink" x="0px" y="0px"
	 viewBox="0 0 512 512" enable-background="new 0 0 512 512" xml:space="preserve">
<g>
	<rect x="454.6" y="416.3" fill="#3DC9AE" width="55.4" height="19.5"/>
	<rect x="14.8" y="373.4" fill="#4CDBC4" width="482.5" height="29.9"/>
	<rect x="2" y="416.3" fill="#3DC9AE" width="55.4" height="19.5"/>
	<path fill="#F2F2F2" d="M435.2,102.2v218.9c0,23.9-19.4,43.3-43.3,43.3s-43.3-19.4-43.3-43.3V102.2H435.2z"/>
	<path fill="#CDD6E0" d="M364.1,125.4V321c0,15.3,12.4,27.7,27.7,27.7h0c15.3,0,27.7-12.4,27.7-27.7V125.4H364.1z"/>
	<path fill="#CDD6E0" d="M438.1,76.2h-92.4c-7.2,0-13,5.8-13,13l0,0c0,7.2,5.8,13,13,13h92.4c7.2,0,13-5.8,13-13l0,0
		C451.1,82,445.2,76.2,438.1,76.2z"/>
	<path fill="#F2F2F2" d="M163.4,102.2v218.9c0,23.9-19.4,43.3-43.2,43.3c-23.9,0-43.3-19.4-43.3-43.3V102.2H163.4z"/>
	<path fill="#84DBFF" d="M92.4,147.6V321c0,15.3,12.4,27.7,27.7,27.7c15.3,0,27.7-12.4,27.7-27.7V147.6H92.4z"/>
	<path fill="#CDD6E0" d="M166.4,76.2H73.9c-7.2,0-13,5.8-13,13l0,0c0,7.2,5.8,13,13,13h92.4c7.2,0,13-5.8,13-13l0,0
		C179.4,82,173.6,76.2,166.4,76.2z"/>
	<path fill="#F2F2F2" d="M299.3,102.2v218.9c0,23.9-19.4,43.3-43.3,43.3s-43.3-19.4-43.3-43.3V102.2H299.3z"/>
	<path fill="#FFD15C" d="M228.3,183v138c0,15.3,12.4,27.7,27.7,27.7c15.3,0,27.7-12.4,27.7-27.7V183H228.3z"/>
	<path fill="#CDD6E0" d="M302.2,76.2h-92.4c-7.2,0-13,5.8-13,13l0,0c0,7.2,5.8,13,13,13h92.4c7.2,0,13-5.8,13-13l0,0
		C315.2,82,309.4,76.2,302.2,76.2z"/>
	<path fill="#4CDBC4" d="M497.2,416.3h-29.9V162.5c0-8.3,6.7-14.9,14.9-14.9l0,0c8.3,0,14.9,6.7,14.9,14.9V416.3z"/>
	<path fill="#4CDBC4" d="M44.7,416.3H14.8V162.5c0-8.3,6.7-14.9,14.9-14.9l0,0c8.3,0,14.9,6.7,14.9,14.9V416.3z"/>
	<rect x="14.8" y="257.5" fill="#4CDBC4" width="482.5" height="29.9"/>
	<rect x="348.6" y="102.2" fill="#E8E8E8" width="86.6" height="10.6"/>
	<rect x="76.9" y="102.2" fill="#E8E8E8" width="86.5" height="10.6"/>
	<rect x="212.7" y="102.2" fill="#E8E8E8" width="86.6" height="10.6"/>
</g>
</svg>
