<?xml version="1.0" encoding="utf-8"?>
<!-- Generator: Adobe Illustrator 18.0.0, SVG Export Plug-In . SVG Version: 6.00 Build 0)  -->
<!DOCTYPE svg PUBLIC "-//W3C//DTD SVG 1.1//EN" "http://www.w3.org/Graphics/SVG/1.1/DTD/svg11.dtd">
<svg version="1.1" id="Layer_1" xmlns="http://www.w3.org/2000/svg" xmlns:xlink="http://www.w3.org/1999/xlink" x="0px" y="0px"
	 viewBox="0 0 512 512" enable-background="new 0 0 512 512" xml:space="preserve">
<g>
	<polygon fill="#ACB3BA" points="123.5,186.4 256,59.2 388.5,186.4 434.4,186.4 256,15.2 77.6,186.4 	"/>
	<path fill="#FFD15C" d="M508,510H4c-1.1,0-2-0.9-2-2V187.7c0-1.1,0.9-2,2-2h504c1.1,0,2,0.9,2,2V508C510,509.1,509.1,510,508,510z"
		/>
	<rect x="33.8" y="217.4" fill="#F2F2F2" width="444.5" height="260.8"/>
	<circle fill="#40596B" cx="256" cy="47.7" r="45.7"/>
	<g>
		<path fill="#FF7058" d="M202,404.8h-25l-10-25.9h-45.6l-9.4,25.9H87.6l44.4-114h24.3L202,404.8z M159.6,359.7l-15.7-42.3
			l-15.4,42.3H159.6z"/>
		<path fill="#FF7058" d="M214.2,290.8h45.6c9,0,15.7,0.4,20.2,1.1c4.4,0.8,8.4,2.3,11.9,4.7c3.5,2.4,6.4,5.6,8.7,9.5
			c2.3,4,3.5,8.4,3.5,13.3c0,5.3-1.4,10.2-4.3,14.7c-2.9,4.5-6.8,7.8-11.7,10c6.9,2,12.3,5.5,16,10.3c3.7,4.9,5.6,10.6,5.6,17.2
			c0,5.2-1.2,10.2-3.6,15.1c-2.4,4.9-5.7,8.8-9.9,11.7c-4.2,2.9-9.3,4.7-15.4,5.4c-3.8,0.4-13.1,0.7-27.8,0.8h-38.8V290.8z
			 M237.3,309.8v26.4h15.1c9,0,14.5-0.1,16.7-0.4c3.9-0.5,7-1.8,9.3-4.1c2.3-2.3,3.4-5.2,3.4-8.9c0-3.5-1-6.4-2.9-8.6
			c-1.9-2.2-4.8-3.5-8.7-4c-2.3-0.3-8.8-0.4-19.7-0.4H237.3z M237.3,355.1v30.5h21.3c8.3,0,13.6-0.2,15.8-0.7
			c3.4-0.6,6.2-2.1,8.4-4.5c2.2-2.4,3.2-5.6,3.2-9.7c0-3.4-0.8-6.3-2.5-8.7c-1.7-2.4-4.1-4.1-7.2-5.2c-3.1-1.1-9.9-1.6-20.4-1.6
			H237.3z"/>
		<path fill="#FF7058" d="M402.1,362.9l22.3,7.1c-3.4,12.4-9.1,21.7-17.1,27.7c-8,6-18.1,9.1-30.3,9.1c-15.1,0-27.6-5.2-37.3-15.5
			c-9.7-10.3-14.6-24.5-14.6-42.4c0-19,4.9-33.7,14.7-44.2c9.8-10.5,22.7-15.7,38.6-15.7c13.9,0,25.3,4.1,34,12.4
			c5.2,4.9,9.1,11.9,11.7,21l-22.8,5.4c-1.3-5.9-4.2-10.6-8.4-14c-4.3-3.4-9.5-5.1-15.6-5.1c-8.4,0-15.3,3-20.6,9.1
			c-5.3,6.1-7.9,15.9-7.9,29.5c0,14.4,2.6,24.7,7.8,30.8c5.2,6.1,11.9,9.2,20.2,9.2c6.1,0,11.4-1.9,15.8-5.8
			C397,377.4,400.2,371.3,402.1,362.9z"/>
	</g>
</g>
</svg>
