<?xml version="1.0" encoding="utf-8"?>
<!-- Generator: Adobe Illustrator 18.0.0, SVG Export Plug-In . SVG Version: 6.00 Build 0)  -->
<!DOCTYPE svg PUBLIC "-//W3C//DTD SVG 1.1//EN" "http://www.w3.org/Graphics/SVG/1.1/DTD/svg11.dtd">
<svg version="1.1" id="Layer_1" xmlns="http://www.w3.org/2000/svg" xmlns:xlink="http://www.w3.org/1999/xlink" x="0px" y="0px"
	 viewBox="0 0 512 512" enable-background="new 0 0 512 512" xml:space="preserve">
<g>
	<path fill="#84DBFF" d="M510,418.7c0-11.7-9.5-21.2-21.2-21.2H12.6c-5.8,0-10.6,4.7-10.6,10.6c0,5.8,4.7,10.6,10.6,10.6h441.1v70.1
		H12.6c-5.8,0-10.6,4.7-10.6,10.6c0,5.8,4.7,10.6,10.6,10.6h476.3c11.7,0,21.2-9.5,21.2-21.2V418.7z"/>
	<path fill="#F2F2F2" d="M14.8,488.8v-70.1h473c0.6,0,1,0.4,1,1v68.1c0,0.6-0.4,1-1,1H14.8z"/>
	<path fill="#FF7058" d="M28.5,306.2c0-11.7,9.5-21.2,21.2-21.2H473c5.8,0,10.6,4.7,10.6,10.6c0,5.8-4.7,10.6-10.6,10.6H84.8v70.1
		H473c5.8,0,10.6,4.7,10.6,10.6c0,5.8-4.7,10.6-10.6,10.6H49.6c-11.7,0-21.2-9.5-21.2-21.2V306.2z"/>
	<path fill="#F2F2F2" d="M470.8,376.4v-70.1H50.6c-0.6,0-1,0.4-1,1v68.1c0,0.6,0.4,1,1,1H470.8z"/>
	<polygon fill="#4CDBC4" points="164.3,439 134.3,421.1 104.2,439 104.2,341.3 164.3,341.3 	"/>
	<polygon fill="#F8B64C" points="279.7,212.1 232.3,212.1 248.8,158.1 263.2,158.1 	"/>
	<path fill="#40596B" d="M308.9,141.6H203.1c-27.6,0-52.7-14-67.2-37.5c-14.5-23.5-15.7-52.3-3.3-76.9l2.4-4.7h242.1l2.4,4.7
		c12.4,24.7,11.2,53.4-3.3,76.9C361.7,127.5,336.6,141.6,308.9,141.6z M145.7,39.5c-7.4,18.2-5.7,38.6,4.7,55.5
		c11.3,18.4,31,29.4,52.6,29.4h105.9c21.6,0,41.3-11,52.6-29.4c10.4-16.9,12.1-37.3,4.7-55.5H145.7z"/>
	<path fill="#FFD15C" d="M256,193.3L256,193.3L256,193.3c-57.4-20.6-95.7-74.9-95.7-135.9V2h191.3v55.4
		C351.7,118.4,313.4,172.8,256,193.3z"/>
	<path fill="#40596B" d="M340,285H172v-70.9c0-1.1,0.9-2,2-2H338c1.1,0,2,0.9,2,2V285z"/>
	<path fill="#FFFFFF" d="M301.4,55.4h-26c-2.6,0-4.9-1.7-5.7-4.1l-8-24.7c-1.8-5.5-9.6-5.5-11.4,0l-8,24.7c-0.8,2.5-3.1,4.1-5.7,4.1
		h-26c-5.8,0-8.2,7.4-3.5,10.8l21,15.3c2.1,1.5,3,4.2,2.2,6.7l-8,24.7c-1.8,5.5,4.5,10.1,9.2,6.7l21-15.3c2.1-1.5,4.9-1.5,7,0
		l21,15.3c4.7,3.4,11-1.2,9.2-6.7l-8-24.7c-0.8-2.5,0.1-5.2,2.2-6.7l21-15.3C309.6,62.8,307.2,55.4,301.4,55.4z"/>
</g>
</svg>
