<?xml version="1.0" encoding="utf-8"?>
<!-- Generator: Adobe Illustrator 18.0.0, SVG Export Plug-In . SVG Version: 6.00 Build 0)  -->
<!DOCTYPE svg PUBLIC "-//W3C//DTD SVG 1.1//EN" "http://www.w3.org/Graphics/SVG/1.1/DTD/svg11.dtd">
<svg version="1.1" id="Layer_1" xmlns="http://www.w3.org/2000/svg" xmlns:xlink="http://www.w3.org/1999/xlink" x="0px" y="0px"
	 viewBox="0 0 512 512" enable-background="new 0 0 512 512" xml:space="preserve">
<g>
	<polygon fill="#FF7058" points="492.4,423.6 402,424.6 372.3,510 263.3,358.4 383.4,272 	"/>
	<polygon fill="#FF7058" points="19.6,423.6 110,424.6 139.7,510 248.7,358.4 128.6,272 	"/>
	<polygon fill="#FFD15C" points="473,221 450.4,245.1 466.6,273.8 438.9,291.8 447.7,323.6 416.5,334.3 417.5,367.3 384.6,370.3 
		377.7,402.6 345.1,397.7 330.6,427.3 300.1,414.7 279,440 252.4,420.5 225.8,440 204.6,414.7 174.1,427.3 159.7,397.6 127,402.6 
		120.1,370.3 87.3,367.3 88.2,334.3 57,323.6 65.9,291.8 38.1,273.8 54.4,245.1 31.8,221 54.4,196.9 38.1,168.2 65.9,150.3 
		57,118.5 88.2,107.7 87.3,74.7 120.1,71.7 127.1,39.4 159.7,44.4 174.1,14.7 204.6,27.3 225.8,2 252.4,21.6 279,2 300.2,27.3 
		330.7,14.7 345.1,44.4 377.7,39.5 384.6,71.7 417.5,74.7 416.5,107.7 447.8,118.5 438.9,150.3 466.6,168.2 450.4,197 	"/>
	<polygon fill="#FFFFFF" points="252.4,122 277,197.6 356.5,197.6 292.1,244.4 316.7,320 252.4,273.3 188.1,320 212.6,244.4 
		148.3,197.6 227.8,197.6 	"/>
	<path fill="#F8B64C" d="M252.4,71.7c-76.5,0-138.7,62.2-138.7,138.7c0,3.6,0.3,7.1,0.5,10.6c5.4-71.5,65.3-128.1,138.2-128.1
		S385.1,149.5,390.6,221c0.3-3.5,0.5-7,0.5-10.6C391.1,133.9,328.9,71.7,252.4,71.7z"/>
	<g>
		<path fill="#FF7058" d="M252.4,380.9c-88.2,0-159.9-71.7-159.9-159.9S164.2,61.1,252.4,61.1c88.2,0,159.9,71.7,159.9,159.9
			S340.5,380.9,252.4,380.9z M252.4,82.3c-76.5,0-138.7,62.2-138.7,138.7c0,76.5,62.2,138.7,138.7,138.7S391.1,297.5,391.1,221
			C391.1,144.5,328.9,82.3,252.4,82.3z"/>
	</g>
</g>
</svg>
