<?xml version="1.0" encoding="utf-8"?>
<!-- Generator: Adobe Illustrator 18.0.0, SVG Export Plug-In . SVG Version: 6.00 Build 0)  -->
<!DOCTYPE svg PUBLIC "-//W3C//DTD SVG 1.1//EN" "http://www.w3.org/Graphics/SVG/1.1/DTD/svg11.dtd">
<svg version="1.1" id="Layer_1" xmlns="http://www.w3.org/2000/svg" xmlns:xlink="http://www.w3.org/1999/xlink" x="0px" y="0px"
	 viewBox="0 0 512 512" enable-background="new 0 0 512 512" xml:space="preserve">
<g>
	<path fill="#F2F2F2" d="M474.1,508.8H37.9c-27.6,0-44.9-29.8-31.1-53.8L190.7,245v-98.5c2.4,0.7,5,1.4,7.7,1.4h115.4
		c2.6,0,5.2-0.6,7.6-1.4V245l183.8,210.1C518.9,479,501.7,508.8,474.1,508.8z"/>
	<polygon fill="#84DBFF" points="195.1,320.3 76.4,455.9 435.6,455.9 316.9,320.3 	"/>
	<circle fill="#84DBFF" cx="228.4" cy="67.5" r="25.4"/>
	<circle fill="#FEFFFF" cx="218.8" cy="61.8" r="7.7"/>
	<circle fill="#84DBFF" cx="264.5" cy="18.1" r="14.9"/>
	<circle fill="#FEFFFF" cx="258.9" cy="14.8" r="4.5"/>
	<circle fill="#84DBFF" cx="303.5" cy="42.1" r="13.1"/>
	<circle fill="#FEFFFF" cx="298.5" cy="39.2" r="4"/>
	<path fill="#CDD6E0" d="M313.7,100.8H198.3c-13,0-23.5,10.5-23.5,23.5l0,0c0,13,10.5,23.5,23.5,23.5h115.3
		c13,0,23.5-10.5,23.5-23.5l0,0C337.2,111.3,326.7,100.8,313.7,100.8z"/>
	<path fill="#E0E1E2" d="M321.3,146.5v16.4c-2.4,0.6-5,0.8-7.6,0.8H198.4c-2.6,0-5.3-0.2-7.7-0.8v-16.4c2.4,0.7,5,1.4,7.7,1.4h115.4
		C316.4,147.9,318.9,147.2,321.3,146.5z"/>
</g>
</svg>
