<?xml version="1.0" encoding="utf-8"?>
<!-- Generator: Adobe Illustrator 18.0.0, SVG Export Plug-In . SVG Version: 6.00 Build 0)  -->
<!DOCTYPE svg PUBLIC "-//W3C//DTD SVG 1.1//EN" "http://www.w3.org/Graphics/SVG/1.1/DTD/svg11.dtd">
<svg version="1.1" id="Layer_1" xmlns="http://www.w3.org/2000/svg" xmlns:xlink="http://www.w3.org/1999/xlink" x="0px" y="0px"
	 viewBox="0 0 512 512" enable-background="new 0 0 512 512" xml:space="preserve">
<g>
	<path fill="#F2F2F2" d="M354.3,2H56.1c-11.7,0-21.2,9.5-21.2,21.2v465.7c0,11.7,9.5,21.2,21.2,21.2h399.9
		c11.7,0,21.2-9.5,21.2-21.2v-364L354.3,2z"/>
	<path fill="#CDD5DF" d="M354.3,107.5c0,9.6,7.8,17.3,17.3,17.3h105.5L354.3,2V107.5z"/>
	<circle fill="#FFD15C" cx="141.3" cy="403.6" r="74.6"/>
	<polygon fill="#40596B" points="125.1,452.8 76.7,404.4 94.4,386.7 125.1,417.5 222.4,320.2 240,337.9 	"/>
	<rect x="66.6" y="213.1" fill="#CDD6E0" width="378.7" height="23.1"/>
	<rect x="66.6" y="155.1" fill="#F2705B" width="173.4" height="23.1"/>
	<rect x="66.6" y="271.1" fill="#CDD6E0" width="378.7" height="23.1"/>
	<rect x="300.5" y="329.1" fill="#ABB2B9" width="144.9" height="23.1"/>
</g>
</svg>
