<?xml version="1.0" encoding="utf-8"?>
<!-- Generator: Adobe Illustrator 18.0.0, SVG Export Plug-In . SVG Version: 6.00 Build 0)  -->
<!DOCTYPE svg PUBLIC "-//W3C//DTD SVG 1.1//EN" "http://www.w3.org/Graphics/SVG/1.1/DTD/svg11.dtd">
<svg version="1.1" id="Layer_1" xmlns="http://www.w3.org/2000/svg" xmlns:xlink="http://www.w3.org/1999/xlink" x="0px" y="0px"
	 viewBox="0 0 512 512" enable-background="new 0 0 512 512" xml:space="preserve">
<g>
	<path fill="#40596B" d="M168.6,510c-24.6,0-46.4-15.8-54-39.2L74.8,350.5l-1.8-5.3L64.4,319h119.5l8.7,26.2l1.8,5.3l28.3,85.1
		C234.6,472.3,207.2,510,168.6,510z"/>
	<polygon fill="#334A5E" points="194.3,350.5 74.8,350.5 73,345.2 64.4,319 183.8,319 192.5,345.2 	"/>
	<path fill="#40596B" d="M53.7,309.2H6.5c-1.1,0-2-0.9-2-2V150.1c0-1.1,0.9-2,2-2h47.2V309.2z"/>
	<path fill="#CDD6E0" d="M189.6,334.6H55.7c-1.1,0-2-0.9-2-2V124.7c0-1.1,0.9-2,2-2h133.9V334.6z"/>
	<path fill="#F2F2F2" d="M507.4,24.3v408.8c0,16-16.3,26.8-31,20.4L225,349.3l-35.3-14.6v-212l35.3-14.6L476.4,3.8
		C491.1-2.5,507.4,8.3,507.4,24.3z"/>
	<polygon fill="#40596B" points="225,108.1 225,349.3 189.7,334.7 189.7,122.7 	"/>
	<path fill="#40596B" d="M476.5,3.9l-5.2,2.5V451l5.2,2.5c14.6,6.3,31-4.4,31-20.4V24.2C507.5,8.3,491.1-2.5,476.5,3.9z"/>
</g>
</svg>
