<?xml version="1.0" encoding="utf-8"?>
<!-- Generator: Adobe Illustrator 18.0.0, SVG Export Plug-In . SVG Version: 6.00 Build 0)  -->
<!DOCTYPE svg PUBLIC "-//W3C//DTD SVG 1.1//EN" "http://www.w3.org/Graphics/SVG/1.1/DTD/svg11.dtd">
<svg version="1.1" id="Layer_1" xmlns="http://www.w3.org/2000/svg" xmlns:xlink="http://www.w3.org/1999/xlink" x="0px" y="0px"
	 viewBox="0 0 512 512" enable-background="new 0 0 512 512" xml:space="preserve">
<g>
	<path fill="#FF7058" d="M158.8,510H14.6c-1.1,0-2-0.9-2-2V4c0-1.1,0.9-2,2-2h144.2c1.1,0,2,0.9,2,2v504
		C160.8,509.1,159.9,510,158.8,510z"/>
	<rect x="33.7" y="91.5" fill="#FFFFFF" width="105.9" height="171.1"/>
	<rect x="100.9" y="112.2" fill="#84DBFF" width="23.1" height="129.8"/>
	<rect x="49.3" y="112.2" fill="#84DBFF" width="23.1" height="129.8"/>
	<path fill="#84DBFF" d="M497.4,510H353.3c-1.1,0-2-0.9-2-2V4c0-1.1,0.9-2,2-2h144.2c1.1,0,2,0.9,2,2v504
		C499.4,509.1,498.5,510,497.4,510z"/>
	<rect x="372.4" y="91.5" fill="#FFFFFF" width="105.9" height="171.1"/>
	<rect x="439.6" y="112.2" fill="#CDD6E0" width="23.1" height="129.8"/>
	<rect x="388" y="112.2" fill="#CDD6E0" width="23.1" height="129.8"/>
	<path fill="#4CDBC4" d="M328.1,510H183.9c-1.1,0-2-0.9-2-2V4c0-1.1,0.9-2,2-2h144.2c1.1,0,2,0.9,2,2v504
		C330.1,509.1,329.2,510,328.1,510z"/>
	<rect x="203.1" y="91.5" fill="#FFFFFF" width="105.9" height="171.1"/>
	<rect x="270.2" y="112.2" fill="#FFD15C" width="23.1" height="129.8"/>
	<rect x="218.7" y="112.2" fill="#FFD15C" width="23.1" height="129.8"/>
	<circle fill="#40596B" cx="425.3" cy="411.1" r="35.2"/>
	<circle fill="#FFFFFF" cx="425.3" cy="411.1" r="22.6"/>
	<circle fill="#40596B" cx="256" cy="411.1" r="35.2"/>
	<circle fill="#FFFFFF" cx="256" cy="411.1" r="22.6"/>
	<circle fill="#40596B" cx="86.7" cy="411.1" r="35.2"/>
	<circle fill="#FFFFFF" cx="86.7" cy="411.1" r="22.6"/>
</g>
</svg>
