<?xml version="1.0" encoding="utf-8"?>
<!-- Generator: Adobe Illustrator 18.0.0, SVG Export Plug-In . SVG Version: 6.00 Build 0)  -->
<!DOCTYPE svg PUBLIC "-//W3C//DTD SVG 1.1//EN" "http://www.w3.org/Graphics/SVG/1.1/DTD/svg11.dtd">
<svg version="1.1" id="Layer_1" xmlns="http://www.w3.org/2000/svg" xmlns:xlink="http://www.w3.org/1999/xlink" x="0px" y="0px"
	 viewBox="0 0 512 512" enable-background="new 0 0 512 512" xml:space="preserve">
<g>
	<path fill="#F8B64C" d="M245.1,185.2l-67.6,67.6c-2.2,2.2-5.8,2.2-8.1,0l0,0c-2.2-2.2-2.2-5.8,0-8.1l67.6-67.6
		c2.2-2.2,5.8-2.2,8.1,0l0,0C247.4,179.3,247.4,182.9,245.1,185.2z"/>
	<path fill="#FF7058" d="M23.5,2c0,0-8.6,36.9,38.2,28.3s93,17.9,96.7,81.9L106,164.6c0,0-73.3,8-94.8-83.8
		C11.1,80.8,3.1,45.7,23.5,2z"/>
	
		<rect x="120.5" y="124.2" transform="matrix(0.7071 -0.7071 0.7071 0.7071 -74.705 169.6157)" fill="#FFD15C" width="93.8" height="101.6"/>
	<path fill="#F2F2F2" d="M181.5,248.8c17,18.1,34.9,36.7,53.7,55.5C364.7,433.8,483.4,524.9,500.4,508c17-17-74.2-135.7-203.7-265.1
		c-18.8-18.8-37.4-36.8-55.5-53.7L181.5,248.8z"/>
	<path fill="#FF7058" d="M387.8,443.5c59.5,48.3,102.8,74.2,112.6,64.5c9.7-9.7-16.2-53-64.5-112.5L387.8,443.5z"/>
	<path fill="#F1543F" d="M28.2,43.4c1.8,3.2,4.4,5.3,6.8,7.1c2.6,1.7,5.2,3,8,3.9c2.8,0.9,5.6,1.7,8.5,2.3c2.8,0.7,5.9,1,8.8,1.6
		c3.1,0.3,6,0.7,9.1,0.9c3.1,0.1,6.1,0.6,9.3,0.7c3.2,0.1,6.3,0.5,9.5,0.5c3.2,0.1,6.4,0.3,9.7,0.6l0.9,0c1.7,0.2,2.6,0.4,3.8,0.7
		c1.1,0.3,2.2,0.6,3.3,1c2.1,0.7,4.2,1.7,6.2,2.7c3.9,2.1,7.6,5.1,10.4,8.7c2.8,3.5,4.9,7.6,5.6,11.9c0.6,2,0.5,4.2,0.5,6.2
		c0,2-0.7,4-1,5.9c-2.1-3.4-4.1-6.4-6.5-8.7c-1-1.3-2.4-2.2-3.6-3.1c-1.3-0.9-2.4-1.7-3.8-2.3c-2.6-1.2-5.3-2.1-8-2.7
		c-1.4-0.2-2.8-0.5-4.2-0.6c-0.7-0.1-1.4-0.1-2.1-0.1c-0.6,0-1.5-0.1-1.6,0l0.8,0c-3.5,0.3-7.1,0.5-10.6,0.7
		c-3.5,0.2-7.2-0.1-10.7-0.3c-3.6-0.1-7.2-0.9-10.8-1.4c-3.6-0.5-7.2-1.8-10.8-2.8c-3.6-1.5-7.1-2.7-10.4-4.8
		c-3.4-1.9-6.6-4.3-9.4-7.2c-2.9-2.7-5.2-6.2-6.8-9.8C27.6,51.1,27,47,28.2,43.4z"/>
	<path fill="#F1543F" d="M28.2,83.4c1.8,3.2,4.4,5.3,6.8,7.1c2.6,1.7,5.2,3,8,3.9c2.8,0.9,5.6,1.7,8.5,2.3c2.8,0.7,5.9,1,8.8,1.6
		c3.1,0.3,6,0.7,9.1,0.9c3.1,0.1,6.1,0.6,9.3,0.7c3.2,0.1,6.3,0.5,9.5,0.5c3.2,0.1,6.4,0.3,9.7,0.6l0.9,0c1.7,0.2,2.6,0.4,3.8,0.7
		c1.1,0.3,2.2,0.6,3.3,1c2.1,0.7,4.2,1.7,6.2,2.7c3.9,2.2,7.6,5.1,10.4,8.7c2.8,3.5,4.9,7.6,5.6,11.9c0.6,2,0.5,4.2,0.5,6.2
		c0,2-0.7,4-1,5.9c-2.1-3.4-4.1-6.4-6.5-8.7c-1-1.3-2.4-2.2-3.6-3.1c-1.3-0.9-2.4-1.7-3.8-2.3c-2.6-1.2-5.3-2.1-8-2.7
		c-1.4-0.2-2.8-0.5-4.2-0.6c-0.7-0.1-1.4-0.1-2.1-0.1c-0.6,0-1.5-0.1-1.6,0l0.8,0c-3.5,0.3-7.1,0.5-10.6,0.7
		c-3.5,0.2-7.2-0.1-10.7-0.3c-3.6-0.1-7.2-0.9-10.8-1.4c-3.6-0.5-7.2-1.8-10.8-2.8c-3.6-1.5-7.1-2.7-10.4-4.8
		c-3.4-1.9-6.6-4.3-9.4-7.2c-2.9-2.7-5.2-6.2-6.8-9.8C27.6,91.1,27,87,28.2,83.4z"/>
	<path fill="#F8B64C" d="M165.3,105.3l-67.6,67.6c-2.2,2.2-5.8,2.2-8.1,0l0,0c-2.2-2.2-2.2-5.8,0-8.1l67.6-67.6
		c2.2-2.2,5.8-2.2,8.1,0l0,0C167.5,99.5,167.5,103.1,165.3,105.3z"/>
</g>
</svg>
