<?xml version="1.0" encoding="utf-8"?>
<!-- Generator: Adobe Illustrator 18.0.0, SVG Export Plug-In . SVG Version: 6.00 Build 0)  -->
<!DOCTYPE svg PUBLIC "-//W3C//DTD SVG 1.1//EN" "http://www.w3.org/Graphics/SVG/1.1/DTD/svg11.dtd">
<svg version="1.1" id="Layer_1" xmlns="http://www.w3.org/2000/svg" xmlns:xlink="http://www.w3.org/1999/xlink" x="0px" y="0px"
	 viewBox="0 0 512 512" enable-background="new 0 0 512 512" xml:space="preserve">
<g>
	<path fill="#CDD6E0" d="M2.4,179.4L179.4,2.4c0.5-0.5,1.3-0.5,1.8,0l328.4,328.4c0.5,0.5,0.5,1.3,0,1.8L332.6,509.6
		c-0.5,0.5-1.3,0.5-1.8,0L2.4,181.2C1.9,180.7,1.9,179.9,2.4,179.4z"/>
	
		<rect x="10.5" y="169.6" transform="matrix(0.7071 -0.7071 0.7071 0.7071 -111.4196 82.2273)" fill="#ACB3BA" width="66.2" height="11.9"/>
	
		<rect x="62.1" y="225.3" transform="matrix(0.7071 -0.7071 0.7071 0.7071 -138.5146 128.1841)" fill="#ACB3BA" width="46.7" height="11.9"/>
	
		<rect x="108.1" y="267.3" transform="matrix(0.7071 -0.7071 0.7071 0.7071 -151.8533 179.8442)" fill="#ACB3BA" width="66.2" height="11.9"/>
	
		<rect x="159.7" y="322.9" transform="matrix(0.7071 -0.7071 0.7071 0.7071 -178.9487 225.7999)" fill="#ACB3BA" width="46.7" height="11.9"/>
	
		<rect x="205.7" y="364.9" transform="matrix(0.7071 -0.7071 0.7071 0.7071 -192.2855 277.4524)" fill="#ACB3BA" width="66.2" height="11.9"/>
	
		<rect x="257.3" y="420.6" transform="matrix(0.7071 -0.7071 0.7071 0.7071 -219.3821 323.4154)" fill="#ACB3BA" width="46.7" height="11.9"/>
	
		<rect x="303.3" y="462.5" transform="matrix(0.7071 -0.7071 0.7071 0.7071 -232.7209 375.0789)" fill="#ACB3BA" width="66.2" height="11.9"/>
	<path fill="#FFD15C" d="M334.7,17.9L383,66.2L89.9,359.3l-31.4-31.4l-31.4-31.4L305.7,17.9C313.7,9.9,326.7,9.9,334.7,17.9z"/>
	<polygon fill="#F8B64C" points="383,66.2 445.8,129 152.7,422.2 121.3,390.7 89.9,359.3 	"/>
	<path fill="#FF7058" d="M445.8,129l48.3,48.3c8,8,8,21,0,29L215.5,485l-31.4-31.4l-31.4-31.4L445.8,129z"/>
	<path fill="#F2F2F2" d="M215.5,485L84.2,497.1l-52.7,4.9C19.3,503,9,492.7,10.1,480.5l4.9-52.7L27,296.5L215.5,485z"/>
	<path fill="#334A5E" d="M84.2,497.1l-52.7,4.9C19.3,503,9,492.7,10.1,480.5l4.9-52.7L84.2,497.1z"/>
</g>
</svg>
