<?xml version="1.0" encoding="utf-8"?>
<!-- Generator: Adobe Illustrator 18.0.0, SVG Export Plug-In . SVG Version: 6.00 Build 0)  -->
<!DOCTYPE svg PUBLIC "-//W3C//DTD SVG 1.1//EN" "http://www.w3.org/Graphics/SVG/1.1/DTD/svg11.dtd">
<svg version="1.1" id="Layer_1" xmlns="http://www.w3.org/2000/svg" xmlns:xlink="http://www.w3.org/1999/xlink" x="0px" y="0px"
	 viewBox="0 0 512 512" enable-background="new 0 0 512 512" xml:space="preserve">
<g>
	<polygon fill="#F2F2F2" points="257.4,389.1 234.6,414.5 161,441.8 117.2,490.7 43.3,424.5 87.2,375.5 106.4,299.6 129.2,274.1 	
		"/>
	<polygon fill="#334A5E" points="103.5,477.7 58.4,437.3 11,489.4 74,510 	"/>
	<path fill="#40596B" d="M184.4,399.7l-59.8-53.6c-20.3-18.2-22-49.5-3.8-69.8L362.1,9.1c7.8-8.7,21.3-9.5,30-1.6l101.7,91.2
		c8.7,7.8,9.5,21.3,1.6,30L254.3,395.9C236,416.2,204.8,417.9,184.4,399.7z"/>
</g>
</svg>
