<?xml version="1.0" encoding="utf-8"?>
<!-- Generator: Adobe Illustrator 18.0.0, SVG Export Plug-In . SVG Version: 6.00 Build 0)  -->
<!DOCTYPE svg PUBLIC "-//W3C//DTD SVG 1.1//EN" "http://www.w3.org/Graphics/SVG/1.1/DTD/svg11.dtd">
<svg version="1.1" id="Layer_1" xmlns="http://www.w3.org/2000/svg" xmlns:xlink="http://www.w3.org/1999/xlink" x="0px" y="0px"
	 viewBox="0 0 512 512" enable-background="new 0 0 512 512" xml:space="preserve">
<g>
	<path fill="#F2F2F2" d="M473.8,510H45.7c-1.1,0-2-0.9-2-2V4c0-1.1,0.9-2,2-2h428.2c1.1,0,2,0.9,2,2v504
		C475.8,509.1,474.9,510,473.8,510z"/>
	<path fill="#4CDBC4" d="M153.4,2H64.8c-11.7,0-21.2,9.5-21.2,21.2v465.7c0,11.7,9.5,21.2,21.2,21.2h88.6V2z"/>
	<circle fill="#3DC9AE" cx="84" cy="56.9" r="21.4"/>
	<path fill="#40596B" d="M85.3,56.9L85.3,56.9c0,8.4-5.9,15.2-13.2,15.2H15.2C7.9,72.1,2,65.3,2,56.9l0,0c0-8.4,5.9-15.2,13.2-15.2
		h56.8C79.4,41.7,85.3,48.5,85.3,56.9z"/>
	<circle fill="#3DC9AE" cx="84" cy="156.5" r="21.4"/>
	<path fill="#40596B" d="M85.3,156.5L85.3,156.5c0,8.4-5.9,15.2-13.2,15.2H15.2c-7.3,0-13.2-6.8-13.2-15.2l0,0
		c0-8.4,5.9-15.2,13.2-15.2h56.8C79.4,141.3,85.3,148.1,85.3,156.5z"/>
	<circle fill="#3DC9AE" cx="84" cy="256" r="21.4"/>
	<path fill="#40596B" d="M85.3,256L85.3,256c0,8.4-5.9,15.2-13.2,15.2H15.2C7.9,271.2,2,264.4,2,256l0,0c0-8.4,5.9-15.2,13.2-15.2
		h56.8C79.4,240.8,85.3,247.6,85.3,256z"/>
	<circle fill="#3DC9AE" cx="84" cy="355.6" r="21.4"/>
	<path fill="#40596B" d="M85.3,355.6L85.3,355.6c0,8.4-5.9,15.2-13.2,15.2H15.2c-7.3,0-13.2-6.8-13.2-15.2l0,0
		c0-8.4,5.9-15.2,13.2-15.2h56.8C79.4,340.4,85.3,347.2,85.3,355.6z"/>
	<circle fill="#3DC9AE" cx="84" cy="455.1" r="21.4"/>
	<path fill="#40596B" d="M85.3,455.1L85.3,455.1c0,8.4-5.9,15.2-13.2,15.2H15.2c-7.3,0-13.2-6.8-13.2-15.2l0,0
		c0-8.4,5.9-15.2,13.2-15.2h56.8C79.4,439.9,85.3,446.7,85.3,455.1z"/>
	<path fill="#FFD15C" d="M499.4,35.5h-23.6v76.7h23.6c5.8,0,10.6-4.7,10.6-10.6V46.1C510,40.3,505.2,35.5,499.4,35.5z"/>
	<path fill="#84DBFF" d="M499.4,139.5h-23.6v76.7h23.6c5.8,0,10.6-4.7,10.6-10.6V150C510,144.2,505.2,139.5,499.4,139.5z"/>
	<path fill="#FF7058" d="M499.4,243.4h-23.6v76.7h23.6c5.8,0,10.6-4.7,10.6-10.6v-55.6C510,248.1,505.2,243.4,499.4,243.4z"/>
	<path fill="#FFD15C" d="M419.6,400.2h-210c-1.1,0-2-0.9-2-2V282.6c0-1.1,0.9-2,2-2h210c1.1,0,2,0.9,2,2v115.5
		C421.6,399.3,420.7,400.2,419.6,400.2z"/>
</g>
</svg>
