<?xml version="1.0" encoding="utf-8"?>
<!-- Generator: Adobe Illustrator 18.0.0, SVG Export Plug-In . SVG Version: 6.00 Build 0)  -->
<!DOCTYPE svg PUBLIC "-//W3C//DTD SVG 1.1//EN" "http://www.w3.org/Graphics/SVG/1.1/DTD/svg11.dtd">
<svg version="1.1" id="Layer_1" xmlns="http://www.w3.org/2000/svg" xmlns:xlink="http://www.w3.org/1999/xlink" x="0px" y="0px"
	 viewBox="0 0 512 512" enable-background="new 0 0 512 512" xml:space="preserve">
<g>
	<path fill="#40596B" d="M471.7,29.8H40.3c-1.1,0-2,0.9-2,2v309.1h435.5V31.8C473.7,30.7,472.8,29.8,471.7,29.8z"/>
	<rect x="80.6" y="72.2" fill="#F2F2F2" width="350.8" height="226.4"/>
	<polygon fill="#CDD6E0" points="473.7,340.9 38.3,340.9 2,455.3 510,455.3 	"/>
	<path fill="#40596B" d="M509,482.2H3c-0.6,0-1-0.4-1-1v-25.8h508v25.8C510,481.7,509.6,482.2,509,482.2z"/>
	<polygon fill="#F2F2F2" points="308.5,438.4 203.5,438.4 218.6,405.1 293.4,405.1 	"/>
	<g>
		<circle fill="#FF7058" cx="256" cy="185.4" r="63.3"/>
		<polygon fill="#FFFFFF" points="236.3,147.3 236.3,223.4 292.2,185.4 		"/>
	</g>
</g>
</svg>
