<?xml version="1.0" encoding="utf-8"?>
<!-- Generator: Adobe Illustrator 18.0.0, SVG Export Plug-In . SVG Version: 6.00 Build 0)  -->
<!DOCTYPE svg PUBLIC "-//W3C//DTD SVG 1.1//EN" "http://www.w3.org/Graphics/SVG/1.1/DTD/svg11.dtd">
<svg version="1.1" id="Layer_1" xmlns="http://www.w3.org/2000/svg" xmlns:xlink="http://www.w3.org/1999/xlink" x="0px" y="0px"
	 viewBox="0 0 512 512" enable-background="new 0 0 512 512" xml:space="preserve">
<g>
	<path fill="#FFD15C" d="M424.2,2c-17.9,0-35.6,1.1-52.9,3.3h-0.1c-24.7,3.1-48.5,8.3-71.5,15.5C233.4,45.6,66.5,150.6,20.7,299.6
		c-7.1,23.1-12.4,47-15.5,71.5c-2.1,17.4-3.3,35-3.3,52.9C2,471.5,40.5,510,87.9,510c18,0,35.6-1.2,52.9-3.4
		c24.6-3,48.5-8.3,71.5-15.5c2.5-0.7,198.6-81.8,278.9-278.9c7.2-23.1,12.4-47,15.5-71.5c2.1-17.4,3.3-34.9,3.3-52.8
		C510,40.4,471.6,2,424.2,2z"/>
	<path fill="#FF7058" d="M212.4,491.2c-23.1,7.2-47,12.5-71.5,15.5L5.3,371.1c3.1-24.6,8.3-48.5,15.5-71.5L212.4,491.2z"/>
	<path fill="#FF7058" d="M506.7,140.7c-3.1,24.6-8.3,48.5-15.5,71.5L299.6,20.7c23.1-7.2,46.9-12.4,71.5-15.5h0.1L506.7,140.7z"/>
	
		<rect x="187" y="266.5" transform="matrix(0.7071 -0.7071 0.7071 0.7071 -167.0335 230.6894)" fill="#F8B64C" width="15.9" height="101"/>
	
		<rect x="226.9" y="226.6" transform="matrix(0.7071 -0.7071 0.7071 0.7071 -127.1458 247.2302)" fill="#F8B64C" width="15.9" height="101"/>
	
		<rect x="266.8" y="186.7" transform="matrix(0.7071 -0.7071 0.7071 0.7071 -87.2535 263.7704)" fill="#F8B64C" width="15.9" height="101"/>
	
		<rect x="306.7" y="146.8" transform="matrix(0.7071 -0.7071 0.7071 0.7071 -47.3675 280.259)" fill="#F8B64C" width="15.9" height="101"/>
</g>
</svg>
