<?xml version="1.0" encoding="utf-8"?>
<!-- Generator: Adobe Illustrator 18.0.0, SVG Export Plug-In . SVG Version: 6.00 Build 0)  -->
<!DOCTYPE svg PUBLIC "-//W3C//DTD SVG 1.1//EN" "http://www.w3.org/Graphics/SVG/1.1/DTD/svg11.dtd">
<svg version="1.1" id="Layer_1" xmlns="http://www.w3.org/2000/svg" xmlns:xlink="http://www.w3.org/1999/xlink" x="0px" y="0px"
	 viewBox="0 0 512 512" enable-background="new 0 0 512 512" xml:space="preserve">
<g>
	<path fill="#40596B" d="M248.1,149.7c0,0-27.2-95.6-107.5-99.9L150.4,2c0,0,110.8,33.7,114,147.7H248.1z"/>
	<path fill="#FF7058" d="M400.7,106.6c-47.4-18-100.1-7-144.7,24.8c-44.7-31.8-97.3-42.8-144.7-24.8
		c-85.7,32.6-121.5,147.4-80,256.5C71.9,469.8,171.4,531.2,256,503.2c84.6,28,184.1-33.4,224.7-140.1
		C522.2,254.1,486.4,139.2,400.7,106.6z"/>
	<path fill="#3DC9AE" d="M256,131.4l23.8,0c40.7,0,73.6-33,73.6-73.6l0-23.8L256,131.4z"/>
	<path fill="#4CDBC4" d="M353.4,34l-23.8,0c-40.7,0-73.6,33-73.6,73.6l0,23.8l0,0L353.4,34L353.4,34z"/>
</g>
</svg>
