<?xml version="1.0" encoding="utf-8"?>
<!-- Generator: Adobe Illustrator 18.0.0, SVG Export Plug-In . SVG Version: 6.00 Build 0)  -->
<!DOCTYPE svg PUBLIC "-//W3C//DTD SVG 1.1//EN" "http://www.w3.org/Graphics/SVG/1.1/DTD/svg11.dtd">
<svg version="1.1" id="Layer_1" xmlns="http://www.w3.org/2000/svg" xmlns:xlink="http://www.w3.org/1999/xlink" x="0px" y="0px"
	 viewBox="0 0 512 512" enable-background="new 0 0 512 512" xml:space="preserve">
<g>
	<path fill="#CDD6E0" d="M486,161.8H26c-1.7,0-3.1-1.4-3.1-3.1v-58.5c0-1.7,1.4-3.1,3.1-3.1H486c1.7,0,3.1,1.4,3.1,3.1v58.5
		C489.1,160.4,487.7,161.8,486,161.8z"/>
	<path fill="#84DBFF" d="M251.8,336.8c-81.7-36.5-152.4-25.4-191.6-13.2v122.9c0,35.1,28.4,63.5,63.5,63.5h264.7
		c35.1,0,63.5-28.4,63.5-63.5V362C410.8,371.5,346.2,379,251.8,336.8z"/>
	<path fill="#F2F2F2" d="M451.8,161.8V362c-41.1,9.5-105.6,17-200-25.2c-81.7-36.5-152.3-25.3-191.6-13.2V161.8H451.8z"/>
	<polygon fill="#FFFFFF" points="108.5,250.2 108.5,244 82.9,244 82.9,233.6 76.7,233.6 76.7,424.4 82.9,424.4 82.9,414 108.5,414 
		108.5,407.7 82.9,407.7 82.9,386.7 97.5,386.7 97.5,380.4 82.9,380.4 82.9,359.4 108.5,359.4 108.5,353.2 82.9,353.2 82.9,332.1 
		97.5,332.1 97.5,325.9 82.9,325.9 82.9,304.8 108.5,304.8 108.5,298.6 82.9,298.6 82.9,277.5 97.5,277.5 97.5,271.3 82.9,271.3 
		82.9,250.2 	"/>
	<circle fill="#84DBFF" cx="201" cy="55" r="28.5"/>
	<circle fill="#F2F2F2" cx="190.2" cy="48.8" r="8.3"/>
	<circle fill="#84DBFF" cx="364.7" cy="37.7" r="20"/>
	<circle fill="#F2F2F2" cx="357.1" cy="33.3" r="5.8"/>
	<circle fill="#84DBFF" cx="302.9" cy="74" r="12.9"/>
	<circle fill="#F2F2F2" cx="298" cy="71.2" r="3.8"/>
	<circle fill="#84DBFF" cx="127.6" cy="35" r="21.7"/>
	<circle fill="#F2F2F2" cx="119.4" cy="30.3" r="6.3"/>
	<circle fill="#84DBFF" cx="246.8" cy="17.7" r="15.7"/>
	<circle fill="#F2F2F2" cx="240.8" cy="14.3" r="4.6"/>
	<rect x="60.2" y="161.8" fill="#E0E1E2" width="391.6" height="15.9"/>
</g>
</svg>
