<?xml version="1.0" encoding="utf-8"?>
<!-- Generator: Adobe Illustrator 18.0.0, SVG Export Plug-In . SVG Version: 6.00 Build 0)  -->
<!DOCTYPE svg PUBLIC "-//W3C//DTD SVG 1.1//EN" "http://www.w3.org/Graphics/SVG/1.1/DTD/svg11.dtd">
<svg version="1.1" id="Layer_1" xmlns="http://www.w3.org/2000/svg" xmlns:xlink="http://www.w3.org/1999/xlink" x="0px" y="0px"
	 viewBox="0 0 512 512" enable-background="new 0 0 512 512" xml:space="preserve">
<g>
	<path fill="#F2F2F2" d="M256,62.1C115.7,62.1,2,190.3,2,348.5c0,158.2,113.7,84,254,84c140.3,0,254,74.2,254-84
		C510,190.3,396.3,62.1,256,62.1z M256,406.7c-46.5,0-84.1-19.5-84.1-43.6c0-24.1,37.7-43.6,84.1-43.6s84.1,19.5,84.1,43.6
		C340.1,387.2,302.5,406.7,256,406.7z"/>
	<circle fill="#CDD6E0" cx="92.2" cy="361.5" r="42"/>
	<circle fill="#ACB3BA" cx="110.4" cy="242.2" r="42"/>
	<circle fill="#84DBFF" cx="190.6" cy="150.5" r="42"/>
	<circle fill="#F8B64C" cx="419.8" cy="361.5" r="42"/>
	<circle fill="#FFD15C" cx="401.6" cy="242.2" r="42"/>
	<circle fill="#54C0EB" cx="321.4" cy="150.5" r="42"/>
</g>
</svg>
