<?xml version="1.0" encoding="utf-8"?>
<!-- Generator: Adobe Illustrator 18.0.0, SVG Export Plug-In . SVG Version: 6.00 Build 0)  -->
<!DOCTYPE svg PUBLIC "-//W3C//DTD SVG 1.1//EN" "http://www.w3.org/Graphics/SVG/1.1/DTD/svg11.dtd">
<svg version="1.1" id="Layer_1" xmlns="http://www.w3.org/2000/svg" xmlns:xlink="http://www.w3.org/1999/xlink" x="0px" y="0px"
	 viewBox="0 0 512 512" enable-background="new 0 0 512 512" xml:space="preserve">
<g>
	<rect x="424.5" y="45.4" fill="#FFD15C" width="7" height="49.4"/>
	<path fill="#FFD15C" d="M428,91.3c-8.7,0-15.7,7-15.7,15.7c0,8.7,7,15.7,15.7,15.7c8.7,0,15.7-7,15.7-15.7
		C443.7,98.3,436.6,91.3,428,91.3z M428,115.3c-4.6,0-8.3-3.7-8.3-8.3c0-4.6,3.7-8.3,8.3-8.3c4.6,0,8.3,3.7,8.3,8.3
		C436.3,111.6,432.6,115.3,428,115.3z"/>
	<polygon fill="#FFD15C" points="440.2,148.1 415.7,148.1 420.1,118.1 435.8,118.1 	"/>
	<path fill="#F2F2F2" d="M410.4,295.2c0,106.4-69.1,192.7-154.4,192.7c-85.3,0-154.4-86.3-154.4-192.7s69.1-152,154.4-152
		C341.3,143.1,410.4,188.7,410.4,295.2z"/>
	<circle fill="#F2F2F2" cx="256" cy="189.2" r="109.9"/>
	<path fill="#FFD15C" d="M256,158.6L218.1,199l34.6,64.4c1.5,2.8,5.1,2.8,6.6,0l34.6-64.4L256,158.6z"/>
	<path fill="#334A5E" d="M343.2,151.6c-8.4-14.4-24.1-24-42.1-24c-25.3,0-49,20.6-49,49c0,27.1,21.9,49.1,49,49.1
		c27.1,0,49-22,49-49.1C350.1,167.4,347.7,158.9,343.2,151.6z"/>
	<path fill="#334A5E" d="M210.9,127.5c-18,0-33.6,9.6-42.1,24c-4.5,7.3-7,15.9-7,25c0,27.1,21.9,49.1,49,49.1
		c27.1,0,49.1-22,49.1-49.1C260,148.9,236.2,127.5,210.9,127.5z"/>
	<circle fill="#FFFFFF" cx="301.1" cy="176.6" r="32.9"/>
	<path fill="#54C0EB" d="M301.1,197.2c-11.3,0-20.5-9.2-20.5-20.5c0-11.3,9.2-20.5,20.5-20.5c11.3,0,20.5,9.2,20.5,20.5
		C321.6,187.9,312.4,197.2,301.1,197.2z"/>
	<path fill="#40596B" d="M301.1,186.9c-5.7,0-10.3-4.6-10.3-10.3s4.6-10.3,10.3-10.3c5.7,0,10.3,4.6,10.3,10.3
		S306.8,186.9,301.1,186.9z"/>
	<path fill="#FFFFFF" d="M308.6,176.5c-3.6,0-6.6-3-6.6-6.6c0-3.6,3-6.6,6.6-6.6c3.6,0,6.6,3,6.6,6.6
		C315.2,173.6,312.2,176.5,308.6,176.5z"/>
	<circle fill="#FFFFFF" cx="210.9" cy="176.6" r="32.9"/>
	<path fill="#54C0EB" d="M210.9,197.2c-11.3,0-20.5-9.2-20.5-20.5c0-11.3,9.2-20.5,20.5-20.5c11.3,0,20.5,9.2,20.5,20.5
		C231.4,187.9,222.2,197.2,210.9,197.2z"/>
	<path fill="#40596B" d="M210.9,186.9c-5.7,0-10.3-4.6-10.3-10.3s4.6-10.3,10.3-10.3c5.7,0,10.3,4.6,10.3,10.3
		S216.6,186.9,210.9,186.9z"/>
	<path fill="#FFFFFF" d="M218.4,176.5c-3.6,0-6.6-3-6.6-6.6c0-3.6,3-6.6,6.6-6.6c3.6,0,6.6,3,6.6,6.6
		C225,173.6,222.1,176.5,218.4,176.5z"/>
	<path opacity="0.2" fill="#1A2730" d="M301.1,127.5c-20.4,0-37.7,12.5-45,30.2c-7.4-17.7-24.8-30.2-45.2-30.2
		c-18,0-33.6,9.6-42.1,24c4.1,0.9,8.5,1.4,12.9,1.4c2.8,0,5.6-0.3,8.4-0.6c4.7-0.6,9.4-0.9,14-0.9c17.9,0,33.6,4.6,46.6,13.7
		l5.2,3.6l5.2-3.6c13-9.1,28.7-13.7,46.6-13.7c4.7,0,9.4,0.3,14,0.9c2.8,0.4,5.7,0.6,8.4,0.6c4.4,0,8.8-0.5,12.9-1.4
		C334.7,137.2,319.1,127.5,301.1,127.5z"/>
	<ellipse fill="#40596B" cx="213.6" cy="487.3" rx="7" ry="15.6"/>
	<ellipse fill="#40596B" cx="227.6" cy="490.9" rx="7" ry="19.1"/>
	<ellipse fill="#40596B" cx="241.5" cy="487.3" rx="7" ry="15.6"/>
	<ellipse fill="#40596B" cx="270.5" cy="487.3" rx="7" ry="15.6"/>
	<ellipse fill="#40596B" cx="284.4" cy="490.9" rx="7" ry="19.1"/>
	<ellipse fill="#40596B" cx="298.4" cy="487.3" rx="7" ry="15.6"/>
	<path fill="#84DBFF" d="M340.7,330.4c-9.1-16.7-13.8-35.8-11.6-54.7c2.4-20.8,12.3-44.4,42.6-55.8c0,0,49.7-19.8,72,56.4
		c0,0,27.1,82.6-55.7,159.5C388,435.9,383.9,410.1,340.7,330.4z"/>
	<path fill="#84DBFF" d="M171.3,330.4c9.1-16.7,13.7-35.8,11.6-54.7c-2.4-20.8-12.3-44.4-42.6-55.8c0,0-49.7-19.8-72,56.4
		c0,0-27.1,82.6,55.7,159.5C124,435.9,128.1,410.1,171.3,330.4z"/>
	<path fill="#334A5E" d="M164.9,138.9c10.8-14.1,27.8-20.5,46-20.5c17.8,0,34.3,8.1,45.1,21.6c10.8-13.5,27.2-21.6,45.1-21.6
		c18.1,0,36,7.6,46.9,21.7l9.4-10.4V45.4H154.7v82.2L164.9,138.9z"/>
	<path fill="#FF7058" d="M256,157.5c0,0,10-29,48.9-32.7c17.6-1.6,33.8-11.5,43-26.6c0.1-0.2,0.2-0.4,0.4-0.6c0,0,4.8,9.1-4.8,21.7
		c0,0,20.4-5.6,26.9-30.8c0,0,12,29.6-13.8,47.3c-9.7,6.7-21.8,9-33.5,7.3C308.2,141.1,280.4,140.4,256,157.5z"/>
	<path fill="#FF7058" d="M256,157.5c0,0-10-29-48.9-32.7c-17.6-1.6-33.8-11.5-43-26.6c-0.1-0.2-0.2-0.4-0.4-0.6
		c0,0-4.8,9.1,4.8,21.7c0,0-20.4-5.6-26.9-30.8c0,0-12,29.6,13.8,47.3c9.7,6.7,21.8,9,33.5,7.3C203.8,141.1,231.6,140.4,256,157.5z"
		/>
	<polygon fill="#40596B" points="256,2 53.1,45.4 256,88.7 458.9,45.4 	"/>
</g>
<path fill="#FFFFFF" d="M271.6,267.5c-14.8,20-33.7,31.1-42.4,24.7c-8.6-6.4-3.7-27.8,11.1-47.8c14.8-20,33.7-31.1,42.4-24.7
	C291.4,226.2,286.4,247.5,271.6,267.5z"/>
</svg>
