<?xml version="1.0" encoding="utf-8"?>
<!-- Generator: Adobe Illustrator 18.0.0, SVG Export Plug-In . SVG Version: 6.00 Build 0)  -->
<!DOCTYPE svg PUBLIC "-//W3C//DTD SVG 1.1//EN" "http://www.w3.org/Graphics/SVG/1.1/DTD/svg11.dtd">
<svg version="1.1" id="Layer_1" xmlns="http://www.w3.org/2000/svg" xmlns:xlink="http://www.w3.org/1999/xlink" x="0px" y="0px"
	 viewBox="0 0 512 512" enable-background="new 0 0 512 512" xml:space="preserve">
<g>
	<g>
		
			<ellipse transform="matrix(0.9414 -0.3373 0.3373 0.9414 -54.5261 67.8463)" fill="#F8B64C" cx="168" cy="190.8" rx="14.4" ry="25.2"/>
		
			<ellipse transform="matrix(-0.9414 -0.3373 0.3373 -0.9414 603.4731 486.5424)" fill="#F8B64C" cx="344" cy="190.8" rx="14.4" ry="25.2"/>
	</g>
	<path fill="#40596B" d="M438.9,392.5V510H73.1V392.5c0-25.4,11.1-48.1,28.8-63.7c14.5-12.7,33.3-20.4,54-21h200.2
		c20.6,0.5,39.5,8.3,54,21C427.8,344.5,438.9,367.1,438.9,392.5z"/>
	<g>
		<rect x="418.3" y="66.9" fill="#F1543F" width="8.1" height="57.3"/>
		<path fill="#F1543F" d="M422.3,120.2c-10.1,0-18.2,8.1-18.2,18.2c0,10.1,8.1,18.2,18.2,18.2c10,0,18.2-8.1,18.2-18.2
			C440.5,128.3,432.4,120.2,422.3,120.2z M422.3,148c-5.3,0-9.7-4.3-9.7-9.7c0-5.3,4.3-9.7,9.7-9.7c5.3,0,9.7,4.3,9.7,9.7
			C432,143.7,427.7,148,422.3,148z"/>
		<polygon fill="#F1543F" points="436.5,186.1 408.1,186.1 413.2,151.2 431.5,151.2 		"/>
	</g>
	<g>
		<path fill="#F2F2F2" d="M356.1,307.8L256,408L155.9,307.8c-20.6,0.5-39.5,8.3-54,21l154.1,154l154.1-154
			C395.6,316.1,376.8,308.4,356.1,307.8z"/>
	</g>
	<polygon fill="#F8B64C" points="324.8,265.3 324.8,307.8 256,376.6 187.2,307.8 187.2,265.3 	"/>
	<path fill="#FFD15C" d="M256,300.7L256,300.7c-50.4,0-91.2-40.8-91.2-91.2v-91.2h182.4v91.2C347.2,259.8,306.4,300.7,256,300.7z"/>
	<path fill="#334A5E" d="M347.2,157c-59,21.2-123.5,21.2-182.4,0c0-28.7,0-57.4,0-86c59-21.2,123.5-21.2,182.4,0
		C347.2,99.7,347.2,128.3,347.2,157z"/>
	<polygon fill="#40596B" points="256,2 69.2,66.3 256,130.6 442.8,66.3 	"/>
</g>
</svg>
