<?xml version="1.0" encoding="utf-8"?>
<!-- Generator: Adobe Illustrator 18.0.0, SVG Export Plug-In . SVG Version: 6.00 Build 0)  -->
<!DOCTYPE svg PUBLIC "-//W3C//DTD SVG 1.1//EN" "http://www.w3.org/Graphics/SVG/1.1/DTD/svg11.dtd">
<svg version="1.1" id="Layer_1" xmlns="http://www.w3.org/2000/svg" xmlns:xlink="http://www.w3.org/1999/xlink" x="0px" y="0px"
	 viewBox="0 0 512 512" enable-background="new 0 0 512 512" xml:space="preserve">
<g>
	<path fill="#FFD15C" d="M175,456.4l-5.4,6.5L15.3,506.3L2,510l3.7-13.3l43.3-154.3l6.5-5.4c33.2-27.6,63.6-58.2,91.1-91.5l2.8-3.5
		L270,362.5l-3.5,2.8C233.2,392.7,202.6,423.2,175,456.4z"/>
	<circle fill="#FFFFFF" cx="129.9" cy="382.1" r="25.1"/>
	<polygon fill="#FFFFFF" points="122.1,399.5 15.3,506.3 2,510 5.7,496.7 112.5,389.9 	"/>
	<path fill="#FF7058" d="M472.8,218.6L299.5,391.9L120.1,212.5L293.4,39.2c3.5-3.5,7.1-6.7,10.9-9.8c8.7-6.9,18.1-12.5,27.8-16.7
		C378.7-7.7,434.8,1.1,472.9,39.2c24.7,24.7,37.1,57.2,37.1,89.7c0,17.3-3.6,34.7-10.7,50.9c-4.2,9.8-9.8,19.2-16.7,27.9
		C479.6,211.4,476.3,215,472.8,218.6z"/>
	
		<rect x="98.5" y="297.2" transform="matrix(-0.7071 -0.7071 0.7071 -0.7071 115.4019 676.259)" fill="#F1543F" width="198.5" height="34"/>
	
		<rect x="342.6" y="26.8" transform="matrix(0.7071 -0.7071 0.7071 0.7071 -3.6782 298.3898)" fill="#CDD6E0" width="31.5" height="253.7"/>
	<path fill="#40596B" d="M277.8,272l-37.8-37.8L389.5,84.6c10.4-10.4,27.4-10.4,37.8,0l0,0c10.4,10.4,10.4,27.4,0,37.8L277.8,272z"
		/>
</g>
</svg>
