<?xml version="1.0" encoding="utf-8"?>
<!-- Generator: Adobe Illustrator 18.0.0, SVG Export Plug-In . SVG Version: 6.00 Build 0)  -->
<!DOCTYPE svg PUBLIC "-//W3C//DTD SVG 1.1//EN" "http://www.w3.org/Graphics/SVG/1.1/DTD/svg11.dtd">
<svg version="1.1" id="Layer_1" xmlns="http://www.w3.org/2000/svg" xmlns:xlink="http://www.w3.org/1999/xlink" x="0px" y="0px"
	 viewBox="0 0 512 512" enable-background="new 0 0 512 512" xml:space="preserve">
<g>
	<path fill="#FF7058" d="M321.2,111.9c-16.2-12.3-26.6-19.8-26.6-19.8l-40.1,40.1c0,0,7.4,10.4,19.8,26.5
		c33.4,44,102.5,131.2,154.3,169.7l62.2-62.2C452.3,214.5,365.3,145.3,321.2,111.9z"/>
	<path fill="#40596B" d="M428.6,328.4c15.8,11.8,30.1,19,41.1,19c14.2,0,40.1-25.9,40.1-40c0-11.1-7.3-25.3-19.1-41.2L428.6,328.4z"
		/>
	<path fill="#FFD15C" d="M173.9,60.4c0,0-1-18.4-20.2-18.3c0,0,24-47.5,81.8-35.7c0,0,50.8,14.1,36.7,76.2c0,0-35.3,46.5-74.8,24.9
		C197.4,107.4,175.4,101.1,173.9,60.4z"/>
	<path fill="#F2F2F2" d="M432.1,367.8L142.1,77.8c-0.8-0.8-2-0.8-2.8,0L2.7,214.4c-0.8,0.8-0.8,2,0,2.8l289.9,289.9
		c0.8,0.8,2,0.8,2.8,0l136.5-136.5C432.8,369.8,432.8,368.6,432.1,367.8z"/>
	<circle fill="#CDD6E0" cx="153" cy="156.6" r="37.6"/>
	<circle fill="#FFD15C" cx="81.5" cy="228.1" r="37.6"/>
	<circle fill="#ACB3BA" cx="219.7" cy="223.4" r="37.6"/>
	<circle fill="#F8B64C" cx="148.3" cy="294.8" r="37.6"/>
	<circle fill="#84DBFF" cx="286.5" cy="290.1" r="37.6"/>
	<circle fill="#FF7058" cx="215" cy="361.6" r="37.6"/>
	<circle fill="#54C0EB" cx="353.3" cy="356.9" r="37.6"/>
	<circle fill="#F1543F" cx="281.8" cy="428.4" r="37.6"/>
	<path fill="#F8B64C" d="M160.7,42.2c10.8-13.2,34.6-33.6,74.8-25.4c0,0,35.9,10.1,38.8,50.4c3.2-49-38.8-60.8-38.8-60.8
		c-57.8-11.8-81.8,35.7-81.8,35.7c2.4,0,4.4,0.3,6.3,0.8C160.1,42.6,160.4,42.4,160.7,42.2z"/>
	<path fill="#FC6551" d="M321.2,111.9c-0.2,0.4-0.5,0.7-0.8,1L275.2,158c-0.3,0.3-0.6,0.6-0.9,0.7c-12.3-16.1-19.8-26.5-19.8-26.5
		l40.1-40.1C294.7,92.1,305,99.6,321.2,111.9z"/>
	<path fill="#F1543F" d="M228.9,111.7l45.2-45.2c1-1,2.6-1,3.6,0l35.3,35.3c1,1,1,2.6,0,3.6l-45.2,45.2c-1,1-2.6,1-3.6,0l-35.3-35.3
		C227.9,114.4,227.9,112.7,228.9,111.7z"/>
</g>
</svg>
