<?xml version="1.0" encoding="utf-8"?>
<!-- Generator: Adobe Illustrator 18.0.0, SVG Export Plug-In . SVG Version: 6.00 Build 0)  -->
<!DOCTYPE svg PUBLIC "-//W3C//DTD SVG 1.1//EN" "http://www.w3.org/Graphics/SVG/1.1/DTD/svg11.dtd">
<svg version="1.1" id="Layer_1" xmlns="http://www.w3.org/2000/svg" xmlns:xlink="http://www.w3.org/1999/xlink" x="0px" y="0px"
	 viewBox="0 0 512 512" enable-background="new 0 0 512 512" xml:space="preserve">
<g>
	<path fill="#4CDBC4" d="M267.5,234.4c0.8-1.9,1.3-4,1.1-6.2L247.1,19.9l85.2-8.8l22.1,214.3L267.5,234.4z"/>
	
		<rect x="315.3" y="38.2" transform="matrix(-0.9947 0.1027 -0.1027 -0.9947 653.0187 47.5964)" fill="#FFFFFF" width="20.1" height="4.8"/>
	
		<rect x="324" y="69.1" transform="matrix(-0.9947 0.1028 -0.1028 -0.9947 668.0641 108.5581)" fill="#FFFFFF" width="14.6" height="4.8"/>
	
		<rect x="321.7" y="100.5" transform="matrix(-0.9947 0.1028 -0.1028 -0.9947 672.2578 171.2199)" fill="#FFFFFF" width="20.1" height="4.8"/>
	
		<rect x="330.4" y="131.4" transform="matrix(-0.9947 0.1027 -0.1027 -0.9947 687.2951 232.2223)" fill="#FFFFFF" width="14.6" height="4.8"/>
	
		<rect x="328.1" y="162.8" transform="matrix(-0.9947 0.1027 -0.1027 -0.9947 691.4896 294.8777)" fill="#FFFFFF" width="20.1" height="4.8"/>
	
		<rect x="336.8" y="193.7" transform="matrix(-0.9947 0.1027 -0.1027 -0.9947 706.529 355.8621)" fill="#FFFFFF" width="14.6" height="4.8"/>
	<path fill="#CDD6E0" d="M117,160.5c1.9,11.8,4.2,23.2,6.9,34c2.5,10.1,5.2,19.7,8.2,28.8h61c0.3-12.3,0.1-25.5-0.9-39.4
		c-0.8-11.2-2-22.7-3.8-34.5l-0.2-1C175.1,64.5,148.5-1,128.8,2.1c-19.7,3.1-25.1,73.5-12,157.3L117,160.5z"/>
	<path fill="#ACB3BA" d="M164.8,52.7c-11.8-32.5-24.9-52.3-36-50.6c-11,1.7-17.6,24.6-18.9,59.2L164.8,52.7z"/>
	<path fill="#40596B" d="M187.3,48.8c-2.3-8.1-8.5-14.6-16.5-17.1l-17.1-5c3.8,7.3,7.5,16.1,11.1,26l-0.5,0.1l14.6,4.5
		c1.7,0.6,2.9,2,3.2,3.7l8.3,43c0.3,1.5-0.2,3.1-1.2,4.3l-3.1,3.3c-1,1.1-1.5,2.6-1.3,4.1l2.1,13.8c0.2,1.5,1.2,2.8,2.5,3.6
		c3.1,1.6,6.9-0.4,7.2-3.9C199.5,98.9,192.2,66.4,187.3,48.8z"/>
	<path fill="#40596B" d="M188.7,149.1c1.8,11.9,3.1,23.6,3.9,34.9l-69,10.7c-2.7-11-5-22.5-6.9-34.4L188.7,149.1z"/>
	<path fill="#F8B64C" d="M249.2,127.6l-44.5-2.1c-0.1,0-0.2-0.1-0.2-0.2l0.2-4.4c0-0.1,0.1-0.2,0.2-0.2l44.5,2.1
		c0.1,0,0.2,0.1,0.2,0.2l-0.2,4.4C249.4,127.5,249.3,127.6,249.2,127.6z"/>
	<path fill="#FF7058" d="M241.3,6.7c0,0-13.9,7.8,2,19.9c15.9,12.1,20.7,34,1.8,53.3l-31.1-1.5c0,0-23.2-20.6-0.7-53.2
		C213.3,25.1,222,12.7,241.3,6.7z"/>
	
		<rect x="208.4" y="79" transform="matrix(0.9988 4.809622e-002 -4.809622e-002 0.9988 5.0938 -10.8584)" fill="#FFD15C" width="39.5" height="42.7"/>
	<path fill="#F2F2F2" d="M238.5,223.3c2.2-19,4-40.5,5.1-63.4c0.5-11.2,0.9-22,1-32.5l-35.5-1.7c-0.8,10.4-1.5,21.2-2.1,32.4
		c-1.1,23.5-1.4,45.7-1,65.2H238.5z"/>
	<path fill="#F1543F" d="M229.8,19.8c-0.5,1.5-0.4,2.9-0.3,4.1c0.2,1.3,0.6,2.5,1,3.6c0.5,1.1,1,2.2,1.7,3.3c0.6,1.1,1.4,2.1,2,3.2
		c0.8,1,1.5,2.1,2.3,3.1c0.9,1,1.5,2.1,2.4,3.1c0.9,1,1.6,2.1,2.5,3.1c0.9,1,1.7,2.1,2.6,3.2l0.2,0.3c0.4,0.6,0.6,0.9,0.9,1.4
		c0.2,0.4,0.4,0.9,0.6,1.3c0.4,0.9,0.7,1.8,0.9,2.7c0.4,1.8,0.6,3.8,0.2,5.7c-0.3,1.9-1,3.7-2.1,5.1c-0.5,0.8-1.2,1.3-1.8,1.9
		c-0.6,0.6-1.4,0.9-2.1,1.4c0.5-1.6,0.8-3.1,0.9-4.5c0.1-0.7,0-1.4,0-2c-0.1-0.6-0.2-1.2-0.4-1.8c-0.4-1.2-0.8-2.2-1.4-3.3
		c-0.3-0.5-0.6-1-1-1.5c-0.2-0.2-0.4-0.5-0.5-0.7c-0.2-0.2-0.4-0.5-0.5-0.5l0.2,0.3c-1.1-1-2.2-2-3.2-3.1c-1.1-1.1-2-2.3-2.9-3.4
		c-1-1.1-1.8-2.5-2.6-3.8c-0.8-1.3-1.5-2.8-2.2-4.2c-0.6-1.5-1.2-3-1.5-4.6c-0.4-1.6-0.5-3.3-0.4-4.9c0-1.7,0.5-3.4,1.1-4.9
		C227.2,21.9,228.4,20.5,229.8,19.8z"/>
	<path fill="#F1543F" d="M217.3,31.1c-0.5,1.5-0.4,2.9-0.3,4.1c0.2,1.3,0.6,2.5,1,3.6c0.5,1.1,1,2.2,1.7,3.3c0.6,1.1,1.4,2.1,2,3.2
		c0.8,1,1.5,2.1,2.3,3.1c0.9,1,1.5,2.1,2.4,3.1c0.9,1,1.6,2.1,2.5,3.1c0.9,1,1.7,2.1,2.6,3.2l0.2,0.3c0.4,0.6,0.6,0.9,0.9,1.4
		c0.2,0.4,0.4,0.9,0.6,1.3c0.4,0.9,0.7,1.8,0.9,2.7c0.4,1.8,0.6,3.8,0.2,5.7c-0.3,1.9-1,3.7-2.1,5.1c-0.5,0.8-1.2,1.3-1.8,1.9
		c-0.6,0.6-1.4,0.9-2.1,1.4c0.5-1.6,0.8-3.1,0.9-4.5c0.1-0.7,0-1.4,0-2c-0.1-0.6-0.2-1.2-0.4-1.8c-0.4-1.2-0.8-2.2-1.4-3.3
		c-0.3-0.5-0.6-1-1-1.5c-0.2-0.2-0.4-0.5-0.5-0.7c-0.2-0.2-0.4-0.5-0.5-0.5l0.2,0.3c-1.1-1-2.2-2-3.2-3.1c-1.1-1.1-2-2.3-2.9-3.4
		c-1-1.1-1.8-2.5-2.6-3.8c-0.8-1.3-1.5-2.8-2.2-4.2c-0.6-1.5-1.2-3-1.5-4.6c-0.4-1.6-0.5-3.3-0.4-4.9c0-1.7,0.5-3.4,1.1-4.9
		C214.8,33.2,215.9,31.8,217.3,31.1z"/>
	<path fill="#F8B64C" d="M251.5,80.2L206.9,78c-0.1,0-0.2-0.1-0.2-0.2l0.2-4.4c0-0.1,0.1-0.2,0.2-0.2l44.6,2.1
		c0.1,0,0.2,0.1,0.2,0.2l-0.2,4.4C251.7,80.1,251.6,80.2,251.5,80.2z"/>
	<polygon fill="#FF7058" points="379.5,223.3 402.3,61.2 386.2,58.9 370.1,56.7 354,54.4 330.3,223.3 	"/>
	<polygon fill="#FFD15C" points="354.1,54.4 366.7,35 372.4,26.3 385.3,6.7 392.3,29.1 395.4,39 402.3,61.2 	"/>
	<polygon fill="#334A5E" points="372.4,26.3 385.3,6.7 392.3,29.1 	"/>
	<path fill="#FFD15C" d="M406.3,231.1l-4.1,25.3l-0.8,5.3l-37.8,230.5c-1.7,10.3-10.5,17.8-20.8,17.8H169.4
		c-10.4,0-19.3-7.5-21-17.8l-37.8-230.5l-0.8-5.3l-4.1-25.3H406.3z"/>
	<polygon fill="#EDB145" points="406.3,231.1 402.1,256.4 401.3,261.7 110.7,261.7 109.8,256.4 105.7,231.1 	"/>
	<path fill="#F8B64C" d="M415.5,245.9h-319c-0.7,0-1.3-0.6-1.3-1.3v-26.8c0-0.7,0.6-1.3,1.3-1.3h319c0.7,0,1.3,0.6,1.3,1.3v26.8
		C416.8,245.3,416.2,245.9,415.5,245.9z"/>
</g>
</svg>
