<?xml version="1.0" encoding="utf-8"?>
<!-- Generator: Adobe Illustrator 18.0.0, SVG Export Plug-In . SVG Version: 6.00 Build 0)  -->
<!DOCTYPE svg PUBLIC "-//W3C//DTD SVG 1.1//EN" "http://www.w3.org/Graphics/SVG/1.1/DTD/svg11.dtd">
<svg version="1.1" id="Layer_1" xmlns="http://www.w3.org/2000/svg" xmlns:xlink="http://www.w3.org/1999/xlink" x="0px" y="0px"
	 viewBox="0 0 512 512" enable-background="new 0 0 512 512" xml:space="preserve">
<g>
	<path fill="#F2F2F2" d="M488.8,23.2c0-11.7-9.5-21.2-21.2-21.2H44.3c-11.7,0-21.2,9.5-21.2,21.2v465.7c0,11.7,9.5,21.2,21.2,21.2
		h327.2l117.3-117.3V23.2z"/>
	<g>
		<rect x="183.9" y="120.5" fill="#CDD6E0" width="268" height="23.1"/>
		<rect x="183.9" y="203.1" fill="#CDD6E0" width="268" height="23.1"/>
		<rect x="183.9" y="285.8" fill="#CDD6E0" width="268" height="23.1"/>
		<rect x="183.9" y="368.4" fill="#CDD6E0" width="168.6" height="23.1"/>
	</g>
	<path fill="#4CDBC4" d="M147,2H44.3c-11.7,0-21.2,9.5-21.2,21.2v465.7c0,11.7,9.5,21.2,21.2,21.2H147V2z"/>
	<path fill="#CDD6E0" d="M488.8,392.7h-96.2c-11.7,0-21.2,9.5-21.2,21.2V510L488.8,392.7z"/>
	<g>
		<g>
			<circle fill="#FFFFFF" cx="85.1" cy="72.4" r="16.5"/>
		</g>
		<g>
			<circle fill="#FFFFFF" cx="85.1" cy="164.2" r="16.5"/>
		</g>
		<g>
			<circle fill="#FFFFFF" cx="85.1" cy="256" r="16.5"/>
		</g>
		<g>
			<circle fill="#FFFFFF" cx="85.1" cy="347.8" r="16.5"/>
		</g>
		<g>
			<circle fill="#FFFFFF" cx="85.1" cy="439.6" r="16.5"/>
		</g>
	</g>
</g>
</svg>
