<?xml version="1.0" encoding="utf-8"?>
<!-- Generator: Adobe Illustrator 18.0.0, SVG Export Plug-In . SVG Version: 6.00 Build 0)  -->
<!DOCTYPE svg PUBLIC "-//W3C//DTD SVG 1.1//EN" "http://www.w3.org/Graphics/SVG/1.1/DTD/svg11.dtd">
<svg version="1.1" id="Layer_1" xmlns="http://www.w3.org/2000/svg" xmlns:xlink="http://www.w3.org/1999/xlink" x="0px" y="0px"
	 viewBox="0 0 512 512" enable-background="new 0 0 512 512" xml:space="preserve">
<g>
	
		<rect x="302.6" y="319.1" transform="matrix(0.7071 -0.7071 0.7071 0.7071 -142.2739 343.476)" fill="#334A5E" width="81.7" height="48.7"/>
	<circle fill="#40596B" cx="196.6" cy="196.6" r="194.6"/>
	<path fill="#84DBFF" d="M196.6,348.2C113,348.2,45,280.2,45,196.6C45,113,113,45,196.6,45c83.6,0,151.6,68,151.6,151.6
		C348.2,280.2,280.2,348.2,196.6,348.2z"/>
	<path fill="#84DBFF" d="M196.6,348.2C113,348.2,45,280.2,45,196.6C45,113,113,45,196.6,45c83.6,0,151.6,68,151.6,151.6
		C348.2,280.2,280.2,348.2,196.6,348.2z"/>
	<path fill="#FFFFFF" d="M139.8,146c-22.4,23.7-50.2,33.8-62.1,22.6c-11.8-11.2-3.2-39.6,19.2-63.2c22.4-23.7,50.2-33.8,62.1-22.6
		C170.8,94,162.2,122.4,139.8,146z"/>
	<path fill="#FF7058" d="M493.8,493.8L493.8,493.8c-21.7,21.7-56.8,21.7-78.5,0L316,394.5l78.5-78.5l99.3,99.3
		C515.4,437,515.4,472.1,493.8,493.8z"/>
	<path fill="#F1543F" d="M408.2,313.2l-94.9,94.9c-0.3,0.3-0.8,0.3-1.1,0l-11.2-11.2c-0.3-0.3-0.3-0.8,0-1.1l94.9-94.9
		c0.3-0.3,0.8-0.3,1.1,0l11.2,11.2C408.5,312.4,408.5,312.9,408.2,313.2z"/>
</g>
</svg>
