<?xml version="1.0" encoding="utf-8"?>
<!-- Generator: Adobe Illustrator 18.0.0, SVG Export Plug-In . SVG Version: 6.00 Build 0)  -->
<!DOCTYPE svg PUBLIC "-//W3C//DTD SVG 1.1//EN" "http://www.w3.org/Graphics/SVG/1.1/DTD/svg11.dtd">
<svg version="1.1" id="Layer_1" xmlns="http://www.w3.org/2000/svg" xmlns:xlink="http://www.w3.org/1999/xlink" x="0px" y="0px"
	 viewBox="0 0 512 512" enable-background="new 0 0 512 512" xml:space="preserve">
<g>
	<rect x="33.3" y="240.3" fill="#E0E1E2" width="445.3" height="269.7"/>
	<polygon fill="#FF7058" points="510,240.3 2,240.3 33.3,166.7 478.7,166.7 	"/>
	<polygon fill="#F2F2F2" points="373.5,198.8 373.5,510 138.5,510 138.5,198.8 256,97.3 	"/>
	<rect x="98.8" y="492.2" fill="#3DC9AE" width="314.3" height="17.7"/>
	<rect x="125.4" y="474.5" fill="#4CDBC4" width="261.3" height="17.7"/>
	<rect x="207.4" y="361.1" fill="#ACB3BA" width="97.3" height="113.4"/>
	<rect x="58.5" y="278.8" fill="#FFFFFF" width="21.1" height="21.1"/>
	<rect x="92.4" y="278.8" fill="#FFFFFF" width="21.1" height="21.1"/>
	<rect x="58.5" y="311.8" fill="#FFFFFF" width="21.1" height="21.1"/>
	<rect x="92.4" y="311.8" fill="#FFFFFF" width="21.1" height="21.1"/>
	<rect x="58.5" y="361.1" fill="#FFFFFF" width="21.1" height="21.1"/>
	<rect x="92.4" y="361.1" fill="#FFFFFF" width="21.1" height="21.1"/>
	<rect x="58.5" y="394" fill="#FFFFFF" width="21.1" height="21.1"/>
	<rect x="92.4" y="394" fill="#FFFFFF" width="21.1" height="21.1"/>
	<rect x="398.6" y="278.8" fill="#FFFFFF" width="21.1" height="21.1"/>
	<rect x="432.5" y="278.8" fill="#FFFFFF" width="21.1" height="21.1"/>
	<rect x="398.6" y="311.8" fill="#FFFFFF" width="21.1" height="21.1"/>
	<rect x="432.5" y="311.8" fill="#FFFFFF" width="21.1" height="21.1"/>
	<rect x="398.6" y="361.1" fill="#FFFFFF" width="21.1" height="21.1"/>
	<rect x="432.5" y="361.1" fill="#FFFFFF" width="21.1" height="21.1"/>
	<rect x="398.6" y="394" fill="#FFFFFF" width="21.1" height="21.1"/>
	<rect x="432.5" y="394" fill="#FFFFFF" width="21.1" height="21.1"/>
	<rect x="228.5" y="278.8" fill="#84DBFF" width="21.1" height="21.1"/>
	<rect x="262.4" y="278.8" fill="#84DBFF" width="21.1" height="21.1"/>
	<rect x="228.5" y="311.8" fill="#84DBFF" width="21.1" height="21.1"/>
	<rect x="262.4" y="311.8" fill="#84DBFF" width="21.1" height="21.1"/>
	<path fill="#E0E1E2" d="M373.5,198.8v31.7c-7.6,0-15-2.8-20.7-7.7L256,139.2l-96.6,83.6c-5.8,5-13.1,7.7-20.7,7.7h-0.1v-31.7
		L256,97.3L373.5,198.8z"/>
	<path fill="#FFD15C" d="M320.2,53.3c-21.4-9.8-42.8,9.8-64.2,0c0-14.9,0-29.8,0-44.8c21.4,9.8,42.8-9.8,64.2,0
		C320.2,23.5,320.2,38.4,320.2,53.3z"/>
	<path fill="#ACB3BA" d="M256,2c-2,0-3.6,1.6-3.6,3.6v82.2c0,2,1.6,3.6,3.6,3.6c2,0,3.6-1.6,3.6-3.6V5.6C259.6,3.6,258,2,256,2z"/>
	<path fill="#40596B" d="M383.8,186.7L266.4,85.2c-6-5.1-14.8-5.1-20.8,0L128.2,186.7c-6.6,5.7-7.4,15.8-1.6,22.4
		c5.7,6.6,15.8,7.4,22.4,1.6L256,118.2l107.1,92.5c3,2.6,6.7,3.9,10.4,3.9c4.5,0,8.9-1.9,12-5.5
		C391.2,202.5,390.4,192.5,383.8,186.7z"/>
</g>
</svg>
