<?xml version="1.0" encoding="utf-8"?>
<!-- Generator: Adobe Illustrator 18.0.0, SVG Export Plug-In . SVG Version: 6.00 Build 0)  -->
<!DOCTYPE svg PUBLIC "-//W3C//DTD SVG 1.1//EN" "http://www.w3.org/Graphics/SVG/1.1/DTD/svg11.dtd">
<svg version="1.1" id="Layer_1" xmlns="http://www.w3.org/2000/svg" xmlns:xlink="http://www.w3.org/1999/xlink" x="0px" y="0px"
	 viewBox="0 0 512 512" enable-background="new 0 0 512 512" xml:space="preserve">
<g>
	<rect x="246.5" y="135.7" fill="#334A5E" width="19" height="55.7"/>
	<path fill="#FFD15C" d="M259.1,2c0,0-113.5,99-5,150.7c0,0,46.3-18.7,50.8-60C307.4,68.7,264.3,36.5,259.1,2z"/>
	<path fill="#84DBFF" d="M332.4,185.3H179.6c-10.8,0-19.5,8.7-19.5,19.5v255.9h191.9V204.8C351.9,194,343.2,185.3,332.4,185.3z"/>
	<path fill="#F2F2F2" d="M160.1,202v96.8c0,17.3,13,32.8,30.3,33.7c18.4,1,33.7-13.7,33.7-31.9v-68.8c0-15.3,10.4-29.1,25.3-32.1
		c20.6-4.2,38.6,11.5,38.6,31.3v2.5c0,17.7,14.3,32,32,32h0c17.7,0,32-14.3,32-32V202c0-9.3-7.5-16.8-16.8-16.8H176.8
		C167.6,185.3,160.1,192.8,160.1,202z"/>
	<path fill="#40596B" d="M378.1,489.7H133.9v-45c0-1.1,0.9-2,2-2h240.1c1.1,0,2,0.9,2,2V489.7z"/>
	<path fill="#334A5E" d="M381.4,510H130.6c-5.6,0-10.1-4.5-10.1-10.1l0,0c0-5.6,4.5-10.1,10.1-10.1h250.8c5.6,0,10.1,4.5,10.1,10.1
		l0,0C391.6,505.5,387,510,381.4,510z"/>
</g>
</svg>
