<?xml version="1.0" encoding="utf-8"?>
<!-- Generator: Adobe Illustrator 18.0.0, SVG Export Plug-In . SVG Version: 6.00 Build 0)  -->
<!DOCTYPE svg PUBLIC "-//W3C//DTD SVG 1.1//EN" "http://www.w3.org/Graphics/SVG/1.1/DTD/svg11.dtd">
<svg version="1.1" id="Layer_1" xmlns="http://www.w3.org/2000/svg" xmlns:xlink="http://www.w3.org/1999/xlink" x="0px" y="0px"
	 viewBox="0 0 512 512" enable-background="new 0 0 512 512" xml:space="preserve">
<g>
	<path fill="#FFD15C" d="M499.9,261.3v87.8c0,10.5-8.4,19-19,19H31.9c-10.5,0-19-8.4-19-19v-237c0-10.4,8.4-19,19-19h383.4
		c8.8,0,16.4,6,18.5,14.4l3.4,14l22.2,89.9c0.2,0.8,0.4,1.5,0.8,2.3c0.9,2.8,2.7,5.2,4.8,7.2l28.8,26.3
		C497.7,250.8,499.9,255.9,499.9,261.3z"/>
	<path fill="#F2F2F2" d="M78.4,339.5H2v36.9c0,1.1,0.9,2,2,2h74.4V339.5z"/>
	<path fill="#F2F2F2" d="M510,339.5h-80.5v38.9H508c1.1,0,2-0.9,2-2V339.5z"/>
	<path fill="#F2F2F2" d="M460.9,213.7h-90.4c-10.5,0-19-8.5-19-19v-73.2H438l22.2,89.9C460.4,212.2,460.6,213,460.9,213.7z"/>
	<circle fill="#40596B" cx="112" cy="368.1" r="50.9"/>
	<circle fill="#40596B" cx="400.8" cy="368.1" r="50.9"/>
	<circle fill="#F2F2F2" cx="400.8" cy="368.1" r="24.1"/>
	<circle fill="#F2F2F2" cx="112" cy="368.1" r="24.1"/>
	<g>
		<rect x="40.2" y="138.2" fill="#F8B64C" width="58.8" height="58.8"/>
		<rect x="117.3" y="138.2" fill="#F8B64C" width="58.8" height="58.8"/>
		<rect x="194.5" y="138.2" fill="#F8B64C" width="58.8" height="58.8"/>
		<rect x="271.7" y="138.2" fill="#F8B64C" width="58.8" height="58.8"/>
	</g>
	<rect x="475.5" y="268.8" fill="#FF7058" width="27.5" height="43.8"/>
	<rect x="12.9" y="256" fill="#F2F2F2" width="27.5" height="69.3"/>
	<rect x="17.3" y="301.6" fill="#FF7058" width="18.6" height="19.3"/>
</g>
</svg>
