<?xml version="1.0" encoding="utf-8"?>
<!-- Generator: Adobe Illustrator 18.0.0, SVG Export Plug-In . SVG Version: 6.00 Build 0)  -->
<!DOCTYPE svg PUBLIC "-//W3C//DTD SVG 1.1//EN" "http://www.w3.org/Graphics/SVG/1.1/DTD/svg11.dtd">
<svg version="1.1" id="Layer_1" xmlns="http://www.w3.org/2000/svg" xmlns:xlink="http://www.w3.org/1999/xlink" x="0px" y="0px"
	 viewBox="0 0 512 512" enable-background="new 0 0 512 512" xml:space="preserve">
<g>
	<rect x="273.4" y="153.4" fill="#84DBFF" width="87.3" height="35.8"/>
	<path fill="#84DBFF" d="M470.4,510H178.1c-32.3,0-49.7-37.9-28.8-62.4l134.3-157.2V189.3h67.2v98.1l147.4,159.1
		C520.6,470.7,503.5,510,470.4,510z"/>
	<polygon fill="#54C0EB" points="187.3,467.9 318.4,314.4 460.7,467.9 	"/>
	<path fill="#F2F2F2" d="M290.1,366.8c0,79.1-64.1,143.2-143.2,143.2C67.7,510,3.7,445.9,3.7,366.8c0-67.4,46.6-123.9,109.4-139
		v-73.3h67.6v73.3C243.4,242.9,290.1,299.4,290.1,366.8z"/>
	<rect x="103.2" y="118.7" fill="#F2F2F2" width="87.3" height="35.8"/>
	<path fill="#84DBFF" d="M153.7,364.5c-47.5-24.3-82.9-23.4-106.1-16.9c-1.2,6.2-1.9,12.6-1.9,19.2c0,55.8,45.4,101.2,101.2,101.2
		c47.9,0,88-33.5,98.4-78.2C225.4,390.8,195.7,386.1,153.7,364.5z"/>
	<circle fill="#FF7058" cx="117.8" cy="46.7" r="22.3"/>
	<circle fill="#84DBFF" cx="180.6" cy="18.8" r="13.6"/>
	<circle fill="#84DBFF" cx="178.4" cy="68.1" r="11.4"/>
	<circle fill="#FF7058" cx="273.4" cy="45.3" r="13.2"/>
	<circle fill="#FFD15C" cx="379.1" cy="24.3" r="22.3"/>
	<circle fill="#84DBFF" cx="326.1" cy="40.3" r="8.3"/>
	<circle fill="#CDD6E0" cx="397.4" cy="90.5" r="15.4"/>
	<rect x="113" y="154.5" fill="#E0E1E2" width="67.6" height="15.8"/>
	<rect x="283.6" y="189.3" fill="#54C0EB" width="67.2" height="15.8"/>
</g>
</svg>
