<?xml version="1.0" encoding="utf-8"?>
<!-- Generator: Adobe Illustrator 18.0.0, SVG Export Plug-In . SVG Version: 6.00 Build 0)  -->
<!DOCTYPE svg PUBLIC "-//W3C//DTD SVG 1.1//EN" "http://www.w3.org/Graphics/SVG/1.1/DTD/svg11.dtd">
<svg version="1.1" id="Layer_1" xmlns="http://www.w3.org/2000/svg" xmlns:xlink="http://www.w3.org/1999/xlink" x="0px" y="0px"
	 viewBox="0 0 512 512" enable-background="new 0 0 512 512" xml:space="preserve">
<g>
	<path fill="#FF7058" d="M219.8,488.9C178.3,502.7,134,510,87.9,510C40.5,510,2,471.5,2,424.1c0-46.1,7.3-90.4,21-131.9
		C64.8,165.1,165.2,64.6,292.2,23C333.7,9.3,378,2,424.1,2C471.5,2,510,40.5,510,87.9c0,46.1-7.4,90.3-21,131.8
		C447.3,346.7,346.9,447.1,219.8,488.9z"/>
	<path fill="#F1543F" d="M489,219.7L292.2,23C333.7,9.3,378,2,424.1,2C471.5,2,510,40.5,510,87.9C510,134,502.6,178.2,489,219.7z"/>
	<path fill="#F1543F" d="M219.8,488.9C178.3,502.7,134,510,87.9,510C40.5,510,2,471.5,2,424.1c0-46.1,7.3-90.4,21-131.9L219.8,488.9
		z"/>
	<polygon fill="#FFFFFF" points="347.1,236.3 358.3,225 328.2,194.9 345.8,177.4 334.6,166.1 317,183.7 286.9,153.6 275.7,164.8 
		305.8,194.9 276.3,224.4 246.2,194.3 235,205.5 265.1,235.6 235.6,265.1 205.5,235 194.3,246.2 224.4,276.3 194.9,305.8 
		164.8,275.7 153.6,286.9 183.7,317 166.1,334.6 177.4,345.8 194.9,328.2 225,358.3 236.3,347.1 206.1,317 235.6,287.5 265.7,317.6 
		276.9,306.4 246.8,276.3 276.3,246.8 306.4,276.9 317.6,265.7 287.5,235.6 317,206.1 	"/>
</g>
</svg>
