<?xml version="1.0" encoding="utf-8"?>
<!-- Generator: Adobe Illustrator 18.0.0, SVG Export Plug-In . SVG Version: 6.00 Build 0)  -->
<!DOCTYPE svg PUBLIC "-//W3C//DTD SVG 1.1//EN" "http://www.w3.org/Graphics/SVG/1.1/DTD/svg11.dtd">
<svg version="1.1" id="Layer_1" xmlns="http://www.w3.org/2000/svg" xmlns:xlink="http://www.w3.org/1999/xlink" x="0px" y="0px"
	 viewBox="0 0 512 512" enable-background="new 0 0 512 512" xml:space="preserve">
<g>
	<path fill="#334A5E" d="M87.9,510h336.2v-31.6c0-1.1-0.9-2-2-2H89.9c-1.1,0-2,0.9-2,2V510z"/>
	<path fill="#FFD15C" d="M99.1,2v90.9c0,95.1,50.3,181.2,128.6,225.2h56.4c78.4-43.9,128.7-130,128.7-225.2V2H99.1z"/>
	<g>
		<path fill="#F8B64C" d="M120,196.3c-44.4-30.1-75.2-78.9-80.5-135.1h59.6V26.5H4.1v17.3c0,95.4,61.5,176.6,146.9,206.4
			C138.6,233.7,128.2,215.6,120,196.3z"/>
		<path fill="#F8B64C" d="M412.9,26.5v34.7h59.6c-5.3,56.2-36,105-80.5,135.1c-8.2,19.3-18.6,37.4-30.9,54
			c85.4-29.8,146.9-111,146.9-206.4V26.5H412.9z"/>
	</g>
	<rect x="227.9" y="318.1" fill="#F8B64C" width="56.3" height="20.7"/>
	<path fill="#FFD15C" d="M194.4,387.3h123.3v-46.5c0-1.1-0.9-2-2-2H196.4c-1.1,0-2,0.9-2,2V387.3z"/>
	<path fill="#40596B" d="M127.4,476.4h257.2v-87.1c0-1.1-0.9-2-2-2H129.4c-1.1,0-2,0.9-2,2V476.4z"/>
	<polygon fill="#F8B64C" points="256,33.5 277.4,99.4 346.7,99.4 290.6,140.1 312.1,206 256,165.3 199.9,206 221.4,140.1 
		165.3,99.4 234.6,99.4 	"/>
</g>
</svg>
