<?xml version="1.0" encoding="utf-8"?>
<!-- Generator: Adobe Illustrator 18.0.0, SVG Export Plug-In . SVG Version: 6.00 Build 0)  -->
<!DOCTYPE svg PUBLIC "-//W3C//DTD SVG 1.1//EN" "http://www.w3.org/Graphics/SVG/1.1/DTD/svg11.dtd">
<svg version="1.1" id="Layer_1" xmlns="http://www.w3.org/2000/svg" xmlns:xlink="http://www.w3.org/1999/xlink" x="0px" y="0px"
	 viewBox="0 0 512 512" enable-background="new 0 0 512 512" xml:space="preserve">
<g>
	<rect x="447.9" y="298.2" fill="#F8B64C" width="25.1" height="24.3"/>
	<path fill="#334A5E" d="M396.6,378.9c0,0-88.3,16.4-140.5,16.4c-52.4,0-140.7-16.4-140.7-16.4l10.3-91.2l0.6-5.5l0.8-7.4l3.5-31.1
		h250.7l3.5,31.1l0.8,7.4l0.6,5.5L396.6,378.9z"/>
	<path fill="#2C4151" d="M386.3,287.7l-120.1,48.8c-3.3,1.3-6.7,1.9-10.2,1.9c-3.6,0-7-0.6-10.3-1.9l-120.1-48.8l0.6-5.5l0.8-7.4
		l3.5-31.1h250.7l3.5,31.1l0.8,7.4L386.3,287.7z"/>
	<path fill="#40596B" d="M251.7,103.5L9.1,202.1c-9.5,3.8-9.5,17.2,0,21.1l242.6,98.6c2.7,1.1,5.8,1.1,8.6,0l242.6-98.6
		c9.5-3.8,9.5-17.2,0-21.1l-242.6-98.6C257.5,102.4,254.5,102.4,251.7,103.5z"/>
	<path fill="#F8B64C" d="M460.5,289.5c-4.4,0-7.9-3.6-7.9-7.9v-61H256c-4.4,0-7.9-3.6-7.9-7.9c0-4.4,3.6-7.9,7.9-7.9h204.5
		c4.4,0,7.9,3.6,7.9,7.9v68.9C468.4,285.9,464.9,289.5,460.5,289.5z"/>
	<circle fill="#FFD15C" cx="460.5" cy="290.3" r="24.5"/>
	<path fill="#FFD15C" d="M497.4,398c-10.6,15.1-63.2,15.1-73.8,0c-11.5-16.4,24.3-75.4,24.3-75.4H473
		C473,322.6,508.9,381.6,497.4,398z"/>
</g>
</svg>
