<?xml version="1.0" encoding="utf-8"?>
<!-- Generator: Adobe Illustrator 18.0.0, SVG Export Plug-In . SVG Version: 6.00 Build 0)  -->
<!DOCTYPE svg PUBLIC "-//W3C//DTD SVG 1.1//EN" "http://www.w3.org/Graphics/SVG/1.1/DTD/svg11.dtd">
<svg version="1.1" id="Layer_1" xmlns="http://www.w3.org/2000/svg" xmlns:xlink="http://www.w3.org/1999/xlink" x="0px" y="0px"
	 viewBox="0 0 512 512" enable-background="new 0 0 512 512" xml:space="preserve">
<g>
	<path fill="#FFD15C" d="M225.3,510c0,0,166.8-50.4,221.3-132.5l-13.8-58.3c0,0,82.5-83.3,37.5-214c-4.7-13.8-11.8-26.6-21.2-37.7
		C420,33.3,345.9-24.8,196.2,15.9c0,0-136.9,36.8-135.9,201.1L30,275.4c-4.3,8.4,0.1,18.6,9.1,21.2l18.4,5.3l0.9,68
		c0,0-10.4,70.8,77.4,68c0,0,43.4,1.9,67-4.7L225.3,510z"/>
	<path fill="#FFFFFF" d="M424,183.7c0,28.9-8.3,55.6-22.9,78.1c-6.5,10.4-14.2,19.7-23,28.1c-15.2,14.2-33.4,25.2-53.6,31.9
		c-11.2,3.8-23.2,6.3-35.4,7.3c-3.5,0.2-7.2,0.3-10.9,0.3c-26.5,0-51.3-7-72.5-19.2c-4.3-2.5-8.5-5.2-12.4-8
		c-7.7-5.3-14.7-11.5-21-18.4c-24.9-26-40.1-61.4-40.1-100.2c0-13.4,1.7-26,5-38.4c0.8-2.5,1.5-5,2.3-7.5c3.7-11,8.5-21.5,14.7-31.2
		c25.7-41.4,71.6-68.8,123.9-68.8c15,0,29.4,2.2,43.1,6.3c13,4.2,25.4,10,36.6,17.4c14.2,9.3,26.5,20.9,36.7,34.4
		c8.2,10.9,14.9,22.5,19.5,35.4c0.5,1.2,1.2,2.7,1.7,4c1.5,4.5,2.8,9,4,13.7C422.5,160.1,424,171.7,424,183.7z"/>
	<path fill="#FF7058" d="M297.8,210.4c0.3-3.2,0.5-6.2,0.5-9.4c0-3.3-0.2-6.7-0.5-9.8l17.7-12.5l-7.5-23.2l-21.9,0.5
		c-3.2-5.5-6.8-10.7-11.2-15.4l7-20.7L262,105.5l-17.2,13.2c-5.8-2.5-11.9-4.7-18.4-6L220.3,92h-24.5l-6.2,20.7
		c-6.5,1.5-12.9,3.5-18.7,6.2l-16.5-12.4c-6.2,9.7-11,20.2-14.7,31.2l1.2,3.2c-1.2,1.5-2.3,2.8-3.5,4.3c-3.3,12.4-5,25-5,38.4
		c0,38.7,15.2,74.1,40.1,100.2c5.3,2.3,11.2,4.3,17.2,5.5l3.8,12.9c3.8,2.8,8,5.5,12.4,8h14.5l6.2-20.9c6.7-1.3,13-3.5,18.9-6.2
		l17.4,13l19.7-14.5l-7.2-20.5c4.2-4.7,8-10,11.2-15.5l21.7,0.3l7.5-23.2L297.8,210.4z M208.1,255.2c-29.9,0-54.1-24.2-54.1-54.1
		s24.2-53.9,54.1-53.9c29.9,0,53.9,24,53.9,53.9S238,255.2,208.1,255.2z"/>
	<path fill="#84DBFF" d="M414.2,131.2c-4.8-12.8-11.4-24.6-19.6-35.3c2.7,19.9-10,39-29.9,43.8c-21.3,5.3-42.9-7.7-48.1-29
		c-5.3-21.4,7.7-42.9,29-48.2c4.2-1,8.4-1.4,12.3-1c-11.1-7.3-23.5-13.3-36.6-17.3c-2.5,1.5-4.9,3.2-7.2,4.9l-14.7-6.2l-11.5,13.8
		l8.7,13.4c-2.2,4.2-3.9,8.5-5.2,13l-15.7,3.5l-1.1,18l14.9,5.7c0.3,2.2,0.6,4.4,1.3,6.7c0.5,2.4,1.3,4.7,2.2,7l-10.5,12l9.5,15.3
		l15.4-4.2c3.3,3.3,7,6.3,10.8,9l-1.4,15.9l16.7,6.7l10-12.4c4.6,0.9,9.4,1.3,14,1l8.2,13.8l17.5-4.3L384,161
		c4.4-2.2,8.6-4.8,12.3-7.7l14.8,6.2l8.7-10.5C419.8,149,414.1,131.6,414.2,131.2z"/>
	<path fill="#40596B" d="M396.3,254.9l-12.4,3.9c-2.8-2.5-5.8-4.9-9.1-7l0.5-13l-13.8-4.8l-7.7,10.5c-4-0.5-8-0.6-11.9-0.3
		l-7.2-10.9l-14,4.3v13.2c-3.4,1.8-6.6,3.9-9.5,6.5l-12.1-4.4l-9,11.6l7.7,10.6c-0.8,1.6-1.5,3.3-2.2,5.2c-0.6,1.8-1.1,3.8-1.6,5.7
		l-12.5,3.4l-0.4,14.8l12.5,4.1c0.6,3.7,1.8,7.3,3.3,10.9l-7.7,9.9c12.3-0.9,24.2-3.4,35.4-7.2c-9.1-8.5-12.9-21.9-8.5-34.4
		c5.9-16.8,24.4-25.8,41.4-19.9c10.5,3.7,18,12.1,20.6,22.3c8.9-8.2,16.6-17.6,23.2-28L396.3,254.9z"/>
</g>
</svg>
