<?xml version="1.0" encoding="utf-8"?>
<!-- Generator: Adobe Illustrator 18.0.0, SVG Export Plug-In . SVG Version: 6.00 Build 0)  -->
<!DOCTYPE svg PUBLIC "-//W3C//DTD SVG 1.1//EN" "http://www.w3.org/Graphics/SVG/1.1/DTD/svg11.dtd">
<svg version="1.1" id="Layer_1" xmlns="http://www.w3.org/2000/svg" xmlns:xlink="http://www.w3.org/1999/xlink" x="0px" y="0px"
	 viewBox="0 0 512 512" enable-background="new 0 0 512 512" xml:space="preserve">
<g>
	<path fill="#40596B" d="M377.4,508.3L262,436.1c-3.7-2.2-8.3-2.2-11.9,0l-115.6,72.2c-8.4,5.2-18.8-2.1-16.9-11.7l23.9-116.9
		l1.1-5.3l2.1-10.4c10.2,1.4,21.6,0.7,30.1,4.8c13,6.3,21.7,25.8,36.1,29.1c14,3.2,30.3-10.6,45.2-10.6c14.8,0,31.1,13.8,45.1,10.6
		c14.4-3.3,23.1-22.8,36.1-29.1c8.5-4,19.9-3.4,30.1-4.7l2.1,10.4l1.1,5.2l23.9,116.9C396.4,506.2,385.8,513.5,377.4,508.3z"/>
	<path fill="#334A5E" d="M370.4,379.6c-4,0.5-7.8,0.8-11.4,1.1c-5.8,0.4-11.7,0.8-14.9,2.4c-3,1.4-7,5.7-10.8,9.9
		c-7.1,7.7-15.8,17.2-28.7,20.2c-2.5,0.6-5.2,0.8-7.9,0.8c-9.4,0-18.2-3.5-25.8-6.6c-5.5-2.2-11.2-4.4-14.8-4.4
		c-3.7,0-9.4,2.2-14.9,4.4c-7.6,3.1-16.4,6.6-25.8,6.6c-2.8,0-5.4-0.2-7.9-0.8c-12.9-3-21.6-12.5-28.7-20.2
		c-3.8-4.2-7.7-8.6-10.8-9.9c-3.2-1.6-9.1-2-14.9-2.4c-3.6-0.2-7.4-0.5-11.4-1.1l1.1-5.3l2.1-10.4c10.2,1.4,21.6,0.7,30.1,4.8
		c13,6.3,21.7,25.8,36.1,29.1c14,3.2,30.3-10.6,45.2-10.6c14.8,0,31.1,13.8,45.1,10.6c14.4-3.3,23.1-22.8,36.1-29.1
		c8.5-4,19.9-3.4,30.1-4.7l2.1,10.4L370.4,379.6z"/>
	<path fill="#F8B64C" d="M458.7,200.1c0,14.9-17.1,27.7-20.2,41.7c-3.3,14.4,6.5,33.3,0.2,46.3c-6.4,13.2-27.3,17.3-36.4,28.7
		c-9.1,11.4-8.5,32.7-19.9,41.8c-11.3,9.1-32,3.8-45.2,10.1c-13,6.3-21.7,25.8-36.1,29c-14,3.2-30.2-10.6-45.1-10.6
		c-14.9,0-31.2,13.7-45.1,10.6c-14.4-3.3-23.1-22.8-36.1-29c-13.2-6.4-33.8-1.1-45.2-10.1c-11.4-9.1-10.8-30.4-19.9-41.8
		c-9.1-11.3-30-15.5-36.4-28.7c-6.3-13,3.5-31.9,0.2-46.3c-3.2-14-20.2-26.7-20.2-41.7c0-14.9,17.1-27.7,20.2-41.7
		c3.3-14.4-6.5-33.3-0.2-46.3c6.4-13.2,27.3-17.3,36.4-28.7c9.1-11.4,8.5-32.7,19.9-41.8c11.3-9.1,32-3.8,45.2-10.1
		c13-6.3,21.7-25.8,36.1-29C224.8-0.7,241.1,13,256,13c14.9,0,31.2-13.7,45.1-10.6c14.4,3.3,23.1,22.8,36.1,29
		c13.2,6.4,33.8,1.1,45.2,10.1c11.4,9.1,10.8,30.4,19.9,41.8c9.1,11.3,30,15.5,36.4,28.7c6.3,13-3.5,31.9-0.2,46.3
		C441.6,172.4,458.7,185.2,458.7,200.1z"/>
	<circle fill="#FFD15C" cx="256" cy="200.1" r="152.6"/>
	<path fill="#F8B64C" d="M256,330c-71.6,0-129.9-58.3-129.9-129.9c0-71.6,58.3-129.9,129.9-129.9c71.6,0,129.9,58.3,129.9,129.9
		C385.9,271.7,327.6,330,256,330z M256,82.8c-64.7,0-117.4,52.7-117.4,117.4c0,64.7,52.7,117.4,117.4,117.4
		c64.7,0,117.4-52.7,117.4-117.4C373.4,135.4,320.7,82.8,256,82.8z"/>
	<path fill="#FFFFFF" d="M344.4,167.9H281l-19.6-60.3c-1.7-5.2-9.1-5.2-10.8,0L231,167.9h-63.4c-5.5,0-7.8,7.1-3.3,10.3l51.3,37.3
		l-19.6,60.3c-1.7,5.2,4.3,9.6,8.8,6.4l51.3-37.3l51.3,37.3c4.5,3.2,10.5-1.1,8.8-6.4l-19.6-60.3l51.3-37.3
		C352.2,175,349.9,167.9,344.4,167.9z"/>
</g>
</svg>
