<?xml version="1.0" encoding="utf-8"?>
<!-- Generator: Adobe Illustrator 18.0.0, SVG Export Plug-In . SVG Version: 6.00 Build 0)  -->
<!DOCTYPE svg PUBLIC "-//W3C//DTD SVG 1.1//EN" "http://www.w3.org/Graphics/SVG/1.1/DTD/svg11.dtd">
<svg version="1.1" id="Layer_1" xmlns="http://www.w3.org/2000/svg" xmlns:xlink="http://www.w3.org/1999/xlink" x="0px" y="0px"
	 viewBox="0 0 512 512" enable-background="new 0 0 512 512" xml:space="preserve">
<g>
	<polygon fill="#CDD6E0" points="169.1,412.5 169.1,456.6 126.4,456.6 126.4,388.1 	"/>
	<path fill="#40596B" d="M442.1,456.6H69.9c-11.7,0-21.2,9.5-21.2,21.2V510h414.6v-32.2C463.3,466.1,453.8,456.6,442.1,456.6z"/>
	<path fill="#CDD6E0" d="M442.6,404.1c-8.7,19.5-20.5,37.1-34.8,52.5h-93.7c35.3-12.8,64.5-39.7,79.7-74.2
		c25.2-56.6,9.3-121.2-34.6-160.3c-1.3-1.2-2.6-2.3-4-3.5c-2.8-2.2-5.5-4.4-8.5-6.5l29.5-44.7c2.9,2,5.8,4.1,8.6,6.3
		c1.4,1.1,2.8,2.2,4.1,3.4c25.5,20.7,45.3,47.9,57.5,79.6C464.8,304.7,463.6,357.1,442.6,404.1z"/>
	<path fill="#F2F2F2" d="M414.7,109.5L293.7,292.1c-6.6,9.9-19.9,12.7-29.9,6.1l-92.5-60.7c-10-6.6-12.8-20-6.2-30L286.2,24.9
		c6.6-9.9,19.9-12.7,29.9-6.1l92.5,60.7C418.5,86,421.3,99.5,414.7,109.5z"/>
	<polygon fill="#FF7058" points="413,44.3 394.6,70.3 330.2,28 348.6,2 	"/>
	
		<rect x="190.9" y="233.5" transform="matrix(0.5487 -0.836 0.836 0.5487 -142.0698 301.3745)" fill="#84DBFF" width="34.4" height="97.6"/>
	<circle fill="#40596B" cx="330.2" cy="97.3" r="16.6"/>
	<path fill="#ACB3BA" d="M388.9,177.2L359.2,222c-1.3-1.2-2.6-2.3-4-3.5c-2.8-2.2-5.5-4.4-8.5-6.5l29.5-44.7c2.9,2,5.8,4.1,8.6,6.3
		C386.2,174.8,387.6,176,388.9,177.2z"/>
	
		<rect x="67.3" y="351.2" transform="matrix(0.8347 0.5507 -0.5507 0.8347 230.5631 -19.4096)" fill="#40596B" width="160.7" height="46.4"/>
	<polygon fill="#ACB3BA" points="126.4,388.1 126.4,407.1 169.1,435.4 169.1,416.4 	"/>
</g>
</svg>
