<?xml version="1.0" encoding="utf-8"?>
<!-- Generator: Adobe Illustrator 18.0.0, SVG Export Plug-In . SVG Version: 6.00 Build 0)  -->
<!DOCTYPE svg PUBLIC "-//W3C//DTD SVG 1.1//EN" "http://www.w3.org/Graphics/SVG/1.1/DTD/svg11.dtd">
<svg version="1.1" id="Layer_1" xmlns="http://www.w3.org/2000/svg" xmlns:xlink="http://www.w3.org/1999/xlink" x="0px" y="0px"
	 viewBox="0 0 512 512" enable-background="new 0 0 512 512" xml:space="preserve">
<g>
	<rect x="187.2" y="427.1" fill="#40596B" width="61" height="46.8"/>
	<path fill="#84DBFF" d="M410.6,146.4c-16.4-43.6-49.1-81.3-94.6-102.9c-12.8-6.1-25.9-10.5-39.2-13.6c-28.7-6.4-57.9-5.9-85.5,0.8
		c-52.8,13-99.5,48.6-124.6,101.5c-44.3,93.3-4.6,205,88.7,249.3c75.7,36,163.4,16.6,217.6-41.9c12.6-13.5,23.3-29.2,31.7-46.8
		C427.4,245,428.1,192.3,410.6,146.4z"/>
	<path fill="#334A5E" d="M450.1,136.2C429.7,78.8,388.3,32.8,333.4,6.8l-10-4.8l-17.7,37.3c3.4,1.4,6.9,2.6,10.3,4.2
		c3.4,1.6,6.5,3.5,9.7,5.2l8-16.9c44.6,24.2,78.3,63.5,95.5,111.8c18.4,51.8,15.6,107.6-7.9,157.1c-23.5,49.5-65,86.9-116.8,105.4
		c-48.3,17.2-100.1,15.9-147-3.4l8-16.8c-3.4-1.4-6.8-2.7-10.2-4.3c-3.4-1.6-6.6-3.5-9.8-5.3l-17.7,37.2l10,4.8
		c31.5,15,64.7,22,97.4,22c85.2,0,167.1-48,206.1-130C467.4,255.4,470.5,193.5,450.1,136.2z"/>
	<path fill="#54C0EB" d="M264.2,82.7c-3,7.6-7.7,14.5-13.7,20.2c-4.6-3.1-9.1-6.3-13.7-9.4c-1.6,4.7-4.8,8.8-9.1,11.6
		c-0.2-7.9-10.6-10.4-18.5-10.6c-6.5-0.1-13.2-0.2-19.8,0.4c-8.8,0.9-17.5,3.1-25.7,6.6c2.9-5.3,3.1-12.1,0-17.2
		c-3.1-5.1-10.2-7.8-15.6-5.1c-5.4,2.5-7.7,10.6-3.7,15.1c1.6,1.8,4,3.2,4,5.7c0,2.4-2.8,3.9-5,5c-8.4,4.7-14.1,14.4-13.5,24
		c6.3,1.5,11.1,6.9,13.5,12.8c2.4,6,2.7,12.6,2.9,19.1c0.3,5.9,0.6,11.9-0.2,17.7c-1.5,11.1-6.9,23.2-1.4,32.9
		c1.6,2.9,3.9,5.1,5.5,8c1.4,2.9,1.5,6.9-0.9,8.9c-2.1,1.8-5.1,1.4-7.7,2.1c-7.6,1.8-13.1,11.6-20.4,9.3c-4.7-1.6-8.1-8.1-12.7-6.4
		c-2.2,0.8-3.4,3-4.9,4.5c-4.5,4.4-12,3-18.2,1.8c-6.2-1.3-14.2-1-17.1,4.6c-2.7,5.4,0.5,14-4.8,16.7c-5.5-5.7-4.2-14.9-1.9-22.5
		c5.4-16.9,14.7-32.6,26.7-45.6c3.4-3.6,7.3-7.7,7.3-12.6c0.1-2.6-1-5.1-1.4-7.7c-1.3-7.6,3.1-15.2,8.6-20.8
		c5.4-5.8,11.8-10.4,16.5-16.7c11.7-16.7,7-40.2,15.9-58.6c3.7-7.9,9.7-14.2,16-20.2c7.4-7,15.3-13.5,24.1-18.3
		c5.3-2.9,10.7-5.2,16.3-7.1c27.6-6.7,56.8-7.2,85.5-0.8c-2.5,2.9-4.2,6.7-4.4,10.7c0.9,5.3,7.1,9.2,12.2,7.8
		c1.4-0.3,2.8-1.1,4.3-0.7c2.7,0.8,3.2,5.3,6.1,5.5c-3.3,0.1-6.7-0.1-10.1-0.2c0.8,4.8,2.4,9.5,4.8,13.7
		c-7.5-3.6-15.1-7.2-22.6-10.6c-3.3-1.6-6.7-3.2-10.2-3.4C245.5,52,238,64,233.3,74.2c4.5,3.3,10.5,0.3,15.4-2.5
		c4.8-2.8,11.7-4.9,15.3-0.8C266.6,74,265.7,78.8,264.2,82.7z"/>
	<path fill="#54C0EB" d="M410.6,146.4c-4.7,6.4-9.5,13-14.2,19.5c-2.5,3.6-5.9,7.5-10.2,6.9c-11.3-1.4-4-25.8-15.2-27
		c-2.2-0.2-4.2,0.6-6.1,1.5c-6.6,2.9-13.1,5.9-19.7,8.8c-4.8,2.1-10.5,5.8-9.5,11c0.4,2.2,2.1,3.9,2.6,6.2c1.5,5.5-5,10.9-10.5,9.3
		c-5.6-1.7-8.3-8.4-6.8-13.9c0.8-3.1,2.7-5.9,2.1-9c-1.1-6.4-11.6-6.2-14.8-0.6c-3.1,5.7-0.4,12.9,3.5,18.2
		c-7.3,4.7-13.7,11.2-18.2,18.7c-4.2-6.3-14.9-6.6-19.5-0.6c-2.7,3.6-3.7,9.1-7.6,11.3c-2.8,1.4-6.1,0.8-9.3,1
		c-3.9,0.3-7.5,1.7-11.1,3.1c-10,3.8-20.1,7.8-28.2,14.6c-8,6.8-13.8,17.3-12.3,27.9c1,6.5,4.9,12.7,10.6,16.2
		c2.7,1.8,6.1,3.1,8.6,5.2c5.4,4.5,6.8,12.6,5.1,19.3c-1.6,6.8-5.9,12.7-10.5,17.9c-6.7,7.6-14.3,14.3-22.6,20
		c-5.2,3.7-10.9,7.1-14.6,12.4c-3.7,5.3-4.6,13.1,0,17.7c7.1,7.1,18.8,0.7,28.9,0.5c5.6-0.1,11.2,1.9,16.9,1.3
		c16.2-1.6,24.5-23.6,40.7-25.7c6.5-0.9,12.7,1.5,18.9,3.3c6.2,1.7,13.4,2.4,18.6-1.3c5.3-3.5,6.3-13.2,0.3-15.7
		c0.3-5.9,8.9-6.4,14.7-5.5c5.9,1,12.1,1.5,17.8-0.4c5.7-2,10.8-6.6,11.8-12.5c7.2,4.7,9,15.2,6.2,23.4c-2.7,8.4-8.9,14.9-14.8,21.3
		l1.5,0.6c5.1,5.4,14.5,1.8,19.5-3.8c4.8-5.6,8.1-13,14.5-16.8c-2.2,2.9-4.4,5.8-5,9.2c12.6-13.5,23.3-29.2,31.7-46.8
		C427.4,245,428.1,192.3,410.6,146.4z M378.2,250.1c-2.9-0.5-6.3,0.5-7.5,3.1c-0.6,1.3-0.7,2.8-1.8,3.5c-2,1.5-4.4-1-6.7-2.2
		c-3-1.6-6.6-0.5-9.3,1.3c-2.6,2-4.4,4.8-6.3,7.5c-6.3,8.1-14.3,15-23.5,19.4c-3.5,1.8-7.1,3.3-11,2.8c-3.7-0.5-7.5-3.6-7.4-7.5
		c0.1-5.8,7.4-8.1,12.5-10.9c3.5-1.9,6.5-4.8,8.6-8.2c1.2-2.2,2.1-4.7,1.6-7.2c-0.3-2.4-2.5-4.6-5-4.5c-2.5,5.5-7.8,9.5-13.7,10.7
		c1.6-4.7-5.2-7.7-9.9-6.8c-4.7,0.9-9.9,3.3-14.1,0.7c2.3-1.8,2.7-5.3,3.7-8.1c0.9-2.9,3.3-5.8,6.2-5.2c1.7,0.3,3.5,1.8,5,0.9
		l1.9-2.9c0.9,2.9,5.6,0.7,6.8-2.2c1.1-2.7,2.4-6.7,5.4-6.6c1.5,0,2.7,1.1,4.1,1.4c2.7,0.8,5.5-0.8,7.7-2.4
		c8.9-6.7,15.9-15.9,20.1-26.1c1.1-2.7,2.2-5.7,4.8-6.9c2.6-1.4,8.5-2.4,8.4,0.6c-0.3,10,7.5,2.6,10.3,5.2c2.8,2.7,4.3,7.1,2.4,10.5
		c-1.1,1.9-2.9,3.4-3.2,5.4c-0.2,1.9,0.9,3.4,1.9,4.9c3.2,4.6,8.5,9.9,13.8,7.5c-3.1,3.4-2.1,8.6-0.6,13c1.6,4.2,3.9,8.7,2.8,13.1
		C383.6,252.2,381.1,250.5,378.2,250.1z"/>
	<path fill="#334A5E" d="M326.7,464.9h-218c-11.7,0-21.2,9.5-21.2,21.2V510h260.4v-23.9C347.9,474.4,338.4,464.9,326.7,464.9z"/>
</g>
</svg>
