<?xml version="1.0" encoding="utf-8"?>
<!-- Generator: Adobe Illustrator 18.0.0, SVG Export Plug-In . SVG Version: 6.00 Build 0)  -->
<!DOCTYPE svg PUBLIC "-//W3C//DTD SVG 1.1//EN" "http://www.w3.org/Graphics/SVG/1.1/DTD/svg11.dtd">
<svg version="1.1" id="Layer_1" xmlns="http://www.w3.org/2000/svg" xmlns:xlink="http://www.w3.org/1999/xlink" x="0px" y="0px"
	 viewBox="0 0 512 512" enable-background="new 0 0 512 512" xml:space="preserve">
<g>
	<rect x="252.6" y="2" fill="#FFD15C" width="6.9" height="47.7"/>
	<polygon fill="#FFD15C" points="142.9,33.2 166.8,74.6 172.7,71.1 148.9,29.8 	"/>
	<polygon fill="#FFD15C" points="63.6,115.1 104.9,139 108.4,133 67,109.1 	"/>
	<polygon fill="#FFD15C" points="339.3,71.1 345.2,74.6 369.1,33.2 363.1,29.8 	"/>
	<polygon fill="#FFD15C" points="445,109.1 403.6,133 407.1,139 448.4,115.1 	"/>
	<rect x="35.8" y="218.8" fill="#FFD15C" width="47.7" height="6.9"/>
	<rect x="428.5" y="218.8" fill="#FFD15C" width="47.7" height="6.9"/>
	<path fill="#FFE56A" d="M415.5,222.2c0-90.6-75.5-163.5-167.1-159.3c-82.6,3.8-150,73-151.8,155.7c-1.3,56.9,27.4,107.1,71.2,136.3
		c13.1,8.7,20.9,23.5,20.9,39.3l0,0h134.5l0,0c0-15.8,7.9-30.6,21-39.4C387.2,326.2,415.5,277.6,415.5,222.2z"/>
	<path fill="#FF7058" d="M322.1,421.2H189.9c-7.4,0-13.5-6-13.5-13.5l0,0c0-7.5,6-13.5,13.5-13.5h132.2c7.4,0,13.5,6,13.5,13.5l0,0
		C335.6,415.1,329.6,421.2,322.1,421.2z"/>
	<path fill="#F1543F" d="M329.3,448.1H182.7c-7.4,0-13.5-6-13.5-13.5l0,0c0-7.5,6-13.5,13.5-13.5h146.7c7.5,0,13.5,6,13.5,13.5l0,0
		C342.8,442.1,336.8,448.1,329.3,448.1z"/>
	<path fill="#FF7058" d="M322.1,475.1H189.9c-7.4,0-13.5-6-13.5-13.5l0,0c0-7.4,6-13.5,13.5-13.5h132.2c7.4,0,13.5,6,13.5,13.5l0,0
		C335.6,469.1,329.6,475.1,322.1,475.1z"/>
	<path fill="#40596B" d="M310.3,510H201.7c-1.1,0-2-0.9-2-2v-32.9h112.5V508C312.3,509.1,311.4,510,310.3,510z"/>
	<g>
		<polygon fill="#FFFFFF" points="196.9,228.5 256,228.5 256,121.8 		"/>
		<polygon fill="#FFFFFF" points="315.1,228.5 256,228.5 256,335.2 		"/>
	</g>
</g>
</svg>
