<?xml version="1.0" encoding="utf-8"?>
<!-- Generator: Adobe Illustrator 18.0.0, SVG Export Plug-In . SVG Version: 6.00 Build 0)  -->
<!DOCTYPE svg PUBLIC "-//W3C//DTD SVG 1.1//EN" "http://www.w3.org/Graphics/SVG/1.1/DTD/svg11.dtd">
<svg version="1.1" id="Layer_1" xmlns="http://www.w3.org/2000/svg" xmlns:xlink="http://www.w3.org/1999/xlink" x="0px" y="0px"
	 viewBox="0 0 512 512" enable-background="new 0 0 512 512" xml:space="preserve">
<g>
	<circle fill="#4CDBC4" cx="307.3" cy="40.8" r="26.6"/>
	<circle fill="#FF7058" cx="251.5" cy="256" r="55.6"/>
	<circle fill="#FFFFFF" cx="231" cy="235.5" r="15.9"/>
	<path fill="#F2F2F2" d="M335.7,64.5c-4.6,5.6-10.8,9.7-18,11.8c23.9,43.1,39.4,108.2,39.4,179.7c0,126.2-48.4,232.7-105.7,232.7
		S145.8,382.2,145.8,256c0-126.2,48.4-232.7,105.7-232.7c7.2,0,14.2,1.7,21.1,4.9c2.5-7,7.1-12.9,12.9-17.2
		c-10.8-5.8-22.2-8.9-34-8.9c-71.2,0-126.9,111.6-126.9,254s55.7,254,126.9,254c71.2,0,126.9-111.6,126.9-254
		C378.4,178.8,362,110.7,335.7,64.5z"/>
	<path fill="#CDD6E0" d="M452.6,366.3c-1.4,0-2.8-0.3-4.2-0.4c-0.7,10.6-3.7,20.1-9.4,27.9c-15.6,21.2-50.4,28.5-95.6,19.9
		c-48.5-9.2-103.4-35-154.5-72.6c-51.1-37.6-92.1-82.2-115.4-125.8c-21.7-40.5-25.2-75.9-9.6-97.2c11.7-15.9,33-23.5,60.1-23.5
		c51.4,0,123.5,27.2,190,76.1l0,0c53.5,39.3,94.5,86.2,116.6,128.5c5.8-4.3,12.9-6.9,20.5-7.2c-23.1-46-66.3-95.7-124.5-138.4h0
		C211.8,69.4,88.9,48.3,46.8,105.6c-21,28.5-18.1,71.1,8,119.8c24.8,46.3,68,93.5,121.6,132.9c53.6,39.4,111.6,66.5,163.2,76.3
		c13.9,2.6,27,4,39.1,4c35.1,0,62-11,77.6-32.2c9.2-12.5,13.4-27.7,13.6-44.5C464.6,364.6,458.8,366.3,452.6,366.3z"/>
	<circle fill="#84DBFF" cx="452.6" cy="329.1" r="26.6"/>
	<path fill="#FFD15C" d="M456.2,105.6c-20.9-28.5-62.4-38.5-116.7-28.2c-51.6,9.8-109.5,36.9-163.2,76.3
		C61.5,238,4.6,349,46.7,406.4c6.1,8.3,13.9,14.9,23,19.9c-0.1-1.1-0.3-2.3-0.3-3.4c0-6.9,2-13.3,5.3-18.8c-4.1-3-7.9-6.3-10.9-10.3
		c-33.9-46.2,23.3-148.2,125-222.9c51.1-37.6,106-63.3,154.5-72.5c12.4-2.4,24.1-3.5,34.7-3.5c28.1,0,49.5,8.1,60.8,23.4
		c15.6,21.2,12.1,56.6-9.6,97.2c-23.3,43.5-64.3,88.2-115.4,125.8c-58.7,43.1-121.7,69.3-171,74.9c0.4,2.2,0.7,4.5,0.7,6.9
		c0,5.3-1.2,10.4-3.2,14.9c54-4.6,121.3-32,186-79.5c53.6-39.4,96.8-86.6,121.6-132.9C474.3,176.7,477.1,134.1,456.2,105.6z"/>
	<circle fill="#FF7058" cx="106.6" cy="422.9" r="26.6"/>
</g>
</svg>
