<?xml version="1.0" encoding="utf-8"?>
<!-- Generator: Adobe Illustrator 18.0.0, SVG Export Plug-In . SVG Version: 6.00 Build 0)  -->
<!DOCTYPE svg PUBLIC "-//W3C//DTD SVG 1.1//EN" "http://www.w3.org/Graphics/SVG/1.1/DTD/svg11.dtd">
<svg version="1.1" id="Layer_1" xmlns="http://www.w3.org/2000/svg" xmlns:xlink="http://www.w3.org/1999/xlink" x="0px" y="0px"
	 viewBox="0 0 512 512" enable-background="new 0 0 512 512" xml:space="preserve">
<g>
	<path fill="#F2F2F2" d="M508,463.2H4c-1.1,0-2,0.9-2,2v39.7h508v-39.7C510,464.1,509.1,463.2,508,463.2z"/>
	<rect x="44.3" y="421.4" fill="#ACB3BA" width="423.3" height="41.7"/>
	<rect x="86.7" y="205.4" fill="#CDD6E0" width="338.7" height="216.1"/>
	<path fill="#FFFFFF" d="M357,232L357,232c-14.5,0-26.3,11.8-26.3,26.3v163.2h52.6V258.3C383.3,243.7,371.5,232,357,232z"/>
	<path fill="#FFFFFF" d="M256,232L256,232c-14.5,0-26.3,11.8-26.3,26.3v163.2h52.6V258.3C282.3,243.7,270.5,232,256,232z"/>
	<path fill="#FFFFFF" d="M155,232L155,232c-14.5,0-26.3,11.8-26.3,26.3v163.2h52.6V258.3C181.3,243.7,169.6,232,155,232z"/>
	<rect x="44.3" y="163.6" fill="#ACB3BA" width="423.3" height="41.7"/>
	<path fill="#F2F2F2" d="M445.8,163.6l-176-151.5c-7.9-6.8-19.7-6.8-27.6,0l-176,151.5H445.8z"/>
	<circle fill="#FFFFFF" cx="256" cy="94.1" r="33.1"/>
</g>
</svg>
