<?xml version="1.0" encoding="utf-8"?>
<!-- Generator: Adobe Illustrator 18.0.0, SVG Export Plug-In . SVG Version: 6.00 Build 0)  -->
<!DOCTYPE svg PUBLIC "-//W3C//DTD SVG 1.1//EN" "http://www.w3.org/Graphics/SVG/1.1/DTD/svg11.dtd">
<svg version="1.1" id="Layer_1" xmlns="http://www.w3.org/2000/svg" xmlns:xlink="http://www.w3.org/1999/xlink" x="0px" y="0px"
	 viewBox="0 0 512 512" enable-background="new 0 0 512 512" xml:space="preserve">
<g>
	<path fill="#F2F2F2" d="M347.4,2H61.5c-11.7,0-21.2,9.5-21.2,21.2v465.7c0,11.7,9.5,21.2,21.2,21.2h389c11.7,0,21.2-9.5,21.2-21.2
		V126.3L347.4,2z"/>
	<path fill="#CDD6E0" d="M347.4,105.1c0,11.7,9.5,21.2,21.2,21.2h103.1L347.4,2V105.1z"/>
	<rect x="82.7" y="44.3" fill="#CDD6E0" width="152.5" height="183.1"/>
	<g>
		<circle fill="#FFFFFF" cx="158.9" cy="102.7" r="35.8"/>
		<path fill="#FFFFFF" d="M186.8,145.4c-8,5.3-17.6,8.3-27.9,8.3c-10.3,0-19.9-3.1-27.9-8.3c-22.4,10.5-37.9,33.2-37.9,59.5h131.6
			C224.7,178.6,209.2,155.9,186.8,145.4z"/>
	</g>
	<rect x="256" y="204.4" fill="#FFD15C" width="187.7" height="23"/>
	<rect x="68.3" y="300.3" fill="#4CDBC4" width="375.4" height="23"/>
	<rect x="68.3" y="396.2" fill="#4CDBC4" width="221.1" height="23"/>
	<g>
		<path fill="#FF7058" d="M388.2,420.3c0.7,1.3,1.1,2.4,1.4,3.3c0.3,0.8,0.2,1.5-0.2,2.1c-0.4,0.6-1.2,1.1-2.4,1.7
			c-1.2,0.5-2.8,1.1-4.9,1.8c-1.5,0.5-2.7,0.9-3.7,1.2c-1,0.3-1.7,0.4-2.3,0.4c-0.6,0-1-0.1-1.3-0.3c-0.3-0.2-0.6-0.6-0.8-1.2
			l-7.3-14.6l-28.5,9.7l-2.8,17.6c-0.1,0.6-0.2,1.2-0.5,1.7c-0.2,0.5-0.6,0.9-1.2,1.4c-0.6,0.4-1.4,0.9-2.5,1.3
			c-1.1,0.5-2.5,1-4.2,1.5c-1.8,0.6-3.2,1-4.3,1.3c-1,0.2-1.8,0.2-2.3-0.2c-0.5-0.3-0.7-1-0.8-1.9c0-0.9,0.1-2.2,0.4-3.8l13.9-79.9
			c0.2-0.8,0.4-1.5,0.6-2c0.3-0.5,0.7-1,1.4-1.5c0.6-0.5,1.6-0.9,2.8-1.4c1.2-0.5,2.8-1.1,4.8-1.7c2.3-0.8,4.1-1.4,5.5-1.8
			c1.4-0.4,2.5-0.6,3.3-0.7c0.8,0,1.4,0.1,1.8,0.5c0.4,0.4,0.7,0.9,1.1,1.6L388.2,420.3z M346.2,372.5L346.2,372.5l-6,38.1l21.4-7.3
			L346.2,372.5z"/>
		<path fill="#FF7058" d="M442.8,366.7c0.1,0.3,0.2,0.7,0.3,1.3c0.1,0.6,0.2,1.2,0.3,2c0.1,0.8,0.2,1.5,0.2,2.3c0,0.8,0,1.5-0.1,2.2
			c-0.1,0.7-0.3,1.3-0.6,1.8c-0.3,0.5-0.7,0.8-1.1,1l-18.3,6.2l2.7,21.3c0.1,0.4,0,0.8-0.1,1.2c-0.2,0.4-0.4,0.8-0.9,1.2
			c-0.4,0.4-1,0.8-1.8,1.2c-0.8,0.4-1.7,0.8-2.9,1.2c-1.2,0.4-2.2,0.7-3,0.8c-0.8,0.1-1.5,0.2-2,0.1c-0.5-0.1-0.9-0.2-1.1-0.5
			c-0.3-0.2-0.4-0.6-0.5-1l-2.7-21.3l-18.2,6.2c-0.5,0.2-1.1,0.1-1.5-0.2c-0.5-0.3-0.9-1-1.2-2c-0.1-0.3-0.2-0.7-0.3-1.3
			c-0.1-0.6-0.2-1.2-0.4-1.9c-0.1-0.7-0.2-1.4-0.2-2.2c0-0.7,0-1.4,0.1-2.1c0.1-0.7,0.3-1.2,0.5-1.7c0.3-0.5,0.6-0.8,1.1-1l18.4-6.3
			l-2.8-21.2c-0.1-0.4,0-0.8,0.2-1.3c0.2-0.4,0.5-0.8,0.9-1.2c0.4-0.4,1-0.8,1.8-1.2c0.8-0.4,1.7-0.8,2.9-1.2c1.2-0.4,2.2-0.7,3-0.8
			c0.8-0.1,1.4-0.2,1.9-0.1c0.5,0.1,0.9,0.2,1.1,0.5c0.3,0.3,0.4,0.6,0.5,1.1l2.8,21.2l18.4-6.3c0.5-0.2,1-0.1,1.4,0.2
			C442.2,365.3,442.5,365.9,442.8,366.7z"/>
	</g>
</g>
<path fill="#ACB3BA" d="M253.6,294.5c-0.2,0.9-0.3,1.9-0.5,2.8c2,1.2,3.9,2.7,5.9,4C257.3,298.9,255.5,296.7,253.6,294.5z"/>
</svg>
