<?xml version="1.0" encoding="utf-8"?>
<!-- Generator: Adobe Illustrator 18.0.0, SVG Export Plug-In . SVG Version: 6.00 Build 0)  -->
<!DOCTYPE svg PUBLIC "-//W3C//DTD SVG 1.1//EN" "http://www.w3.org/Graphics/SVG/1.1/DTD/svg11.dtd">
<svg version="1.1" id="Layer_1" xmlns="http://www.w3.org/2000/svg" xmlns:xlink="http://www.w3.org/1999/xlink" x="0px" y="0px"
	 viewBox="0 0 512 512" enable-background="new 0 0 512 512" xml:space="preserve">
<g>
	
		<ellipse transform="matrix(0.9799 -0.1997 0.1997 0.9799 -35.1969 37.0673)" fill="#F8B64C" cx="166.1" cy="193" rx="16.4" ry="31.3"/>
	
		<ellipse transform="matrix(-0.9799 -0.1997 0.1997 -0.9799 646.2353 451.1646)" fill="#F8B64C" cx="345.9" cy="193" rx="16.4" ry="31.3"/>
	<path fill="#F2F2F2" d="M256,403.3L276.9,510l84.6-171.8c-6-3.2-12-6.6-17.9-10c-3.8-2.2-7.6-4.5-11.4-6.8L256,403.3z"/>
	<path fill="#FFD15C" d="M348.9,197.3c0,68.6-41.6,142.6-92.9,142.6c-51.3,0-92.9-74.1-92.9-142.6S204.7,91.5,256,91.5
		C307.3,91.5,348.9,128.7,348.9,197.3z"/>
	<path fill="#F8B64C" d="M321.3,295c-16.8,26.7-39.8,44.9-65.3,44.9c-25.4,0-48.5-18.2-65.2-44.9c-6.7,25.8-10.9,26.4-10.9,26.4
		l76.2,82l76.2-82C332.3,321.4,328,320.8,321.3,295z"/>
	<path fill="#334A5E" d="M343.7,91.5v65.8c-56.3,22.2-119,22.2-175.3,0V91.5C224.6,69.3,287.3,69.3,343.7,91.5z"/>
	<path fill="#F2F2F2" d="M256,403.3L235.1,510l-84.6-171.8c6-3.2,12-6.6,17.9-10c3.8-2.2,7.6-4.5,11.4-6.8L256,403.3z"/>
	<path fill="#CDD6E0" d="M179.8,321.4l76.2,82l-24.9,18.9l-62.8-94.1C172.2,325.9,176,323.7,179.8,321.4z"/>
	<path fill="#CDD6E0" d="M343.7,328.2l-62.8,94.1L256,403.3l76.2-82C336,323.7,339.8,325.9,343.7,328.2z"/>
	<polygon fill="#F8B64C" points="332.1,345.5 332.3,345.3 332.3,345.3 	"/>
	<polygon fill="#40596B" points="285.8,426 256,403.3 226.2,426 241.4,437.5 221.4,510 290.6,510 270.6,437.5 	"/>
	<path fill="#334A5E" d="M361.5,338.2L276.9,510h228.8C520,409.1,440.7,381.2,361.5,338.2z"/>
	<path fill="#334A5E" d="M6.3,510h228.8l-84.6-171.8C71.3,381.2-8,409.1,6.3,510z"/>
	<path fill="#2D4151" d="M343.7,91.5v33.1L256,158.2l-87.7-33.5V91.5C224.6,69.3,287.3,69.3,343.7,91.5z"/>
	<polygon fill="#40596B" points="256,2 73.9,71.6 256,141.1 438.1,71.6 	"/>
	<path fill="#4CDBC4" d="M407.6,148.1c-2.9,0-5.3-2.4-5.3-5.3V76.9H256c-2.9,0-5.3-2.4-5.3-5.3c0-2.9,2.4-5.3,5.3-5.3h151.5
		c2.9,0,5.3,2.4,5.3,5.3v71.2C412.9,145.7,410.5,148.1,407.6,148.1z"/>
	<circle fill="#3DC9AE" cx="407.6" cy="148.1" r="16"/>
	<path fill="#4CDBC4" d="M407.6,164.1c-4.5,0-8.6-1.9-11.5-4.9l-4.5,47h32l-4.5-47C416.2,162.2,412.1,164.1,407.6,164.1z"/>
</g>
</svg>
