<?xml version="1.0" encoding="utf-8"?>
<!-- Generator: Adobe Illustrator 18.0.0, SVG Export Plug-In . SVG Version: 6.00 Build 0)  -->
<!DOCTYPE svg PUBLIC "-//W3C//DTD SVG 1.1//EN" "http://www.w3.org/Graphics/SVG/1.1/DTD/svg11.dtd">
<svg version="1.1" id="Layer_1" xmlns="http://www.w3.org/2000/svg" xmlns:xlink="http://www.w3.org/1999/xlink" x="0px" y="0px"
	 viewBox="0 0 512 512" enable-background="new 0 0 512 512" xml:space="preserve">
<g>
	<path fill="#4CDBC4" d="M465.2,23.2v465.7c0,11.7-9.4,21.2-21.2,21.2H68c-11.6,0-21.2-9.4-21.2-21.2V23.2C46.8,11.5,56.3,2,68,2
		h376C455.8,2,465.2,11.5,465.2,23.2z"/>
	<path fill="#3DC9AE" d="M155.3,510H68c-11.6,0-21.2-9.4-21.2-21.2V23.2C46.8,11.5,56.3,2,68,2h87.3V510z"/>
	<path fill="#3DC9AE" d="M465.2,342.3v146.6c0,11.7-9.4,21.2-21.2,21.2H68c-11.6,0-21.2-9.4-21.2-21.2V342.3H465.2z"/>
	<path fill="#F2F2F2" d="M465.2,481.4V376.2h-356c-11.7,0-21.2,9.5-21.2,21.2v62.9c0,11.7,9.4,21.2,21.2,21.2H465.2z"/>
	<polygon fill="#FF7058" points="206.7,426.1 123.5,426.1 123.5,510 165.1,492 206.7,510 	"/>
	<g>
		<circle fill="#FFFFFF" cx="310.2" cy="137.9" r="37.5"/>
		<path fill="#FFFFFF" d="M341.4,180.5c-8.7,6.4-19.5,10.2-31.1,10.2c-11.6,0-22.4-3.8-31.1-10.2c-23.4,11.5-39.5,35.5-39.5,63.3
			h141.3C380.9,216,364.7,192,341.4,180.5z"/>
	</g>
</g>
</svg>
