<?xml version="1.0" encoding="utf-8"?>
<!-- Generator: Adobe Illustrator 18.0.0, SVG Export Plug-In . SVG Version: 6.00 Build 0)  -->
<!DOCTYPE svg PUBLIC "-//W3C//DTD SVG 1.1//EN" "http://www.w3.org/Graphics/SVG/1.1/DTD/svg11.dtd">
<svg version="1.1" id="Layer_1" xmlns="http://www.w3.org/2000/svg" xmlns:xlink="http://www.w3.org/1999/xlink" x="0px" y="0px"
	 viewBox="0 0 512 512" enable-background="new 0 0 512 512" xml:space="preserve">
<g>
	<path fill="#F2F2F2" d="M256,399.4l21.1,107.8l85.5-173.6c-6-3.3-12.1-6.6-18.1-10.1c-3.8-2.2-7.7-4.5-11.6-6.9L256,399.4z"/>
	<path fill="#F2F2F2" d="M256,399.4l-21.1,107.8l-85.5-173.6c6-3.3,12.1-6.6,18.1-10.1c3.9-2.2,7.7-4.5,11.6-6.9L256,399.4z"/>
	<g>
		<path fill="#CDD6E0" d="M179,316.6l77,82.8l-25.2,19.1l-63.5-95.1C171.3,321.2,175.1,318.9,179,316.6z"/>
		<path fill="#CDD6E0" d="M344.6,323.5l-63.5,95.1L256,399.4l77-82.8C336.8,318.9,340.7,321.2,344.6,323.5z"/>
	</g>
	<polygon fill="#F8B64C" points="332.9,340.9 333.1,340.8 333.1,340.7 	"/>
	<polygon fill="#FF7058" points="286.1,422.3 256,399.4 225.9,422.3 241.2,433.9 221,507.2 291,507.2 270.8,433.9 	"/>
	<path fill="#334A5E" d="M362.6,333.6l-85.5,173.6h231.2C522.8,405.2,442.6,377.1,362.6,333.6z"/>
	<path fill="#334A5E" d="M3.7,507.2h231.2l-85.5-173.6C69.4,377.1-10.8,405.2,3.7,507.2z"/>
	<path fill="#F8B64C" d="M323.4,295.1c-16.1,21.3-36,36-57.8,39.4c-3.1,0.6-6.3,0.9-9.6,0.9l0,0l0,0c0,0-0.1,0-0.1,0
		c-3.2,0-6.4-0.3-9.5-0.8c-21.8-3.4-41.7-18.1-57.8-39.4c-5.9,20.7-9.6,21.5-9.6,21.5l77,82.8l77-82.8
		C333.1,316.6,329.3,315.8,323.4,295.1z"/>
	<g>
		
			<ellipse transform="matrix(0.9895 -0.1448 0.1448 0.9895 -25.5287 23.3039)" fill="#F8B64C" cx="147.4" cy="187.1" rx="21" ry="39"/>
		
			<ellipse transform="matrix(-0.9895 -0.1448 0.1448 -0.9895 698.3726 424.9298)" fill="#F8B64C" cx="364.6" cy="187.1" rx="21" ry="39"/>
		<path fill="#FFD15C" d="M371.4,155.4c0,80.5-51.5,179.9-115.1,179.9c-63.6,0-115.1-99.4-115.1-179.9S192.7,9.6,256.3,9.6
			C319.8,9.6,371.4,74.9,371.4,155.4z"/>
		<path fill="#334A5E" d="M365.8,68.5C340.9-0.3,256.3,4.9,256.3,4.9s-84.6-5.2-109.5,63.6c0,0-15.7,53.1-6.6,99.5h14.4
			c0,0-5.9-78.5,19.7-106c0,0,15.7,25.6,81.9,27.5c66.2-2,81.9-27.5,81.9-27.5c25.6,27.5,19.7,106,19.7,106h14.4
			C381.5,121.6,365.8,68.5,365.8,68.5z"/>
	</g>
	<path fill="#FF7058" d="M288,145.8c-4.8,0.9-9.5,2.2-14.2,3.8c-4.8,1.6-12.4,3.9-16.3,3.8c-1.1,0-2.2,0-3.2,0
		c-3.9,0.1-11.5-2.2-16.3-3.8c-4.6-1.6-9.4-2.9-14.2-3.8c-37-6.9-76.6,2.3-76.6,2.3V162c0,0,5.6-0.5,8.5,16.9c0,0,3.2,26,13.6,31.7
		c0,0,10.4,7.6,36.3,4.5c0.9-0.1,1.9-0.2,2.8-0.3c4.3-0.4,22.1-3.4,32.3-25.7c0,0,2-5,7.2-20.3c0,0,2.5-4.7,7.9-4.5
		c5.4-0.3,7.9,4.5,7.9,4.5c5.2,15.3,7.2,20.3,7.2,20.3c10.2,22.3,28,25.3,32.3,25.7c0.9,0.1,1.9,0.2,2.8,0.3
		c25.9,3.2,36.3-4.5,36.3-4.5c10.4-5.7,13.6-31.7,13.6-31.7c3-17.3,8.5-16.9,8.5-16.9v-13.9C364.6,148.1,325,139,288,145.8z
		 M235.6,181.6c0,0-5.9,22-20.8,26.1c0,0-26.3,7.8-41.2-2.2c0,0-10-6.2-9.7-38.3c0,0-0.9-15.3,19-16.2c0,0,33.5-5.5,51.4,5.8
		C234.2,156.8,243.1,160.6,235.6,181.6z M348.2,167.2c0.2,32.1-9.7,38.3-9.7,38.3c-14.9,10-41.2,2.2-41.2,2.2
		c-14.9-4.2-20.8-26.1-20.8-26.1c-7.5-21,1.4-24.8,1.4-24.8c17.9-11.3,51.4-5.8,51.4-5.8C349.1,151.9,348.2,167.2,348.2,167.2z"/>
	<path fill="#FFFFFF" d="M351.2,153.3h7.9c0.6,0,1.1,0.5,1.1,1.1c0,0.6-0.5,1.1-1.1,1.1h-7.9c-0.6,0-1.1-0.5-1.1-1.1
		C350.1,153.7,350.6,153.3,351.2,153.3z"/>
	<path fill="#FFFFFF" d="M160.8,153.3h-7.9c-0.6,0-1.1,0.5-1.1,1.1c0,0.6,0.5,1.1,1.1,1.1h7.9c0.6,0,1.1-0.5,1.1-1.1
		C161.8,153.7,161.4,153.3,160.8,153.3z"/>
</g>
</svg>
