<?xml version="1.0" encoding="utf-8"?>
<!-- Generator: Adobe Illustrator 18.0.0, SVG Export Plug-In . SVG Version: 6.00 Build 0)  -->
<!DOCTYPE svg PUBLIC "-//W3C//DTD SVG 1.1//EN" "http://www.w3.org/Graphics/SVG/1.1/DTD/svg11.dtd">
<svg version="1.1" id="Layer_1" xmlns="http://www.w3.org/2000/svg" xmlns:xlink="http://www.w3.org/1999/xlink" x="0px" y="0px"
	 viewBox="0 0 512 512" enable-background="new 0 0 512 512" xml:space="preserve">
<g>
	<path fill="#84DBFF" d="M436.4,462.6h-32.7v-96.2h32.7c1.1,0,2,0.9,2,2v92.2C438.4,461.7,437.5,462.6,436.4,462.6z"/>
	<path fill="#334A5E" d="M384,494.2h-39.7c-1.1,0-2-0.9-2-2V336.8c0-1.1,0.9-2,2-2H384V494.2z"/>
	<rect x="384" y="334.8" fill="#40596B" width="19.7" height="159.5"/>
	<path fill="#84DBFF" d="M74.5,462.6h32.7v-96.2H74.5c-1.1,0-2,0.9-2,2v92.2C72.5,461.7,73.4,462.6,74.5,462.6z"/>
	<path fill="#334A5E" d="M126.9,494.2h39.7c1.1,0,2-0.9,2-2V336.8c0-1.1-0.9-2-2-2h-39.7V494.2z"/>
	<rect x="107.3" y="334.8" fill="#40596B" width="19.7" height="159.5"/>
	<path fill="#CDD6E0" d="M59.4,289H25v111.9c0,17,13.8,30.8,30.8,30.8h17.8v-34.5H59.4V289z"/>
	<path fill="#CDD6E0" d="M452.6,289v108.3h-14.2v34.5h17.8c17,0,30.8-13.8,30.8-30.8V289H452.6z"/>
	<path fill="#40596B" d="M499,289h-58.4c-6.1,0-11-4.9-11-11v-1.2c0-93.4-71.6-173.8-164.9-178.4c-99.7-4.9-182.4,74.8-182.4,173.4
		v6.3c0,6.1-4.9,11-11,11H13c-6.1,0-11-4.9-11-11l0,0C2,140.5,108.7,23.2,246.2,18C390.7,12.5,510,128.5,510,271.8v6.3
		C510,284.1,505.1,289,499,289z"/>
</g>
</svg>
