<?xml version="1.0" encoding="utf-8"?>
<!-- Generator: Adobe Illustrator 18.0.0, SVG Export Plug-In . SVG Version: 6.00 Build 0)  -->
<!DOCTYPE svg PUBLIC "-//W3C//DTD SVG 1.1//EN" "http://www.w3.org/Graphics/SVG/1.1/DTD/svg11.dtd">
<svg version="1.1" id="Layer_1" xmlns="http://www.w3.org/2000/svg" xmlns:xlink="http://www.w3.org/1999/xlink" x="0px" y="0px"
	 viewBox="0 0 512 512" enable-background="new 0 0 512 512" xml:space="preserve">
<g>
	<path fill="#FFD15C" d="M424.7,170.7c0,46-18.5,87.8-48.4,118.2c-19.2,19.6-32.2,43.9-37,70.4c-2.1-0.7-4.4-1.3-6.7-1.3H179.5
		c-2.3,0-4.6,0.5-6.7,1.2c-4.6-26.1-17.1-50.3-36.2-69.3c-32.2-32.2-51.5-77.3-49.2-127v-0.1C91.4,76.9,162.1,6.1,248.1,2.2
		c95-4.4,173.8,69.9,176.5,163.3c0,0.1,0,0.1,0,0.2C424.7,167.4,424.7,169,424.7,170.7z"/>
	<path fill="#334A5E" d="M198.9,468v20.7c0,11.7,9.5,21.3,21.3,21.3H292c11.7,0,21.3-9.5,21.3-21.3V468H198.9z"/>
	<path fill="#40596B" d="M353.9,379.4v67.4c0,1.7-0.2,3.4-0.6,5c-2.2,9.4-10.6,16.3-20.6,16.3H179.5c-10.1,0-18.4-6.9-20.6-16.3
		c-0.4-1.6-0.6-3.3-0.6-5v-67.4c0-1.7,0.2-3.4,0.6-5c2.2-9.4,10.5-16.3,20.6-16.3h153.1c10,0,18.4,6.9,20.6,16.3
		C353.7,376,353.9,377.7,353.9,379.4z"/>
	<path fill="#FFFFFF" d="M299,208h-3.7c-15.7,0-28.4,12.7-28.4,28.4v21.5h-21.7v-21.5c0-15.7-12.7-28.4-28.4-28.4h-3.7
		c-15.7,0-28.4,12.7-28.4,28.4v3.7c0,15.7,12.7,28.4,28.4,28.4h21.5v89.6h10.6v-89.6h21.7v89.6h10.6v-89.6H299
		c15.7,0,28.4-12.7,28.4-28.4v-3.7C327.4,220.7,314.7,208,299,208z M213.1,257.9c-9.8,0-17.8-8-17.8-17.8v-3.7
		c0-9.8,8-17.8,17.8-17.8h3.7c9.8,0,17.8,8,17.8,17.8v21.5H213.1z M316.8,240.1c0,9.8-8,17.8-17.8,17.8h-21.5v-21.5
		c0-9.8,8-17.8,17.8-17.8h3.7c9.8,0,17.8,8,17.8,17.8V240.1z"/>
	<path fill="#CDD6E0" d="M353.9,405.7v19.8H158.3v-19.8c0-1.7,0.2-3.4,0.6-5h194.4C353.7,402.3,353.9,404,353.9,405.7z"/>
</g>
</svg>
