<?xml version="1.0" encoding="utf-8"?>
<!-- Generator: Adobe Illustrator 18.0.0, SVG Export Plug-In . SVG Version: 6.00 Build 0)  -->
<!DOCTYPE svg PUBLIC "-//W3C//DTD SVG 1.1//EN" "http://www.w3.org/Graphics/SVG/1.1/DTD/svg11.dtd">
<svg version="1.1" id="Layer_1" xmlns="http://www.w3.org/2000/svg" xmlns:xlink="http://www.w3.org/1999/xlink" x="0px" y="0px"
	 viewBox="0 0 512 512" enable-background="new 0 0 512 512" xml:space="preserve">
<g>
	<path fill="#334A5E" d="M398.4,2H113.6c-11.7,0-21.2,9.5-21.2,21.2v465.7c0,11.7,9.5,21.2,21.2,21.2h284.8
		c11.7,0,21.2-9.5,21.2-21.2V23.2C419.6,11.5,410.1,2,398.4,2z"/>
	<rect x="129" y="60.2" fill="#54C0EB" width="254" height="367"/>
	<polygon fill="#84DBFF" points="129,427.3 129,60.2 383,60.2 	"/>
	<circle fill="#ABB2B9" cx="256" cy="468.6" r="23.5"/>
	<path fill="#ABB2B9" d="M289.8,24.9h-67.7c-3.4,0-6.2,2.8-6.2,6.2c0,3.4,2.8,6.2,6.2,6.2h67.7c3.4,0,6.2-2.8,6.2-6.2
		C296,27.7,293.2,24.9,289.8,24.9z"/>
</g>
</svg>
