<?xml version="1.0" encoding="utf-8"?>
<!-- Generator: Adobe Illustrator 18.0.0, SVG Export Plug-In . SVG Version: 6.00 Build 0)  -->
<!DOCTYPE svg PUBLIC "-//W3C//DTD SVG 1.1//EN" "http://www.w3.org/Graphics/SVG/1.1/DTD/svg11.dtd">
<svg version="1.1" id="Layer_1" xmlns="http://www.w3.org/2000/svg" xmlns:xlink="http://www.w3.org/1999/xlink" x="0px" y="0px"
	 viewBox="0 0 512 512" enable-background="new 0 0 512 512" xml:space="preserve">
<g>
	<polygon fill="#54C0EB" points="199,149.1 302.9,149.1 241.2,2 137.3,2 	"/>
	<circle fill="#FFD15C" cx="256" cy="340.9" r="169.1"/>
	<path fill="#FF7058" d="M188.2,186h-1.6v-26.8c0-5.5,4.5-10,10-10h118.7c5.5,0,10,4.5,10,10V186h-1.6c7.5,3.3,14.7,7.2,21.6,11.5
		v-38.3c0-16.6-13.5-30.1-30.1-30.1H196.7c-16.6,0-30.1,13.5-30.1,30.1v38.3C173.5,193.2,180.7,189.3,188.2,186z"/>
	<circle fill="#F8B64C" cx="256" cy="340.9" r="122.3"/>
	<path fill="#FFFFFF" d="M339.3,317.2h-56.4c-2.2,0-4.1-1.4-4.7-3.4l-17.4-53.6c-1.5-4.6-8-4.6-9.5,0l-17.4,53.6
		c-0.7,2.1-2.6,3.4-4.7,3.4h-56.4c-4.8,0-6.8,6.2-2.9,9l45.6,33.1c1.7,1.3,2.5,3.5,1.8,5.6l-17.4,53.6c-1.5,4.6,3.8,8.4,7.7,5.6
		l45.6-33.1c1.7-1.3,4.1-1.3,5.9,0l45.6,33.1c3.9,2.8,9.1-1,7.7-5.6l-17.4-53.6c-0.7-2.1,0.1-4.3,1.8-5.6l45.6-33.1
		C346.1,323.4,344.1,317.2,339.3,317.2z"/>
	<polygon fill="#84DBFF" points="313,149.1 209.1,149.1 270.8,2 374.7,2 	"/>
</g>
</svg>
