<?xml version="1.0" encoding="utf-8"?>
<!-- Generator: Adobe Illustrator 18.0.0, SVG Export Plug-In . SVG Version: 6.00 Build 0)  -->
<!DOCTYPE svg PUBLIC "-//W3C//DTD SVG 1.1//EN" "http://www.w3.org/Graphics/SVG/1.1/DTD/svg11.dtd">
<svg version="1.1" id="Layer_1" xmlns="http://www.w3.org/2000/svg" xmlns:xlink="http://www.w3.org/1999/xlink" x="0px" y="0px"
	 viewBox="0 0 512 512" enable-background="new 0 0 512 512" xml:space="preserve">
<g>
	<g>
		<path fill="#40596B" d="M488.8,106.6H23.2c-11.7,0-21.2,9.5-21.2,21.2v304.9c0,11.7,9.5,21.2,21.2,21.2h465.7
			c11.7,0,21.2-9.5,21.2-21.2V127.8C510,116.1,500.5,106.6,488.8,106.6z"/>
		<path fill="#F2F2F2" d="M256,81.1v345c-73.7-30.5-156.4-30.5-230.1,0v-345c10.6-4.3,21.4-8.2,32.3-11.2c18.3-5.3,37.1-8.8,56-10.5
			C162.2,55.1,210.9,62.3,256,81.1z"/>
		<path fill="#ACB3BA" d="M26,426.1h230C182.4,395.6,99.6,395.6,26,426.1z"/>
		<path fill="#CDD6E0" d="M486,426.1c-73.6-30.5-156.4-30.5-230,0c0-115,0-230,0-345.1c73.6-30.5,156.4-30.5,230,0
			C486,196.1,486,311.1,486,426.1z"/>
		<path fill="#ACB3BA" d="M256,426.1h230C412.4,395.6,329.6,395.6,256,426.1z"/>
		<path fill="#40596B" d="M274.7,130.2c0,4.8,0,9.6,0,14.4c61.7-25.5,130.9-25.5,192.6,0c0-4.8,0-9.6,0-14.4
			C405.7,104.6,336.4,104.6,274.7,130.2z"/>
		<path fill="#40596B" d="M274.7,162.7c0,4.8,0,9.6,0,14.4c61.7-25.5,130.9-25.5,192.6,0c0-4.8,0-9.6,0-14.4
			C405.7,137.2,336.4,137.2,274.7,162.7z"/>
		<path fill="#40596B" d="M274.7,195.2c0,4.8,0,9.6,0,14.4c61.7-25.5,130.9-25.5,192.6,0c0-4.8,0-9.6,0-14.4
			C405.7,169.7,336.4,169.7,274.7,195.2z"/>
		<path fill="#40596B" d="M274.7,227.8c0,4.8,0,9.6,0,14.4c61.7-25.5,130.9-25.5,192.6,0c0-4.8,0-9.6,0-14.4
			C405.7,202.2,336.4,202.2,274.7,227.8z"/>
		<path fill="#CDD6E0" d="M44.7,275.2c0,4.8,0,9.6,0,14.4c61.7-25.5,130.9-25.5,192.6,0c0-4.8,0-9.6,0-14.4
			C175.6,249.7,106.4,249.7,44.7,275.2z"/>
		<path fill="#CDD6E0" d="M44.7,307.7c0,4.8,0,9.6,0,14.4c61.7-25.5,130.9-25.5,192.6,0c0-4.8,0-9.6,0-14.4
			C175.6,282.2,106.4,282.2,44.7,307.7z"/>
		<path fill="#84DBFF" d="M240.2,228.5c-28.5-16.2-60.5-21.2-89-13.8c0-36.2,0-72.4,0-108.7c28.5-7.4,60.5-2.4,89,13.8
			C240.2,156.1,240.2,192.3,240.2,228.5z"/>
	</g>
	<path fill="#FF7058" d="M114.2,59.9v102.2l-27.9-17l-28,17V70.4C76.6,65.1,95.4,61.6,114.2,59.9z"/>
</g>
</svg>
