<?xml version="1.0" encoding="utf-8"?>
<!-- Generator: Adobe Illustrator 18.0.0, SVG Export Plug-In . SVG Version: 6.00 Build 0)  -->
<!DOCTYPE svg PUBLIC "-//W3C//DTD SVG 1.1//EN" "http://www.w3.org/Graphics/SVG/1.1/DTD/svg11.dtd">
<svg version="1.1" id="Layer_1" xmlns="http://www.w3.org/2000/svg" xmlns:xlink="http://www.w3.org/1999/xlink" x="0px" y="0px"
	 viewBox="0 0 512 512" enable-background="new 0 0 512 512" xml:space="preserve">
<g>
	<path fill="#334A5E" d="M439.2,245.9c0,117.7-82,213.1-183.2,213.1S72.8,363.6,72.8,245.9S154.8,77.8,256,77.8
		S439.2,128.2,439.2,245.9z"/>
	<ellipse fill="#CDD6E0" cx="256" cy="261.1" rx="147.2" ry="231.6"/>
	<circle fill="#F2F2F2" cx="256" cy="132.5" r="130.5"/>
	<path fill="#FFD15C" d="M256,96.2l-45,47.9l41.1,76.4c1.8,3.3,6,3.3,7.8,0l41.1-76.4L256,96.2z"/>
	<path fill="#334A5E" d="M359.4,87.7c-10-17.1-28.6-28.5-49.9-28.5c-29.9,0-54.5,22.5-57.7,51.4c0,0.3,0,0.5,0,0.8
		c0.1,35.8,13.2,53.3,32.5,60.4c40.3,14.8,85.4-14.2,83.4-57.1C367.2,104.9,364.3,95.7,359.4,87.7z"/>
	<path fill="#334A5E" d="M202.5,59.2c-21.3,0-58.2,17.8-58.2,58.2c0,32.2,26,58.3,58.2,58.3c32.2,0,58-12.9,58-64.6
		C260.4,81.8,232.5,59.2,202.5,59.2z"/>
	<circle fill="#FFFFFF" cx="309.5" cy="117.5" r="39"/>
	<path fill="#54C0EB" d="M309.5,141.9c-13.4,0-24.4-10.9-24.4-24.4s10.9-24.4,24.4-24.4c13.4,0,24.4,10.9,24.4,24.4
		S323,141.9,309.5,141.9z"/>
	<path fill="#40596B" d="M309.5,129.7c-6.7,0-12.2-5.5-12.2-12.2s5.5-12.2,12.2-12.2c6.7,0,12.2,5.5,12.2,12.2
		S316.3,129.7,309.5,129.7z"/>
	<path fill="#FFFFFF" d="M318.4,117.4c-4.3,0-7.8-3.5-7.8-7.8c0-4.3,3.5-7.8,7.8-7.8c4.3,0,7.8,3.5,7.8,7.8
		C326.3,113.9,322.7,117.4,318.4,117.4z"/>
	<circle fill="#FFFFFF" cx="202.5" cy="117.5" r="39"/>
	<path fill="#54C0EB" d="M202.5,141.9c-13.4,0-24.4-10.9-24.4-24.4s10.9-24.4,24.4-24.4c13.4,0,24.4,10.9,24.4,24.4
		S215.9,141.9,202.5,141.9z"/>
	<path fill="#40596B" d="M202.5,129.7c-6.7,0-12.2-5.5-12.2-12.2s5.5-12.2,12.2-12.2c6.7,0,12.2,5.5,12.2,12.2
		S209.2,129.7,202.5,129.7z"/>
	<path fill="#FFFFFF" d="M211.4,117.4c-4.3,0-7.8-3.5-7.8-7.8c0-4.3,3.5-7.8,7.8-7.8c4.3,0,7.8,3.5,7.8,7.8
		C219.2,113.9,215.7,117.4,211.4,117.4z"/>
	<path opacity="0.2" fill="#1A2730" d="M309.5,59.2c-24.2,0-44.7,14.9-53.5,35.8c-8.8-21-29.4-35.8-53.6-35.8
		c-21.3,0-39.9,11.4-49.9,28.5c4.9,1.1,10.1,1.6,15.3,1.6c3.4,0,6.6-0.3,10-0.8c5.5-0.8,11.1-1.1,16.6-1.1
		c21.2,0,39.8,5.4,55.3,16.2l6.2,4.3l6.2-4.3c15.4-10.8,34.1-16.2,55.3-16.2c5.5,0,11.2,0.3,16.6,1.1c3.4,0.4,6.7,0.8,10,0.8
		c5.2,0,10.4-0.5,15.3-1.6C349.4,70.7,330.8,59.2,309.5,59.2z"/>
	<path fill="#40596B" d="M256,94.8c0,0,11.9-34.4,58-38.8c20.9-2,40.1-13.7,51-31.6c0.1-0.2,0.3-0.5,0.4-0.7c0,0,5.7,10.8-5.7,25.7
		c0,0,24.2-6.7,31.9-36.5c0,0,14.2,35.1-16.3,56.2c-11.5,7.9-25.9,10.6-39.7,8.7C317.9,75.4,284.9,74.6,256,94.8z"/>
	<path fill="#40596B" d="M256,94.8c0,0-11.9-34.4-58-38.8c-20.9-2-40.1-13.7-51-31.6c-0.1-0.2-0.3-0.5-0.4-0.7
		c0,0-5.7,10.8,5.7,25.7c0,0-24.2-6.7-31.9-36.5c0,0-14.2,35.1,16.3,56.2c11.5,7.9,25.9,10.6,39.7,8.7
		C194.1,75.4,227.1,74.6,256,94.8z"/>
	<g>
		<ellipse fill="#40596B" cx="204.7" cy="482.6" rx="8.4" ry="18.9"/>
		<ellipse fill="#40596B" cx="221.6" cy="486.8" rx="8.4" ry="23.2"/>
		<ellipse fill="#40596B" cx="238.4" cy="482.6" rx="8.4" ry="18.9"/>
		<ellipse fill="#40596B" cx="273.6" cy="482.6" rx="8.4" ry="18.9"/>
		<ellipse fill="#40596B" cx="290.4" cy="486.8" rx="8.4" ry="23.2"/>
		<ellipse fill="#40596B" cx="307.3" cy="482.6" rx="8.4" ry="18.9"/>
	</g>
</g>
</svg>
