<?xml version="1.0" encoding="utf-8"?>
<!-- Generator: Adobe Illustrator 18.0.0, SVG Export Plug-In . SVG Version: 6.00 Build 0)  -->
<!DOCTYPE svg PUBLIC "-//W3C//DTD SVG 1.1//EN" "http://www.w3.org/Graphics/SVG/1.1/DTD/svg11.dtd">
<svg version="1.1" id="Layer_1" xmlns="http://www.w3.org/2000/svg" xmlns:xlink="http://www.w3.org/1999/xlink" x="0px" y="0px"
	 viewBox="0 0 512 512" enable-background="new 0 0 512 512" xml:space="preserve">
<g>
	<path fill="#ACB3BA" d="M35.1,171.7H18.5v-48c0-5.8,4.7-10.6,10.6-10.6H62v16.6H35.1V171.7z"/>
	<path fill="#40596B" d="M50.7,259.2H3c-0.6,0-1-0.4-1-1v-85.5c0-0.6,0.4-1,1-1h47.7c0.6,0,1,0.4,1,1v85.5
		C51.7,258.7,51.2,259.2,50.7,259.2z"/>
	<path fill="#ACB3BA" d="M493.5,171.7h-16.6v-42H450v-16.6h32.9c5.8,0,10.6,4.7,10.6,10.6V171.7z"/>
	<path fill="#40596B" d="M461.3,259.2H509c0.6,0,1-0.4,1-1v-85.5c0-0.6-0.4-1-1-1h-47.7c-0.6,0-1,0.4-1,1v85.5
		C460.3,258.7,460.8,259.2,461.3,259.2z"/>
	<path fill="#FFD15C" d="M473.1,329.9l0,99.2c0,12.2-9.9,22.1-22.1,22.1H61c-12.2,0-22.1-9.9-22.1-22.1v-99.3
		c0-10.7,4-20.9,11.3-28.7v0c7.3-7.8,11.3-18.1,11.3-28.7V75.2c0-36.1,29.3-65.4,65.4-65.4h257.9c36.1,0,65.4,29.3,65.4,65.4v197.1
		c0,10.7,4.1,21,11.4,28.8l0,0C469,309,473.1,319.2,473.1,329.9z"/>
	<rect x="83.9" y="110.5" fill="#FFFFFF" width="159.4" height="129.2"/>
	<rect x="268.7" y="110.5" fill="#FFFFFF" width="159.4" height="129.2"/>
	<path fill="#FF7058" d="M333.6,70.5H178.4c-0.8,0-1.4-0.6-1.4-1.4V40c0-0.8,0.6-1.4,1.4-1.4h155.2c0.8,0,1.4,0.6,1.4,1.4V69
		C335.1,69.8,334.4,70.5,333.6,70.5z"/>
	<path fill="#F8B64C" d="M345.3,451.2H166.7V340c0-1.1,0.9-2,2-2h174.6c1.1,0,2,0.9,2,2V451.2z"/>
	<circle fill="#FFFFFF" cx="111.1" cy="378.8" r="37.9"/>
	<circle fill="#FFFFFF" cx="399" cy="378.8" r="37.9"/>
	<path fill="#40596B" d="M137.2,451.3v40.3c0,5.9-4.8,10.6-10.6,10.6H74.6c-5.9,0-10.6-4.7-10.6-10.6v-40.3H137.2z"/>
	<path fill="#40596B" d="M448.1,451.3v40.3c0,5.9-4.8,10.6-10.6,10.6h-52.2c-5.8,0-10.6-4.7-10.6-10.6v-40.3H448.1z"/>
	<path fill="#40596B" d="M193.4,372.8L193.4,372.8c0,6.4,5.2,11.5,11.5,11.5h102.1c6.4,0,11.5-5.2,11.5-11.5l0,0
		c0-6.4-5.2-11.5-11.5-11.5H204.9C198.6,361.3,193.4,366.5,193.4,372.8z"/>
	<path fill="#40596B" d="M193.4,416.4L193.4,416.4c0,6.4,5.2,11.5,11.5,11.5h102.1c6.4,0,11.5-5.2,11.5-11.5l0,0
		c0-6.4-5.2-11.5-11.5-11.5H204.9C198.6,404.9,193.4,410.1,193.4,416.4z"/>
	<circle fill="#54C0EB" cx="399" cy="378.8" r="26.1"/>
	<path fill="#84DBFF" d="M380.6,360.4c-10.2,10.2-10.2,26.7,0,36.9l36.9-36.9C407.3,350.2,390.8,350.2,380.6,360.4z"/>
	<circle fill="#54C0EB" cx="111.1" cy="378.8" r="26.1"/>
	<path fill="#84DBFF" d="M92.7,360.4c-10.2,10.2-10.2,26.7,0,36.9l36.9-36.9C119.4,350.2,102.9,350.2,92.7,360.4z"/>
	<rect x="64" y="451.3" fill="#334A5E" width="73.2" height="15.9"/>
	<rect x="374.7" y="451.3" fill="#334A5E" width="73.3" height="15.9"/>
</g>
</svg>
