<?xml version="1.0" encoding="utf-8"?>
<!-- Generator: Adobe Illustrator 18.0.0, SVG Export Plug-In . SVG Version: 6.00 Build 0)  -->
<!DOCTYPE svg PUBLIC "-//W3C//DTD SVG 1.1//EN" "http://www.w3.org/Graphics/SVG/1.1/DTD/svg11.dtd">
<svg version="1.1" id="Layer_1" xmlns="http://www.w3.org/2000/svg" xmlns:xlink="http://www.w3.org/1999/xlink" x="0px" y="0px"
	 viewBox="0 0 512 512" enable-background="new 0 0 512 512" xml:space="preserve">
<g>
	<polygon fill="#F2F2F2" points="502.2,398.7 391.2,509.7 151.8,270.3 2.2,120.7 113.2,9.7 262.8,159.3 	"/>
	<polygon fill="#CDD6E0" points="434.2,466.7 391.2,509.7 151.8,270.3 2.2,120.7 45.2,77.6 194.8,227.3 	"/>
	
		<rect x="116.5" y="28.2" transform="matrix(-0.7071 -0.7071 0.7071 -0.7071 170.732 175.4471)" fill="#CDD6E0" width="10.4" height="48.3"/>
	
		<rect x="145.7" y="75" transform="matrix(-0.7071 0.7071 -0.7071 -0.7071 332.2975 22.745)" fill="#CDD6E0" width="31.5" height="10.4"/>
	
		<rect x="165.1" y="114.7" transform="matrix(-0.7071 0.7071 -0.7071 -0.7071 407.9041 70.9)" fill="#CDD6E0" width="48.3" height="10.4"/>
	
		<rect x="213.3" y="142.6" transform="matrix(-0.7071 0.7071 -0.7071 -0.7071 495.4162 90.3122)" fill="#CDD6E0" width="31.5" height="10.4"/>
	
		<rect x="232.7" y="182.3" transform="matrix(-0.7071 0.7071 -0.7071 -0.7071 571.0226 138.4659)" fill="#CDD6E0" width="48.3" height="10.4"/>
	
		<rect x="280.8" y="210.1" transform="matrix(-0.7071 0.7071 -0.7071 -0.7071 658.5348 157.8854)" fill="#CDD6E0" width="31.5" height="10.4"/>
	
		<rect x="300.2" y="249.9" transform="matrix(-0.7071 0.7071 -0.7071 -0.7071 734.141 206.0319)" fill="#CDD6E0" width="48.3" height="10.4"/>
	
		<rect x="348.4" y="277.7" transform="matrix(-0.7071 0.7071 -0.7071 -0.7071 821.6533 225.4549)" fill="#CDD6E0" width="31.5" height="10.4"/>
	
		<rect x="367.8" y="317.4" transform="matrix(-0.7071 0.7071 -0.7071 -0.7071 897.2419 273.5905)" fill="#CDD6E0" width="48.3" height="10.4"/>
	
		<rect x="415.9" y="345.2" transform="matrix(-0.7071 0.7071 -0.7071 -0.7071 984.754 293.0144)" fill="#CDD6E0" width="31.5" height="10.4"/>
	
		<rect x="435.4" y="385" transform="matrix(-0.7071 0.7071 -0.7071 -0.7071 1060.3605 341.1564)" fill="#CDD6E0" width="48.3" height="10.4"/>
	
		<rect x="184" y="191.9" transform="matrix(0.7071 -0.7071 0.7071 0.7071 -114.0622 264.7721)" opacity="0.2" fill="#40596B" width="157.1" height="156.3"/>
	<polygon fill="#FFD15C" points="140,482.4 56.1,499 2.4,509.6 13,455.8 29.5,371.8 	"/>
	<polygon fill="#334A5E" points="56.1,499 2.4,509.6 13,455.8 	"/>
	
		<rect x="152.2" y="75.5" transform="matrix(0.7071 0.7071 -0.7071 0.7071 266.5067 -80.4719)" fill="#84DBFF" width="156.3" height="411.9"/>
	
		<rect x="314" y="96.8" transform="matrix(0.7071 0.7071 -0.7071 0.7071 199.4954 -242.2553)" fill="#FF7058" width="156.3" height="45.7"/>
	<path fill="#40596B" d="M509.2,110.3L401.5,2.6c-0.8-0.8-2-0.8-2.8,0l-45.6,45.6l110.5,110.5l45.6-45.6
		C510,112.4,510,111.1,509.2,110.3z"/>
	
		<rect x="199.8" y="75.5" transform="matrix(0.7071 0.7071 -0.7071 0.7071 266.5041 -80.4722)" fill="#54C0EB" width="61.1" height="411.9"/>
</g>
</svg>
