<?xml version="1.0" encoding="utf-8"?>
<!-- Generator: Adobe Illustrator 18.0.0, SVG Export Plug-In . SVG Version: 6.00 Build 0)  -->
<!DOCTYPE svg PUBLIC "-//W3C//DTD SVG 1.1//EN" "http://www.w3.org/Graphics/SVG/1.1/DTD/svg11.dtd">
<svg version="1.1" id="Layer_1" xmlns="http://www.w3.org/2000/svg" xmlns:xlink="http://www.w3.org/1999/xlink" x="0px" y="0px"
	 viewBox="0 0 512 512" enable-background="new 0 0 512 512" xml:space="preserve">
<g>
	<polygon fill="#F8B64C" points="263.2,275.7 248.8,275.7 233.7,344.5 278.2,344.5 	"/>
	<path fill="#FF7058" d="M477.2,91.5c-2.5-13.3-7.6-24.9-14.7-34.3c-7.1-9.4-16.2-16.6-27.2-21.2c-10.8-4.6-22.5-6.1-34.5-4.7v30.7
		c9.5-2,17.5,0,21.6,1.8c11.7,4.9,20,16.6,23.2,33c3.6,18.6,0.2,40.2-9.4,60.9c-9.6,20.6-24.2,37.6-41.2,47.6
		c-5.1,3.1-10.2,5.3-15,6.8c-5.3,11.2-11.4,22-18.5,32.1c1.8,0.1,3.6,0.2,5.4,0.2c14.8,0,30.2-4.4,45.2-13.3
		c22.3-13.2,41.3-34.9,53.6-61.1C477.8,143.9,481.9,116,477.2,91.5z"/>
	<path fill="#FF7058" d="M132,212.1c-4.9-1.4-9.8-3.6-14.9-6.7c-16.9-10.1-31.5-27-41.3-47.6c-9.6-20.6-12.9-42.2-9.4-60.9
		c3.2-16.4,11.4-28.2,23.2-33c4.2-1.8,12.3-3.5,21.6-1.8V31.4c-2.8-0.4-5.4-0.5-8.1-0.5c-9.1,0-18,1.7-26.4,5.2
		c-21.8,9.1-36.7,28.8-41.8,55.5c-4.8,24.4-0.6,52.4,11.5,78.5c12.3,26.1,31.3,47.8,53.6,61.1c15,8.9,30.5,13.3,45.2,13.3
		c1.8,0,3.7-0.1,5.5-0.2C143.5,234.1,137.3,223.4,132,212.1z"/>
	<path fill="#F8B64C" d="M392.5,2H119.4c-7.2,0-13,5.8-13,13l0,0c0,7.2,5.8,13,13,13h273.1c7.2,0,13-5.8,13-13l0,0
		C405.5,7.8,399.7,2,392.5,2z"/>
	<path fill="#FFD15C" d="M400.8,24.8v94.3c0,92.3-57.9,174.7-144.8,206c-86.9-31.2-144.9-113.7-144.9-206V24.8
		c2.2,1.9,5.1,3.3,8.3,3.3h273.2C395.7,28,398.6,26.7,400.8,24.8z"/>
	<path fill="#40596B" d="M387.6,383.5H124.4c-11.7,0-21.2,9.5-21.2,21.2V510h305.5V404.7C408.8,393,399.3,383.5,387.6,383.5z"/>
	<path fill="#ACB3BA" d="M287.4,344.5h-62.9c-11.7,0-21.2,9.5-21.2,21.2v17.9h105.2v-17.9C308.6,354,299.1,344.5,287.4,344.5z"/>
	<path fill="#EFAB48" d="M400.8,24.8v12.4c-2.5,1-5.3,1.5-8.3,1.5H119.4c-2.9,0-5.7-0.5-8.3-1.5V24.8c2.2,1.9,5.1,3.3,8.3,3.3h273.2
		C395.7,28,398.6,26.7,400.8,24.8z"/>
	<path fill="#FFFFFF" d="M342.2,134.8c4-2.9,1.9-9.1-3-9.1H283c-2.2,0-4.1-1.4-4.8-3.5l-17.4-53.5c-1.5-4.6-8.1-4.6-9.6,0
		l-17.4,53.5c-0.7,2.1-2.6,3.5-4.8,3.5h-56.3c-4.9,0-6.9,6.3-3,9.1l45.5,33.1c1.8,1.3,2.5,3.6,1.8,5.6l-17.4,53.5
		c-1.5,4.6,3.8,8.5,7.8,5.6l45.5-33.1c1.8-1.3,4.2-1.3,5.9,0l45.5,33.1c4,2.9,9.3-1,7.8-5.6l-17.4-53.5c-0.7-2.1,0.1-4.4,1.8-5.6
		L342.2,134.8z"/>
</g>
</svg>
