<?xml version="1.0" encoding="utf-8"?>
<!-- Generator: Adobe Illustrator 18.0.0, SVG Export Plug-In . SVG Version: 6.00 Build 0)  -->
<!DOCTYPE svg PUBLIC "-//W3C//DTD SVG 1.1//EN" "http://www.w3.org/Graphics/SVG/1.1/DTD/svg11.dtd">
<svg version="1.1" id="Layer_1" xmlns="http://www.w3.org/2000/svg" xmlns:xlink="http://www.w3.org/1999/xlink" x="0px" y="0px"
	 viewBox="0 0 512 512" enable-background="new 0 0 512 512" xml:space="preserve">
<g>
	<path fill="#F2F2F2" d="M510,122.3H2V508c0,1.1,0.9,2,2,2h504c1.1,0,2-0.9,2-2V122.3z"/>
	<path fill="#FF7058" d="M510,122.3H2V4c0-1.1,0.9-2,2-2h504c1.1,0,2,0.9,2,2V122.3z"/>
	<rect x="160.8" y="175.2" fill="#CDD6E0" width="84.7" height="54.6"/>
	<rect x="266.6" y="175.2" fill="#CDD6E0" width="84.7" height="54.6"/>
	<rect x="372.4" y="175.2" fill="#CDD6E0" width="84.7" height="54.6"/>
	<rect x="54.9" y="251" fill="#CDD6E0" width="84.7" height="54.6"/>
	<rect x="160.8" y="251" fill="#CDD6E0" width="84.7" height="54.6"/>
	<rect x="266.6" y="251" fill="#CDD6E0" width="84.7" height="54.6"/>
	<rect x="372.4" y="251" fill="#CDD6E0" width="84.7" height="54.6"/>
	<rect x="54.9" y="326.7" fill="#FF7058" width="84.7" height="54.6"/>
	<rect x="160.8" y="326.7" fill="#CDD6E0" width="84.7" height="54.6"/>
	<rect x="266.6" y="326.7" fill="#CDD6E0" width="84.7" height="54.6"/>
	<rect x="372.4" y="326.7" fill="#CDD6E0" width="84.7" height="54.6"/>
	<rect x="54.9" y="402.5" fill="#CDD6E0" width="84.7" height="54.6"/>
	<rect x="160.8" y="402.5" fill="#CDD6E0" width="84.7" height="54.6"/>
	<rect x="266.6" y="402.5" fill="#CDD6E0" width="84.7" height="54.6"/>
	<g>
		<circle fill="#FFFFFF" cx="117.1" cy="62.1" r="19.8"/>
		<circle fill="#FFFFFF" cx="394.9" cy="62.1" r="19.8"/>
	</g>
	<path fill="#FFD15C" d="M381.1,73H130.9c-6,0-10.8-4.8-10.8-10.8l0,0c0-6,4.8-10.8,10.8-10.8h250.2c6,0,10.8,4.8,10.8,10.8l0,0
		C391.9,68.1,387.1,73,381.1,73z"/>
</g>
</svg>
