<?xml version="1.0" encoding="utf-8"?>
<!-- Generator: Adobe Illustrator 18.0.0, SVG Export Plug-In . SVG Version: 6.00 Build 0)  -->
<!DOCTYPE svg PUBLIC "-//W3C//DTD SVG 1.1//EN" "http://www.w3.org/Graphics/SVG/1.1/DTD/svg11.dtd">
<svg version="1.1" id="Layer_1" xmlns="http://www.w3.org/2000/svg" xmlns:xlink="http://www.w3.org/1999/xlink" x="0px" y="0px"
	 viewBox="0 0 512 512" enable-background="new 0 0 512 512" xml:space="preserve">
<g>
	<path fill="#40596B" d="M488.8,84.7H23.2C11.5,84.7,2,94.2,2,105.8v300.3c0,11.7,9.5,21.2,21.2,21.2h465.7
		c11.7,0,21.2-9.5,21.2-21.2V105.8C510,94.2,500.5,84.7,488.8,84.7z"/>
	<path fill="#F2F2F2" d="M478.3,151.4L478.3,151.4c10.2-9.6,10.2-25.3,0-34.9v0h0l0,0l0,0c-10.2-10.2-26.8-10.2-37,0l0,0l0,0h0l0,0
		l0,0c-10.2-10.2-26.8-10.2-37,0l0,0l0,0h0l0,0l0,0c-10.2-10.2-26.8-10.2-37,0l0,0l0,0h0l0,0l0,0c-10.2-10.2-26.8-10.2-37,0l0,0l0,0
		h0l0,0l0,0c-10.2-10.2-26.8-10.2-37,0l0,0l0,0h0l0,0l0,0c-10.2-10.2-26.8-10.2-37,0c-10.2-10.2-26.8-10.2-37,0l0,0l0,0h0l0,0l0,0
		c-10.2-10.2-26.8-10.2-37,0l0,0l0,0h0l0,0l0,0c-10.2-10.2-26.8-10.2-37,0l0,0l0,0h0l0,0l0,0c-10.2-10.2-26.8-10.2-37,0l0,0l0,0h0
		l0,0l0,0c-10.2-10.2-26.8-10.2-37,0l0,0l0,0h0l0,0l0,0c-10.2-10.2-26.8-10.2-37,0l0,0l0,0h0l0,0l0,0c-10.2,9.6-10.2,25.3,0,34.9
		l0,0v0l0,0c-10.2,9.6-10.2,25.3,0,34.9l0,0v0h0c-10.2,9.6-10.2,25.3,0,34.9h0v0h0c-10.2,9.6-10.2,25.3,0,34.9h0v0h0
		c-10.2,9.6-10.2,25.3,0,34.9h0v0c-10.2,9.6-10.2,25.3,0,34.9c-10.2,9.6-10.2,25.3,0,34.9v0l0,0c-10.2,9.6-10.2,25.3,0,34.9l0,0v0h0
		l0,0l0,0c10.2,10.2,26.8,10.2,37,0l0,0l0,0h0l0,0l0,0c10.2,10.2,26.8,10.2,37,0l0,0l0,0h0l0,0l0,0c10.2,10.2,26.8,10.2,37,0l0,0
		l0,0h0l0,0l0,0c10.2,10.2,26.8,10.2,37,0l0,0l0,0h0l0,0l0,0c10.2,10.2,26.8,10.2,37,0l0,0l0,0h0l0,0l0,0c10.2,10.2,26.8,10.2,37,0
		c10.2,10.2,26.8,10.2,37,0l0,0l0,0h0l0,0l0,0c10.2,10.2,26.8,10.2,37,0l0,0l0,0h0l0,0l0,0c10.2,10.2,26.8,10.2,37,0l0,0l0,0h0l0,0
		l0,0c10.2,10.2,26.8,10.2,37,0l0,0l0,0h0l0,0l0,0c10.2,10.2,26.8,10.2,37,0l0,0l0,0h0l0,0l0,0c10.2,10.2,26.8,10.2,37,0l0,0l0,0h0
		v0c10.2-9.6,10.2-25.3,0-34.9v0c10.2-9.6,10.2-25.3,0-34.9v0c10.2-9.6,10.2-25.3,0-34.9v0c10.2-9.6,10.2-25.3,0-34.9v0
		c10.2-9.6,10.2-25.3,0-34.9v0c10.2-9.6,10.2-25.3,0-34.9v0C488.5,176.7,488.5,161,478.3,151.4z M256,116.5L256,116.5L256,116.5
		L256,116.5z"/>
	<rect x="101.8" y="180.4" fill="#FFD15C" width="308.5" height="23"/>
	<rect x="71.7" y="244.6" fill="#4CDBC4" width="368.5" height="23"/>
	<rect x="163.6" y="308.7" fill="#4CDBC4" width="184.8" height="23"/>
	<g>
		<g>
			<path fill="#FF7058" d="M454.7,376.1l-13.9-4.6L433,384l-8.4-23.1c8-1.3,15.2-5.1,20.8-10.5L454.7,376.1z"/>
			<path fill="#FF7058" d="M411.8,360.9l-8.4,23.1l-7.8-12.4l-14,4.6l9.3-25.7C396.6,355.8,403.8,359.6,411.8,360.9z"/>
		</g>
		<circle fill="#F8B64C" cx="418.2" cy="322.7" r="38.8"/>
		<path fill="#FFD15C" d="M418.2,352.8c-16.6,0-30.2-13.5-30.2-30.2s13.5-30.2,30.2-30.2s30.2,13.5,30.2,30.2
			S434.8,352.8,418.2,352.8z"/>
	</g>
</g>
</svg>
