<?xml version="1.0" encoding="utf-8"?>
<!-- Generator: Adobe Illustrator 18.0.0, SVG Export Plug-In . SVG Version: 6.00 Build 0)  -->
<!DOCTYPE svg PUBLIC "-//W3C//DTD SVG 1.1//EN" "http://www.w3.org/Graphics/SVG/1.1/DTD/svg11.dtd">
<svg version="1.1" id="Layer_1" xmlns="http://www.w3.org/2000/svg" xmlns:xlink="http://www.w3.org/1999/xlink" x="0px" y="0px"
	 viewBox="0 0 512 512" enable-background="new 0 0 512 512" xml:space="preserve">
<g>
	<path fill="#84DBFF" d="M510,201.7H2V4c0-1.1,0.9-2,2-2h504c1.1,0,2,0.9,2,2V201.7z"/>
	<rect x="33.7" y="33.7" fill="#FFFFFF" width="444.5" height="136.2"/>
	<rect x="54.9" y="54.9" fill="#F2F2F2" width="402.2" height="93.8"/>
	<path fill="#F2F2F2" d="M508,510H4c-1.1,0-2-0.9-2-2V201.7h508V508C510,509.1,509.1,510,508,510z"/>
	<path fill="#FFD15C" d="M54.9,233.4h158.8c11.7,0,21.2,9.5,21.2,21.2v58.9c0,11.7-9.5,21.2-21.2,21.2H54.9
		c-11.7,0-21.2-9.5-21.2-21.2v-58.9C33.7,242.9,43.2,233.4,54.9,233.4z"/>
	<path fill="#4CDBC4" d="M298.3,233.4h158.8c11.7,0,21.2,9.5,21.2,21.2v58.9c0,11.7-9.5,21.2-21.2,21.2H298.3
		c-11.7,0-21.2-9.5-21.2-21.2v-58.9C277.2,242.9,286.6,233.4,298.3,233.4z"/>
	<path fill="#CDD6E0" d="M54.9,377h158.8c11.7,0,21.2,9.5,21.2,21.2v58.9c0,11.7-9.5,21.2-21.2,21.2H54.9
		c-11.7,0-21.2-9.5-21.2-21.2v-58.9C33.7,386.5,43.2,377,54.9,377z"/>
	<path fill="#FF7058" d="M298.3,377h158.8c11.7,0,21.2,9.5,21.2,21.2v58.9c0,11.7-9.5,21.2-21.2,21.2H298.3
		c-11.7,0-21.2-9.5-21.2-21.2v-58.9C277.2,386.5,286.6,377,298.3,377z"/>
	<polygon fill="#FFFFFF" points="168,276.4 141.9,276.4 141.9,250.3 126.7,250.3 126.7,276.4 100.5,276.4 100.5,291.7 126.7,291.7 
		126.7,317.8 141.9,317.8 141.9,291.7 168,291.7 	"/>
	<polygon fill="#FFFFFF" points="407,265.6 396.2,254.8 377.7,273.3 359.2,254.8 348.5,265.6 366.9,284 348.5,302.5 359.2,313.3 
		377.7,294.8 396.2,313.3 407,302.5 388.5,284 	"/>
	<rect x="100.5" y="420" fill="#FFFFFF" width="67.5" height="15.2"/>
	<g>
		<rect x="344" y="436.7" fill="#FFFFFF" width="67.5" height="15.2"/>
		<rect x="344" y="403.3" fill="#FFFFFF" width="67.5" height="15.2"/>
	</g>
</g>
</svg>
