<?xml version="1.0" encoding="utf-8"?>
<!-- Generator: Adobe Illustrator 18.0.0, SVG Export Plug-In . SVG Version: 6.00 Build 0)  -->
<!DOCTYPE svg PUBLIC "-//W3C//DTD SVG 1.1//EN" "http://www.w3.org/Graphics/SVG/1.1/DTD/svg11.dtd">
<svg version="1.1" id="Layer_1" xmlns="http://www.w3.org/2000/svg" xmlns:xlink="http://www.w3.org/1999/xlink" x="0px" y="0px"
	 viewBox="0 0 512 512" enable-background="new 0 0 512 512" xml:space="preserve">
<g>
	<circle fill="#415A6B" cx="256" cy="256" r="254"/>
	<path fill="#F2F2F2" d="M256,446.5C151,446.5,65.5,361,65.5,256S151,65.5,256,65.5S446.5,151,446.5,256S361,446.5,256,446.5z"/>
	<path fill="#CDD6E0" d="M256,86.7c101.5,0,184.4,79.8,190,179.9c0.2-3.5,0.5-7,0.5-10.6C446.5,151,361,65.5,256,65.5
		S65.5,151,65.5,256c0,3.6,0.3,7.1,0.5,10.6C71.6,166.5,154.5,86.7,256,86.7z"/>
	<g>
		<polygon fill="#CDD6E0" points="256,110.7 238.1,256 256,401.3 273.9,256 		"/>
		<polygon fill="#CDD6E0" points="401.3,256 256,238.1 110.7,256 256,273.9 		"/>
	</g>
	<g>
		<polygon fill="#54C0EB" points="240.8,271.2 271.2,240.8 150.8,150.8 		"/>
		<polygon fill="#FF7058" points="361.2,361.2 271.2,240.8 240.8,271.2 		"/>
	</g>
	<circle fill="#415A6B" cx="256" cy="256" r="14.7"/>
</g>
</svg>
