<?xml version="1.0" encoding="utf-8"?>
<!-- Generator: Adobe Illustrator 18.0.0, SVG Export Plug-In . SVG Version: 6.00 Build 0)  -->
<!DOCTYPE svg PUBLIC "-//W3C//DTD SVG 1.1//EN" "http://www.w3.org/Graphics/SVG/1.1/DTD/svg11.dtd">
<svg version="1.1" id="Layer_1" xmlns="http://www.w3.org/2000/svg" xmlns:xlink="http://www.w3.org/1999/xlink" x="0px" y="0px"
	 viewBox="0 0 512 512" enable-background="new 0 0 512 512" xml:space="preserve">
<g>
	<g>
		<path fill="#F2F2F2" d="M338.3,146.9l-26.9-56.5l-27.1,8c-9.1-11-19.7-20.5-31.3-28.2l5.1-27.8l-59-20.9l-13.5,24.8
			c-13.9-1.3-28.1-0.6-42.1,2.2l-16-23.3L70.9,52.2l8,27.1c-11,9.1-20.5,19.7-28.2,31.3l-27.8-5.1L2,164.5L26.8,178
			c-1.3,13.9-0.6,28.1,2.2,42.1l-23.3,16l26.9,56.5l27.1-8c9.1,11,19.7,20.5,31.3,28.2L86,340.6l59,20.9l13.5-24.8
			c13.9,1.3,28.1,0.6,42.1-2.2l16,23.3l56.5-26.9l-8-27.1c11-9.1,20.5-19.7,28.2-31.3l27.8,5.1l20.9-59L317.2,205
			c1.3-13.9,0.6-28.1-2.2-42.1L338.3,146.9z M217.5,286.8C164.8,312,101.8,289.6,76.7,237c-25.1-52.7-2.8-115.7,49.9-140.9
			s115.7-2.8,140.9,49.9C292.5,198.7,270.2,261.7,217.5,286.8z"/>
		<path fill="#CDD6E0" d="M267.4,146c-25.1-52.7-88.2-75-140.9-49.9c-52.7,25.1-75,88.2-49.9,140.9c25.1,52.7,88.2,75,140.9,49.9
			C270.2,261.7,292.5,198.7,267.4,146z M201.6,253.5c-17.3,9.7-49.9,9.7-76-12.9c-33.6-29.2-27.4-84.7,10.7-107.7
			c35.3-21.4,80.4-7.3,97.7,29C250.4,196.1,234.6,234.8,201.6,253.5z"/>
	</g>
	<g>
		<path fill="#FFD15C" d="M265.5,362.1l3.5,42.5l19.2,1.5c3.1,9.2,7.6,17.8,13.1,25.5l-10,16.5l32.5,27.6l14.6-12.5
			c8.5,4.2,17.7,7.2,27.3,8.8l4.6,18.7l42.5-3.5l1.5-19.2c9.2-3.1,17.8-7.6,25.5-13.1l16.5,10l27.6-32.5l-12.5-14.6
			c4.2-8.5,7.2-17.7,8.8-27.3l18.7-4.6l-3.5-42.5l-19.2-1.5c-3.1-9.2-7.6-17.8-13.1-25.5l10-16.5l-32.5-27.6l-14.6,12.5
			c-8.5-4.2-17.7-7.2-27.3-8.8l-4.6-18.7l-42.5,3.5l-1.5,19.2c-9.2,3.1-17.8,7.6-25.5,13.1l-16.5-10l-27.6,32.5l12.5,14.6
			c-4.2,8.5-7.2,17.7-8.8,27.3L265.5,362.1z M376.2,302.2c39.6-3.3,74.4,26.2,77.6,65.8c3.3,39.6-26.2,74.4-65.8,77.6
			c-39.6,3.3-74.4-26.2-77.6-65.8C307.1,340.2,336.6,305.4,376.2,302.2z"/>
		<path fill="#F8B64C" d="M388,445.6c39.6-3.3,69.1-38,65.8-77.6c-3.3-39.6-38-69.1-77.6-65.8c-39.6,3.3-69.1,38-65.8,77.6
			C313.6,419.4,348.4,448.9,388,445.6z M378.3,327.3c2.8-0.2,5.6-0.2,8.3,0.1c19.4,1.9,35.7,15.7,40.7,34.5c0.7,2.6,1.2,5.4,1.4,8.2
			c2.1,25.7-17.1,48.3-42.8,50.4c-25.7,2.1-48.3-17-50.5-42.8C333.4,352,352.5,329.4,378.3,327.3z"/>
	</g>
	<g>
		<path fill="#84DBFF" d="M337.8,168.4l2.6,31.4l14.2,1.1c2.3,6.8,5.6,13.1,9.7,18.8l-7.4,12.1l24,20.4l10.8-9.2
			c6.3,3.1,13.1,5.3,20.2,6.5l3.4,13.8l31.4-2.6l1.1-14.2c6.8-2.3,13.1-5.6,18.8-9.7l12.1,7.4l20.4-24l-9.3-10.8
			c3.1-6.3,5.3-13.1,6.5-20.2l13.8-3.4l-2.6-31.4l-14.2-1.1c-2.3-6.8-5.6-13.1-9.7-18.8l7.4-12.1L467,102l-10.8,9.2
			c-6.3-3.1-13.1-5.3-20.2-6.5L432.6,91l-31.4,2.6l-1.1,14.2c-6.8,2.3-13.1,5.6-18.8,9.7l-12.1-7.4l-20.4,24l9.2,10.8
			c-3.1,6.3-5.3,13.1-6.5,20.2L337.8,168.4z M419.6,124.2c29.2-2.4,54.9,19.3,57.3,48.6c2.4,29.2-19.4,54.9-48.6,57.3
			c-29.2,2.4-54.9-19.4-57.3-48.6C368.6,152.2,390.3,126.6,419.6,124.2z"/>
		<path fill="#54C0EB" d="M428.3,230c29.2-2.4,51-28,48.6-57.3c-2.4-29.2-28-51-57.3-48.6c-29.2,2.4-51,28-48.6,57.3
			C373.4,210.7,399,232.4,428.3,230z M421.1,142.7c2.1-0.2,4.1-0.2,6.1,0c14.3,1.4,26.4,11.6,30,25.5c0.5,2,0.9,4,1,6.1
			c1.6,19-12.6,35.6-31.6,37.2c-19,1.6-35.7-12.6-37.2-31.6C387.9,160.9,402.1,144.3,421.1,142.7z"/>
	</g>
</g>
</svg>
