<?xml version="1.0" encoding="utf-8"?>
<!-- Generator: Adobe Illustrator 18.0.0, SVG Export Plug-In . SVG Version: 6.00 Build 0)  -->
<!DOCTYPE svg PUBLIC "-//W3C//DTD SVG 1.1//EN" "http://www.w3.org/Graphics/SVG/1.1/DTD/svg11.dtd">
<svg version="1.1" id="Layer_1" xmlns="http://www.w3.org/2000/svg" xmlns:xlink="http://www.w3.org/1999/xlink" x="0px" y="0px"
	 viewBox="0 0 512 512" enable-background="new 0 0 512 512" xml:space="preserve">
<g>
	<path fill="#FFD15C" d="M396.7,510H4.5c-1.1,0-2-0.9-2-2V53.5c0-1.1,0.9-2,2-2h392.2c1.1,0,2,0.9,2,2V508
		C398.7,509.1,397.8,510,396.7,510z"/>
	<rect x="34.1" y="83.1" fill="#F2F2F2" width="332.9" height="395.2"/>
	<path fill="#40596B" d="M268,33.6h-35.9C232.1,16.1,218,2,200.6,2c-17.4,0-31.5,14.1-31.5,31.6h-35.9c-11.2,0-20.3,9.1-20.3,20.3
		v42.4h175.5V53.9C288.3,42.7,279.2,33.6,268,33.6z M200.6,50.3c-9.3,0-16.7-7.5-16.7-16.7c0-9.3,7.5-16.7,16.7-16.7
		c9.3,0,16.7,7.5,16.7,16.7C217.3,42.8,209.8,50.3,200.6,50.3z"/>
	<rect x="65.7" y="125.4" fill="#4CDBC4" width="108.9" height="124.9"/>
	<g>
		<circle fill="#FFFFFF" cx="120.2" cy="164.3" r="25.4"/>
		<path fill="#FFFFFF" d="M140,194.6c-5.7,3.7-12.5,5.9-19.8,5.9s-14.1-2.2-19.8-5.9c-15.9,7.5-26.9,23.6-26.9,42.3h93.5
			C166.9,218.2,155.9,202.1,140,194.6z"/>
	</g>
	<rect x="205.6" y="174" fill="#FFD15C" width="129.8" height="23"/>
	<rect x="205.6" y="227.4" fill="#4CDBC4" width="129.8" height="23"/>
	<rect x="65.7" y="280.7" fill="#4CDBC4" width="269.7" height="23"/>
	<rect x="65.7" y="334.1" fill="#4CDBC4" width="129.8" height="23"/>
	<path fill="#84DBFF" d="M267.8,320.3c-23.1,27.7-41.9,54.3-55.9,77.2l41.4,41.4c22.6-14.2,49-33.3,76.4-56.6L267.8,320.3z"/>
	<path fill="#40596B" d="M183.8,466.1c0,0,24.4-1.3,51.8-16.6l-34.1-34.1C186.3,442.9,183.8,466.1,183.8,466.1z"/>
	<path fill="#334A5E" d="M345.1,369.1l-64.1-64.1c-4.5,5.1-8.9,10.2-13.1,15.3l62,62C334.9,378,340,373.6,345.1,369.1z"/>
	<path fill="#334A5E" d="M201.5,415.4l34.1,34.1c5.6-3.2,11.6-6.7,17.8-10.6L212,397.4C208.1,403.8,204.7,409.7,201.5,415.4z"/>
	<path fill="#334A5E" d="M326,232.6C326,232.5,326,232.5,326,232.6c-3-3.1-2.9-7.9,0.1-10.8C396,154,468.2,120.4,471.2,119
		c3.8-1.7,8.3-0.1,10.1,3.7c1.7,3.8,0.1,8.3-3.7,10.1c-0.7,0.3-73,33.9-140.9,99.8C333.7,235.5,329,235.5,326,232.6z"/>
	<path fill="#40596B" d="M378,337.9c89-89,146.4-176,128.1-194.2C487.9,125.5,401,182.9,312,271.9c-11,11-21.3,22-31,33.1l64.1,64.1
		C356,359.3,367,348.9,378,337.9z"/>
	<path fill="#3DC9AE" d="M453.9,145.3c-7.8,4.4-17.2,10-27.7,16.8l7.1,7.1c10-6.7,19.3-12.4,27.7-16.8L453.9,145.3z"/>
</g>
</svg>
