<?xml version="1.0" encoding="utf-8"?>
<!-- Generator: Adobe Illustrator 18.0.0, SVG Export Plug-In . SVG Version: 6.00 Build 0)  -->
<!DOCTYPE svg PUBLIC "-//W3C//DTD SVG 1.1//EN" "http://www.w3.org/Graphics/SVG/1.1/DTD/svg11.dtd">
<svg version="1.1" id="Layer_1" xmlns="http://www.w3.org/2000/svg" xmlns:xlink="http://www.w3.org/1999/xlink" x="0px" y="0px"
	 viewBox="0 0 512 512" enable-background="new 0 0 512 512" xml:space="preserve">
<g>
	<g>
		<path fill="#F1543F" d="M480.9,437.5l-29.7-2l-57.3-3.8l-25.4,51.5L355.4,510L310,431.3l-7-12.1c7.3,1.9,14.2,2.6,20.6,0.5
			c2.3-0.7,4.4-1.8,6.5-3.1c16.3-10.5,24.6-36.8,40-48.2c9.2-6.7,22.5-9.3,35-12.9c8.6-2.3,16.6-5.2,22.6-10.2l5.4,9.3L480.9,437.5z
			"/>
		<path fill="#FF7058" d="M451.2,435.5l-57.3-3.8l-25.4,51.5l-33.1-57.5l-5.3-9.1c16.3-10.5,24.6-36.8,40-48.2
			c9.2-6.7,22.5-9.3,35-12.9l5.5,9.5L451.2,435.5z"/>
	</g>
	<g>
		<path fill="#F1543F" d="M209.1,419.2l-7,12.1L156.7,510l-13.2-26.8l-25.3-51.5l-57.4,3.8l-29.7,2l47.8-82.8l5.3-9.2
			c6.1,4.9,14.2,7.7,22.8,10.1c12.5,3.6,25.8,6.2,35,12.9c15.3,11.3,23.6,37.8,40,48c2,1.4,4.1,2.4,6.3,3.2
			C194.8,421.8,201.8,421.1,209.1,419.2z"/>
		<path fill="#FF7058" d="M182,416.6l-5.3,9.2l-33.2,57.5l-25.3-51.5l-57.4,3.8l40.6-70.4l5.5-9.5c12.5,3.6,25.8,6.2,35,12.9
			C157.3,379.8,165.6,406.3,182,416.6z"/>
	</g>
	<path fill="#FFD15C" d="M474.9,211.5c0-22.3-27.7-39.9-34.2-60c-6.8-20.8,5.1-51.3-7.6-68.7c-12.7-17.5-45.5-15.6-63-28.4
		C352.8,41.8,344.5,10,323.7,3.3c-20.1-6.5-45.4,14.1-67.7,14.1S208.5-3.3,188.4,3.3c-20.8,6.8-29.1,38.6-46.4,51.2
		c-17.5,12.7-50.3,10.9-63,28.4c-12.6,17.3-0.8,47.8-7.6,68.7c-6.5,20.1-34.2,37.7-34.2,60c0,22.3,27.7,39.9,34.2,60
		c6.8,20.8-5.1,51.3,7.6,68.7c12.7,17.5,45.5,15.6,63,28.4c17.3,12.6,25.6,44.4,46.4,51.2c20.1,6.5,45.4-14.1,67.7-14.1
		c22.3,0,47.6,20.6,67.7,14.1c20.8-6.8,29.1-38.5,46.4-51.2c17.5-12.7,50.3-10.9,63-28.4c12.6-17.3,0.8-47.8,7.6-68.7
		C447.2,251.4,474.9,233.8,474.9,211.5z"/>
	<g>
		<path fill="#F8B64C" d="M256,370.9c-87.9,0-159.4-71.5-159.4-159.4c0-87.9,71.5-159.4,159.4-159.4c87.9,0,159.4,71.5,159.4,159.4
			C415.4,299.4,343.9,370.9,256,370.9z M256,83.8c-70.4,0-127.7,57.3-127.7,127.7c0,70.4,57.3,127.7,127.7,127.7
			c70.4,0,127.7-57.3,127.7-127.7C383.7,141.1,326.4,83.8,256,83.8z"/>
	</g>
	<path fill="#FFFFFF" d="M341.8,176.3h-49.1c-4.9,0-9.2-3.2-10.8-7.8l-15.2-46.7c-3.4-10.4-18.1-10.4-21.5,0l-15.2,46.7
		c-1.5,4.7-5.9,7.8-10.8,7.8h-49.1c-11,0-15.5,14-6.6,20.5l39.7,28.8c4,2.9,5.6,8,4.1,12.6l-15.2,46.7c-3.4,10.4,8.5,19.1,17.4,12.6
		l39.7-28.8c4-2.9,9.3-2.9,13.3,0l39.7,28.8c8.9,6.4,20.8-2.2,17.4-12.6l-15.2-46.7c-1.5-4.7,0.1-9.8,4.1-12.6l39.7-28.8
		C357.3,190.3,352.7,176.3,341.8,176.3z"/>
	<path opacity="0.2" fill="#D33829" d="M182,416.6c-16.4-10.3-24.7-36.7-40-48c-9.2-6.7-22.5-9.3-35-12.9
		c-8.6-2.3-16.6-5.2-22.8-10.1l-5.3,9.2c6.7,5,14.6,7.9,22.5,10.4c3.2,1,28.3,7.6,34.3,12c5.8,4.2,10.9,12.2,16.3,20.4
		c6.7,10.3,13.9,21.6,24.7,28.3c8.9,5.5,23.7,5.7,25.4,5.5l7-12.1C201.8,421.1,192.9,423.2,182,416.6z"/>
	<path opacity="0.2" fill="#D33829" d="M427.8,345.4c-6,5-14.1,7.8-22.6,10.2c-12.5,3.6-25.8,6.2-35,12.9
		c-15.5,11.3-24.1,37.1-40,48.2c-8.1,5.6-19.8,4.4-27.1,2.5l7,12.1c1.7,0.2,16,0,25.4-5.5c10.9-6.4,17.5-18.4,24.7-28.3
		c19.4-26.6,47.4-31.4,50.6-32.4c7.9-2.4,16-5.5,22.5-10.4L427.8,345.4z"/>
</g>
</svg>
