<?xml version="1.0" encoding="utf-8"?>
<!-- Generator: Adobe Illustrator 18.0.0, SVG Export Plug-In . SVG Version: 6.00 Build 0)  -->
<!DOCTYPE svg PUBLIC "-//W3C//DTD SVG 1.1//EN" "http://www.w3.org/Graphics/SVG/1.1/DTD/svg11.dtd">
<svg version="1.1" id="Layer_1" xmlns="http://www.w3.org/2000/svg" xmlns:xlink="http://www.w3.org/1999/xlink" x="0px" y="0px"
	 viewBox="0 0 512 512" enable-background="new 0 0 512 512" xml:space="preserve">
<g>
	<path fill="#40596B" d="M438.8,60.9H73.2c-1.1,0-2-0.9-2-2V4c0-1.1,0.9-2,2-2h365.6c1.1,0,2,0.9,2,2v54.9
		C440.8,60.1,439.9,60.9,438.8,60.9z"/>
	<path fill="#40596B" d="M438.8,510H73.2c-1.1,0-2-0.9-2-2v-55c0-1.1,0.9-2,2-2h365.6c1.1,0,2,0.9,2,2v55
		C440.8,509.1,439.9,510,438.8,510z"/>
	<path fill="#F2F2F2" d="M401,451.1H111c0-83.1,47.4-158.6,121.7-195c-69.5-34.1-115.5-102.4-121.1-179.2c-0.2-1.8-0.3-3.5-0.4-5.3
		c-0.1-3.5-0.2-7-0.2-10.6H401c0,3.6-0.1,7.1-0.2,10.6c-0.1,1.8-0.2,3.5-0.4,5.3c-5.6,76.7-51.6,145.1-121.2,179.2
		C353.5,292.4,401,368,401,451.1z"/>
	<polygon fill="#84DBFF" points="256,277.1 151.7,430.8 360.3,430.8 	"/>
	<polygon fill="#84DBFF" points="256,238.6 315.3,169.2 196.7,169.2 	"/>
	<path fill="#CDD6E0" d="M401,61c0,3.6-0.1,7.1-0.2,10.6c-0.1,1.8-0.2,3.5-0.4,5.3H111.6c-0.2-1.8-0.3-3.5-0.4-5.3
		c-0.1-3.5-0.2-7-0.2-10.6H401z"/>
</g>
</svg>
