<?xml version="1.0" encoding="utf-8"?>
<!-- Generator: Adobe Illustrator 18.0.0, SVG Export Plug-In . SVG Version: 6.00 Build 0)  -->
<!DOCTYPE svg PUBLIC "-//W3C//DTD SVG 1.1//EN" "http://www.w3.org/Graphics/SVG/1.1/DTD/svg11.dtd">
<svg version="1.1" id="Layer_1" xmlns="http://www.w3.org/2000/svg" xmlns:xlink="http://www.w3.org/1999/xlink" x="0px" y="0px"
	 viewBox="0 0 512 512" enable-background="new 0 0 512 512" xml:space="preserve">
<g>
	<path fill="#40596B" d="M262.3,427.4L262.3,427.4h-46.4l0,0c-12.2,30.6-41.8,50.6-74.8,50.6h-17.8V510h231.5v-31.9h-17.8
		C304.2,478.1,274.5,458,262.3,427.4z"/>
	<path fill="#ACB3BA" d="M355.1,4.5c-0.1-0.1-0.2-0.2-0.4-0.3l-1.5-0.9c-4.8-2.7-11-1-13.7,3.8L326,30.8c-2.7,4.8-1,11,3.8,13.7
		l1.5,0.9c4.8,2.7,11,1,13.7-3.8l8-14.1c91.3,61.3,121.6,183.8,66.5,281c-55.1,97.2-175.8,134.1-275.3,87.1l8-14.1
		c2.7-4.8,1-11-3.8-13.7l-1.5-0.9c-4.8-2.7-11-1-13.7,3.8l-13.4,23.7c-2.7,4.8-1,11,3.8,13.7l0.8,0.4l0,0l0,0l0.8,0.4
		c0.2,0.1,0.3,0.1,0.5,0.2c110.7,58.9,249.3,19.1,311.6-90.6C499.4,208.7,462.4,69.3,355.1,4.5z"/>
	<g>
		<circle fill="#84DBFF" cx="239.1" cy="206.1" r="194.5"/>
		<path fill="#54C0EB" d="M429.2,168.5c-11.3-4.6-22.5-10-33.9-14.3c-9.7-3.7-21.9-6.1-29.2,1.2c-3.9,3.8-5.3,9.4-6.6,14.7
			c-1.7,7-3.5,14.2-7.4,20.2c-3.9,6.1-10.5,10.9-17.7,10.9c-5.2,0-10-2.5-14.6-4.8c-14.1-7.1-28.3-13.9-42.8-20.2
			c-6.9-3-14-6-21.6-6.5c-17.4-1.2-34.6,12.7-36.9,30c-0.5,3.9-0.4,8,0.8,11.7c2.5,7.8,9.3,13.5,16.4,17.7c7.9,4.7,16.6,8,25.5,9.8
			c7.3,1.5,15.4,2.3,20.8,7.4c5.1,4.9,6.5,12.5,6.3,19.6c-0.2,7.1-1.8,14.1-1.3,21.2c0.9,14.2,11.1,27.8,25,30.9
			c7.6,1.7,15.5,0.3,23.2-0.8c19.6-2.9,41.6-3.4,57,9c5.6-7.3,10.8-15,15.5-23.3C431.9,260.5,438.2,212.8,429.2,168.5z"/>
		<path fill="#54C0EB" d="M142.1,37.6c-0.7,11.9,12,19.5,22.5,25.1C184,73,203.3,88,207.5,109.5c1.4,7.3,1.1,15.1,4.4,21.7
			c4,8,13.4,12.9,22.2,11.5s16.4-8.8,17.8-17.6c1.2-7.5-1.6-15.2-0.6-22.7c1.4-10.4,9.7-18.5,14-28.1c5.1-11.5,3.9-25.6-3.1-36.1
			c-3.9-5.8-9.4-10.5-13.1-16.4c-2-3.1-3.3-6.5-4.4-10C208.8,10.7,173.3,19.7,142.1,37.6z"/>
		<path fill="#54C0EB" d="M153.2,219.8c0.6-29.9,23.5-55.4,26.3-85.2c0.2-1.9,0.3-3.9-0.7-5.6c-0.9-1.6-2.6-2.6-4.2-3.6
			c-5.7-3.3-11.4-6.6-17.2-9.9c-3.7-2.1-7.7-4.4-12-4.2c-4.1,0.2-7.7,2.5-11,4.9c-8.5,6.2-16.2,13.5-22.8,21.6
			c-6.6,8.1-12.8,17.4-22.6,21.2c-6.6,2.6-13.9,2.3-20.9,2.5c-6.3,0.2-12.6,0.9-18.9,2c-9.8,43.8-4,89.2,15.4,128.6
			c4.8-2.3,9.4-5.8,14-8.6c12.8-8,28.2-11.7,43.3-10.4c5.8,0.5,11.8,1.7,17.3,0c9.5-3,14.6-13.6,15.3-23.6
			C155.4,239.7,153,229.7,153.2,219.8z"/>
	</g>
</g>
</svg>
