<?xml version="1.0" encoding="utf-8"?>
<!-- Generator: Adobe Illustrator 18.0.0, SVG Export Plug-In . SVG Version: 6.00 Build 0)  -->
<!DOCTYPE svg PUBLIC "-//W3C//DTD SVG 1.1//EN" "http://www.w3.org/Graphics/SVG/1.1/DTD/svg11.dtd">
<svg version="1.1" id="Layer_1" xmlns="http://www.w3.org/2000/svg" xmlns:xlink="http://www.w3.org/1999/xlink" x="0px" y="0px"
	 viewBox="0 0 512 512" enable-background="new 0 0 512 512" xml:space="preserve">
<g>
	<path fill="#40596B" d="M508,453.4H4c-1.1,0-2-0.9-2-2V100.8c0-1.1,0.9-2,2-2h504c1.1,0,2,0.9,2,2v350.6
		C510,452.5,509.1,453.4,508,453.4z"/>
	<path fill="#F2F2F2" d="M256,435.7H21c-1.1,0-2-0.9-2-2V60.6c0-1.1,0.9-2,2-2h231c2.2,0,4,1.8,4,4V435.7z"/>
	<path fill="#CDD6E0" d="M491,435.7H256V62.6c0-2.2,1.8-4,4-4h231c1.1,0,2,0.9,2,2v373.2C493,434.9,492.1,435.7,491,435.7z"/>
	<rect x="47.9" y="198.8" fill="#FFD15C" width="179.2" height="23"/>
	<rect x="47.9" y="252.4" fill="#CDD6E0" width="179.2" height="23"/>
	<rect x="47.9" y="305.9" fill="#CDD6E0" width="179.2" height="23"/>
	<rect x="47.9" y="359.5" fill="#CDD6E0" width="179.2" height="23"/>
	<rect x="284.9" y="252.4" fill="#4CDBC4" width="179.2" height="23"/>
	<rect x="284.9" y="305.9" fill="#4CDBC4" width="179.2" height="23"/>
	<rect x="284.9" y="359.5" fill="#4CDBC4" width="179.2" height="23"/>
	<polygon fill="#FF7058" points="418.2,371.2 408.7,361.8 399.2,371.2 399.2,58.6 418.2,58.6 	"/>
</g>
</svg>
