<?xml version="1.0" encoding="utf-8"?>
<!-- Generator: Adobe Illustrator 18.0.0, SVG Export Plug-In . SVG Version: 6.00 Build 0)  -->
<!DOCTYPE svg PUBLIC "-//W3C//DTD SVG 1.1//EN" "http://www.w3.org/Graphics/SVG/1.1/DTD/svg11.dtd">
<svg version="1.1" id="Layer_1" xmlns="http://www.w3.org/2000/svg" xmlns:xlink="http://www.w3.org/1999/xlink" x="0px" y="0px"
	 viewBox="0 0 512 512" enable-background="new 0 0 512 512" xml:space="preserve">
<g>
	<path fill="#F2F2F2" d="M392.7,2H122.3L2.8,121.3v367.6c0,11.7,9.5,21.2,21.2,21.2h368.7c11.7,0,21.2-9.5,21.2-21.2V23.2
		C413.9,11.5,404.4,2,392.7,2z"/>
	<rect x="31.8" y="175.7" fill="#CDD6E0" width="155.9" height="23"/>
	<rect x="31.8" y="259.6" fill="#CDD6E0" width="353.1" height="23"/>
	<rect x="31.8" y="343.4" fill="#CDD6E0" width="353.1" height="23"/>
	<rect x="31.8" y="427.2" fill="#CDD6E0" width="204.2" height="23"/>
	<path fill="#CDD6E0" d="M2.8,121.3H104c10.1,0,18.4-8.2,18.4-18.4V2C89.3,35.1,38,86.2,2.8,121.3z"/>
	<rect x="236" y="44.3" fill="#84DBFF" width="148.9" height="156"/>
	<g>
		<path fill="#FF7058" d="M503.1,478.9l-36.5-12l-20.3,32.6l-22-60.4c21.1-3.5,39.8-13.4,54.4-27.6L503.1,478.9z"/>
		<path fill="#FF7058" d="M390.9,439.1l-22,60.4l-20.3-32.6l-36.6,12l24.4-67.4C351,425.7,369.9,435.6,390.9,439.1z"/>
	</g>
	<circle fill="#F8B64C" cx="407.5" cy="338.9" r="101.6"/>
	<path fill="#FFD15C" d="M407.5,417.9c-43.6,0-79-35.4-79-79s35.4-79,79-79c43.6,0,79,35.4,79,79S451.1,417.9,407.5,417.9z"/>
</g>
</svg>
