<?xml version="1.0" encoding="utf-8"?>
<!-- Generator: Adobe Illustrator 18.0.0, SVG Export Plug-In . SVG Version: 6.00 Build 0)  -->
<!DOCTYPE svg PUBLIC "-//W3C//DTD SVG 1.1//EN" "http://www.w3.org/Graphics/SVG/1.1/DTD/svg11.dtd">
<svg version="1.1" id="Layer_1" xmlns="http://www.w3.org/2000/svg" xmlns:xlink="http://www.w3.org/1999/xlink" x="0px" y="0px"
	 viewBox="0 0 512 512" enable-background="new 0 0 512 512" xml:space="preserve">
<g>
	<path fill="#84DBFF" d="M242.9,9.4L10.1,191.3C5,195.3,2,201.5,2,208v278c0,11.7,9.5,21.2,21.2,21.2h465.6
		c11.7,0,21.2-9.5,21.2-21.2V208c0-6.5-3-12.7-8.1-16.7L269,9.4C261.3,3.4,250.6,3.4,242.9,9.4z"/>
	<path fill="#40596B" d="M510,208c0,6.5-3.1,12.6-8.1,16.6l-64.1,50.2L269,406.7c-3.8,3-8.5,4.4-13.1,4.4c-4.6,0-9.1-1.5-13-4.4
		L74.3,274.9l-64.2-50.3c-5.1-4-8-10.2-8-16.6c0-6.6,3-12.7,8-16.7l64.2-50.2l103.6-81l65-50.8c7.7-6,18.4-6,26.1,0l65,50.8
		l103.7,81l64.1,50.2C506.9,195.4,510,201.5,510,208z"/>
	<path fill="#40596B" d="M510,208c0,6.5-3.1,12.6-8.1,16.6l-64.1,50.2L269,406.7c-3.8,3-8.5,4.4-13.1,4.4c-4.6,0-9.1-1.5-13-4.4
		L74.3,274.9l-64.2-50.3c-5.1-4-8-10.2-8-16.6c0-6.6,3-12.7,8-16.7l64.2-50.2l103.6-81l65-50.8c7.7-6,18.4-6,26.1,0l65,50.8
		l103.7,81l64.1,50.2C506.9,195.4,510,201.5,510,208z"/>
	<path fill="#40596B" d="M510,208c0,6.5-3.1,12.6-8.1,16.6l-27,21.1l-37.1,29.1l-25.3,19.8l-27.2,21.3L349,344.1l-27.2,21.3
		L269,406.6c-3.8,3-8.4,4.4-13,4.4h-0.1c-4.6,0-9.1-1.5-13-4.4l-52.8-41.3l-27.2-21.3l-36.2-28.3l-27.2-21.3l-25.2-19.7l-37.1-29.1
		l-27.1-21.2c-5.1-4-8-10.2-8-16.6c0-6.6,3-12.7,8-16.7l27.1-21.2l37.1-29l95.9-74.9l7.7-6l65-50.8c7.7-6,18.4-6,26.1,0l65,50.8
		l7.7,6l96,74.9l37.1,29.1l27,21.1C506.9,195.3,510,201.4,510,208z"/>
	<path fill="#F2F2F2" d="M256,108.5v302.5h-0.1c-4.6,0-9.1-1.5-13-4.4l-52.8-41.3l-27.2-21.3l-36.2-28.3l-27.2-21.3l-25.2-19.7
		l-37.1-29.1V66.2h176.5C237.1,66.2,256,85.1,256,108.5z"/>
	<path fill="#CDD6E0" d="M474.9,66.2v179.5l-37.1,29.1l-25.3,19.8l-27.2,21.3L349,344.1l-27.2,21.3L269,406.6c-3.8,3-8.4,4.4-13,4.4
		V108.5c0-23.4,18.9-42.3,42.3-42.3H474.9z"/>
	<rect x="282.7" y="195.7" fill="#FF7058" width="165.5" height="21.3"/>
	<rect x="63.9" y="245.1" fill="#CDD6E0" width="165.5" height="21.3"/>
	<polygon fill="#CDD6E0" points="229.4,294.6 229.4,315.8 126.7,315.8 99.5,294.6 	"/>
	<polygon fill="#CDD6E0" points="229.4,344.1 229.4,365.4 190.1,365.4 162.9,344.1 	"/>
	<rect x="282.7" y="245.1" fill="#F2F2F2" width="165.5" height="21.3"/>
	<polygon fill="#F2F2F2" points="412.4,294.6 385.2,315.8 282.7,315.8 282.7,294.6 	"/>
	<polygon fill="#F2F2F2" points="349,344.1 321.9,365.4 282.7,365.4 282.7,344.1 	"/>
	<rect x="63.9" y="103.4" fill="#FFD15C" width="98" height="98"/>
</g>
</svg>
