<?xml version="1.0" encoding="utf-8"?>
<!-- Generator: Adobe Illustrator 18.0.0, SVG Export Plug-In . SVG Version: 6.00 Build 0)  -->
<!DOCTYPE svg PUBLIC "-//W3C//DTD SVG 1.1//EN" "http://www.w3.org/Graphics/SVG/1.1/DTD/svg11.dtd">
<svg version="1.1" id="Layer_1" xmlns="http://www.w3.org/2000/svg" xmlns:xlink="http://www.w3.org/1999/xlink" x="0px" y="0px"
	 viewBox="0 0 512 512" enable-background="new 0 0 512 512" xml:space="preserve">
<g>
	<path fill="#F2F2F2" d="M474.2,488.3H170.7c-29.7,0-46.4-34.3-28.2-57.7l130.9-168.1V132.1h97.9v130.4l131,168.1
		C520.7,454,503.9,488.3,474.2,488.3z"/>
	<path fill="#CDD6E0" d="M380.9,100.1H264c-8.8,0-16,7.2-16,16l0,0c0,8.8,7.2,16,16,16h116.9c8.8,0,16-7.2,16-16l0,0
		C396.9,107.2,389.7,100.1,380.9,100.1z"/>
	<path fill="#84DBFF" d="M486,443.3l-69.4-89.1c-17.8,5.3-43.1,4.2-74.8-20.1c-38.1-29.1-78.8-12.6-94.6-4.1l-88.3,113.3
		c-5.2,6.6-2.9,13.2-1.6,15.7c1.2,2.5,5,8.4,13.4,8.4h303.4c8.4,0,12.2-5.9,13.4-8.4C488.8,456.6,491.1,450,486,443.3z"/>
	<circle fill="#84DBFF" cx="313.8" cy="64" r="19.4"/>
	<circle fill="#FFFFFF" cx="307.4" cy="56.4" r="5.2"/>
	<circle fill="#84DBFF" cx="360" cy="34.1" r="10.5"/>
	<circle fill="#FFFFFF" cx="356.6" cy="30" r="2.8"/>
	<path fill="#F2F2F2" d="M21,202.4v235.7c0,27.7,22.4,50.2,50.2,50.2c0,0,54.8,4.9,54.8-50.2V202.4H21z"/>
	<path fill="#84DBFF" d="M41.8,301.1v137.1c0,16.2,13.2,29.4,29.3,29.4h4.7c16.2,0,29.4-13.2,29.4-29.4V301.1
		C89.9,307.2,59.8,281.6,41.8,301.1z"/>
	<path fill="#CDD6E0" d="M143.8,176.4H3.2c-0.7,0-1.2,0.5-1.2,1.2v23.7c0,0.7,0.5,1.2,1.2,1.2h140.6c0.7,0,1.2-0.5,1.2-1.2v-23.7
		C145,177,144.5,176.4,143.8,176.4z"/>
	<rect x="273.5" y="132.1" fill="#E0E1E2" width="97.9" height="15.6"/>
	<rect x="21" y="202.4" fill="#E0E1E2" width="104.9" height="15.6"/>
</g>
</svg>
