<?xml version="1.0" encoding="utf-8"?>
<!-- Generator: Adobe Illustrator 18.0.0, SVG Export Plug-In . SVG Version: 6.00 Build 0)  -->
<!DOCTYPE svg PUBLIC "-//W3C//DTD SVG 1.1//EN" "http://www.w3.org/Graphics/SVG/1.1/DTD/svg11.dtd">
<svg version="1.1" id="Layer_1" xmlns="http://www.w3.org/2000/svg" xmlns:xlink="http://www.w3.org/1999/xlink" x="0px" y="0px"
	 viewBox="0 0 512 512" enable-background="new 0 0 512 512" xml:space="preserve">
<g>
	<path fill="#FFD15C" d="M2.5,244.2c0,47.8,38.7,86.5,86.5,86.5s86.5-38.7,86.5-86.5H2.5z"/>
	<path fill="#FFD15C" d="M336.4,244.2c0,47.8,38.7,86.5,86.5,86.5c47.8,0,86.5-38.7,86.5-86.5H336.4z"/>
	<path fill="#40596B" d="M256,59.8c-32.6,0-59,26.4-59,59c0,32.6,26.4,59,59,59c32.6,0,59-26.4,59-59C315,86.2,288.6,59.8,256,59.8z
		 M256,148.1c-16.2,0-29.3-13.1-29.3-29.3s13.1-29.3,29.3-29.3c16.2,0,29.3,13.1,29.3,29.3S272.2,148.1,256,148.1z"/>
	<path fill="#CDD6E0" d="M277.3,63.9V23.3C277.3,11.5,267.8,2,256,2l0,0c-11.8,0-21.3,9.5-21.3,21.3v40.6c6.6-2.6,13.8-4.1,21.3-4.1
		C263.5,59.8,270.7,61.3,277.3,63.9z"/>
	<path fill="#CDD6E0" d="M197,118.8c0-7.5,1.5-14.7,4-21.3H23.8c-11.8,0-21.3,9.5-21.3,21.3c0,11.8,9.5,21.3,21.3,21.3H201
		C198.4,133.5,197,126.3,197,118.8z"/>
	<polygon fill="#FF7058" points="67.6,140.1 10.6,244.2 30.3,244.2 87.3,140.1 	"/>
	<polygon fill="#FF7058" points="90.9,140.1 147.8,244.2 167.5,244.2 110.6,140.1 	"/>
	<path fill="#CDD6E0" d="M488.2,97.5H311c2.6,6.6,4,13.8,4,21.3c0,7.5-1.5,14.7-4,21.3h177.2c11.8,0,21.3-9.5,21.3-21.3
		C509.5,107,499.9,97.5,488.2,97.5z"/>
	<polygon fill="#FF7058" points="424.7,140.1 481.7,244.2 501.4,244.2 444.4,140.1 	"/>
	<polygon fill="#FF7058" points="401.4,140.1 344.5,244.2 364.2,244.2 421.1,140.1 	"/>
	<rect x="92.4" y="484.9" fill="#40596B" width="327.2" height="25.1"/>
	<path fill="#ACB3BA" d="M383,484.9H129v-55.7c0-2.9,2.4-5.3,5.3-5.3h243.5c2.9,0,5.3,2.4,5.3,5.3V484.9z"/>
	<path fill="#CDD6E0" d="M277.3,423.9V173.7c-6.6,2.6-13.8,4.1-21.3,4.1c-7.5,0-14.7-1.5-21.3-4.1v250.2H277.3z"/>
</g>
</svg>
