<?xml version="1.0" encoding="utf-8"?>
<!-- Generator: Adobe Illustrator 18.0.0, SVG Export Plug-In . SVG Version: 6.00 Build 0)  -->
<!DOCTYPE svg PUBLIC "-//W3C//DTD SVG 1.1//EN" "http://www.w3.org/Graphics/SVG/1.1/DTD/svg11.dtd">
<svg version="1.1" id="Layer_1" xmlns="http://www.w3.org/2000/svg" xmlns:xlink="http://www.w3.org/1999/xlink" x="0px" y="0px"
	 viewBox="0 0 512 512" enable-background="new 0 0 512 512" xml:space="preserve">
<g>
	<path fill="#FF7058" d="M510,228.3l-33,26.5l-206.9,166c-4,3.6-9.1,5.4-14.1,5.4c-5.1,0-10.1-1.8-14.1-5.4L60.2,274.9L2,228.3
		l58.2-46.8L241.9,35.7c7.9-7.1,20.1-7.1,28.1,0L477,201.8L510,228.3z"/>
	<path fill="#FFD15C" d="M270.1,420.8c-8,7.1-20.1,7.1-28.2,0L2,228.3v260.5c0,11.7,9.5,21.2,21.2,21.2h465.6
		c11.7,0,21.2-9.5,21.2-21.2V228.3L270.1,420.8z"/>
	<path fill="#F2F2F2" d="M368.4,2h-287c-11.7,0-21.2,9.5-21.2,21.2v251.8l181.7,145.8c4,3.6,15.2,10.3,28.1,0l206.9-166V110.6
		L368.4,2z"/>
	<path fill="#CDD6E0" d="M368.4,89.5c0,11.7,9.5,21.2,21.2,21.2H477L368.4,2V89.5z"/>
	<rect x="107.6" y="105.7" fill="#FFD15C" width="219.3" height="23"/>
	<rect x="107.6" y="180.4" fill="#4CDBC4" width="322" height="23"/>
	<rect x="107.6" y="255.1" fill="#4CDBC4" width="322" height="23"/>
</g>
</svg>
