<?xml version="1.0" encoding="utf-8"?>
<!-- Generator: Adobe Illustrator 18.0.0, SVG Export Plug-In . SVG Version: 6.00 Build 0)  -->
<!DOCTYPE svg PUBLIC "-//W3C//DTD SVG 1.1//EN" "http://www.w3.org/Graphics/SVG/1.1/DTD/svg11.dtd">
<svg version="1.1" id="Layer_1" xmlns="http://www.w3.org/2000/svg" xmlns:xlink="http://www.w3.org/1999/xlink" x="0px" y="0px"
	 viewBox="0 0 512 512" enable-background="new 0 0 512 512" xml:space="preserve">
<g>
	<path fill="#F2F2F2" d="M488.8,2H23.2C11.5,2,2,11.5,2,23.2v465.7c0,11.7,9.5,21.2,21.2,21.2h465.7c11.7,0,21.2-9.5,21.2-21.2V23.2
		C510,11.5,500.5,2,488.8,2z"/>
	<rect x="44.4" y="44.3" fill="#84DBFF" width="423.3" height="359.8"/>
	<polygon fill="#334A5E" points="173,214.9 44.6,404.2 301.5,404.2 	"/>
	<polygon fill="#40596B" points="467.7,263.8 467.7,404.2 352.1,404.2 425.4,296.2 457.5,248.9 	"/>
	<polygon fill="#334A5E" points="467.7,358.5 467.7,404.2 331.7,404.2 415.2,281.2 425.4,296.2 	"/>
	<polygon fill="#40596B" points="291.2,144.6 115,404.2 467.4,404.2 	"/>
	<circle opacity="0.3" fill="#FFFFFF" cx="127.5" cy="122.9" r="31.3"/>
	<circle opacity="0.3" fill="#FFFFFF" cx="127.5" cy="122.9" r="47.8"/>
	<circle opacity="0.3" fill="#FFFFFF" cx="127.5" cy="122.9" r="68.7"/>
</g>
</svg>
