<?xml version="1.0" encoding="utf-8"?>
<!-- Generator: Adobe Illustrator 18.0.0, SVG Export Plug-In . SVG Version: 6.00 Build 0)  -->
<!DOCTYPE svg PUBLIC "-//W3C//DTD SVG 1.1//EN" "http://www.w3.org/Graphics/SVG/1.1/DTD/svg11.dtd">
<svg version="1.1" id="Layer_1" xmlns="http://www.w3.org/2000/svg" xmlns:xlink="http://www.w3.org/1999/xlink" x="0px" y="0px"
	 viewBox="0 0 512 512" enable-background="new 0 0 512 512" xml:space="preserve">
<g>
	<path fill="#F2F2F2" d="M428.8,2H83.2C71.5,2,62,11.5,62,23.2v465.7c0,11.7,9.5,21.2,21.2,21.2h345.7c11.7,0,21.2-9.5,21.2-21.2
		V23.2C450,11.5,440.5,2,428.8,2z"/>
	<rect x="104.3" y="44.3" fill="#FFFFFF" width="303.3" height="127"/>
	<rect x="125.5" y="65.5" fill="#84DBFF" width="261" height="84.7"/>
	<rect x="104.3" y="192.5" fill="#FFD15C" width="67.9" height="52.9"/>
	<rect x="182.8" y="192.5" fill="#FF7058" width="67.9" height="52.9"/>
	<rect x="261.2" y="192.5" fill="#FFD15C" width="67.9" height="52.9"/>
	<rect x="339.7" y="192.5" fill="#FF7058" width="67.9" height="52.9"/>
	<rect x="104.3" y="266.6" fill="#CDD6E0" width="67.9" height="52.9"/>
	<rect x="182.8" y="266.6" fill="#CDD6E0" width="67.9" height="52.9"/>
	<rect x="261.2" y="266.6" fill="#CDD6E0" width="67.9" height="52.9"/>
	<rect x="339.7" y="266.6" fill="#CDD6E0" width="67.9" height="52.9"/>
	<rect x="104.3" y="340.7" fill="#CDD6E0" width="67.9" height="52.9"/>
	<rect x="182.8" y="340.7" fill="#CDD6E0" width="67.9" height="52.9"/>
	<rect x="261.2" y="340.7" fill="#CDD6E0" width="67.9" height="52.9"/>
	<rect x="339.7" y="340.7" fill="#CDD6E0" width="67.9" height="52.9"/>
	<rect x="104.3" y="414.7" fill="#CDD6E0" width="67.9" height="52.9"/>
	<rect x="182.8" y="414.7" fill="#CDD6E0" width="67.9" height="52.9"/>
	<rect x="261.2" y="414.7" fill="#CDD6E0" width="67.9" height="52.9"/>
	<rect x="339.7" y="414.7" fill="#CDD6E0" width="67.9" height="52.9"/>
</g>
</svg>
