<?xml version="1.0" encoding="utf-8"?>
<!-- Generator: Adobe Illustrator 18.0.0, SVG Export Plug-In . SVG Version: 6.00 Build 0)  -->
<!DOCTYPE svg PUBLIC "-//W3C//DTD SVG 1.1//EN" "http://www.w3.org/Graphics/SVG/1.1/DTD/svg11.dtd">
<svg version="1.1" id="Layer_1" xmlns="http://www.w3.org/2000/svg" xmlns:xlink="http://www.w3.org/1999/xlink" x="0px" y="0px"
	 viewBox="0 0 512 512" enable-background="new 0 0 512 512" xml:space="preserve">
<g>
	<polygon fill="#4CDBC4" points="144.2,188.3 224.9,188.3 208,138.7 166.6,16.9 94.3,41.5 135.7,163.3 	"/>
	<polygon fill="#3DC9AE" points="144.2,188.3 175.5,188.3 163.7,153.7 122.3,31.9 94.3,41.5 135.7,163.3 	"/>
	
		<rect x="159.4" y="29.8" transform="matrix(-0.3222 -0.9467 0.9467 -0.3222 175.56 208.7715)" fill="#F2F2F2" width="6.3" height="23.5"/>
	
		<rect x="168.1" y="64.5" transform="matrix(-0.9467 0.322 -0.322 -0.9467 363.9387 75.2226)" fill="#F2F2F2" width="15.3" height="6.3"/>
	
		<rect x="169.5" y="93.4" transform="matrix(-0.9467 0.3221 -0.3221 -0.9467 383.8897 129.539)" fill="#F2F2F2" width="23.5" height="6.3"/>
	
		<rect x="186.8" y="119.5" transform="matrix(-0.9467 0.3221 -0.3221 -0.9467 418.07 176.24)" fill="#F2F2F2" width="15.3" height="6.3"/>
	
		<rect x="188.2" y="148.4" transform="matrix(-0.9467 0.3221 -0.3221 -0.9467 438.0202 230.5663)" fill="#F2F2F2" width="23.5" height="6.3"/>
	
		<rect x="205.5" y="174.5" transform="matrix(-0.9467 0.3221 -0.3221 -0.9467 472.2021 277.266)" fill="#F2F2F2" width="15.3" height="6.3"/>
	<rect x="262.9" y="89.2" fill="#84DBFF" width="43.1" height="99"/>
	<rect x="262.9" y="57" fill="#FF7058" width="43.1" height="32.2"/>
	<path fill="#40596B" d="M304,10.2h-39.1c-1.1,0-2,0.9-2,2V57H306V12.2C306,11.1,305.1,10.2,304,10.2z"/>
	<rect x="276" y="89.2" fill="#54C0EB" width="16.8" height="99"/>
	<polygon fill="#FFD15C" points="208.5,132.7 221.6,97.3 230,75.9 238.4,97.3 251.6,132.7 	"/>
	<polygon fill="#334A5E" points="221.6,97.3 230,75.9 238.4,97.3 	"/>
	<rect x="208.5" y="132.7" fill="#FF7058" width="43.1" height="55.6"/>
	<g>
		<path fill="#334A5E" d="M303.5,126C303.5,126,303.5,126,303.5,126c-3-1-4.5-4.1-3.5-7C322.7,51.8,358.4,6,359.9,4.1
			c1.9-2.4,5.3-2.8,7.8-0.9c2.4,1.9,2.8,5.4,0.9,7.8c-0.4,0.5-36,46.3-58.1,111.6C309.5,125.4,306.4,126.9,303.5,126z"/>
	</g>
	<path fill="#40596B" d="M368.5,188.3c1.3-3.7,2.6-7.4,3.8-11.2c28.1-87.3,36.3-162.8,18.4-168.5c-17.9-5.8-55.2,60.4-83.2,147.7
		c-3.5,10.8-6.5,21.4-9.1,31.8l1,0.3H368.5z"/>
	<path fill="#3DC9AE" d="M357.3,26.9c-3.6,5.5-7.8,12.2-12.4,20.1l7,2.2c4.2-7.7,8.4-14.4,12.4-20.1L357.3,26.9z"/>
	<path fill="#CDD6E0" d="M399.2,239.1l-1.5,10.6l-0.8,5.3l-36.3,236.8c-1.5,10.5-10.4,18.2-21,18.2H168.8c-10.6,0-19.5-7.7-21-18.2
		l-36.3-236.8l-0.8-5.3l-1.5-10.6H399.2z"/>
	<path fill="#ACB3BA" d="M401.3,239.1H110.7c-14.6,0-26.5-11.9-26.5-26.5l0,0c0-14.6,11.9-26.5,26.5-26.5h290.6
		c14.6,0,26.5,11.9,26.5,26.5l0,0C427.8,227.3,416,239.1,401.3,239.1z"/>
	<polygon fill="#BAC4CC" points="399.2,239.1 397.7,249.7 396.9,254.9 111.5,254.9 110.7,249.7 109.2,239.1 	"/>
</g>
</svg>
