<?xml version="1.0" encoding="utf-8"?>
<!-- Generator: Adobe Illustrator 18.0.0, SVG Export Plug-In . SVG Version: 6.00 Build 0)  -->
<!DOCTYPE svg PUBLIC "-//W3C//DTD SVG 1.1//EN" "http://www.w3.org/Graphics/SVG/1.1/DTD/svg11.dtd">
<svg version="1.1" id="Layer_1" xmlns="http://www.w3.org/2000/svg" xmlns:xlink="http://www.w3.org/1999/xlink" x="0px" y="0px"
	 viewBox="0 0 512 512" enable-background="new 0 0 512 512" xml:space="preserve">
<g>
	<g>
		<path fill="#F1543F" d="M176.2,238.9c-0.1-10.1,0.5-20.5,2.2-30.8C176.7,218.3,176.1,228.7,176.2,238.9z"/>
		<path fill="#F1543F" d="M326.4,234.9c0.3-2.7,0.5-5.4,0.6-7.8C326.9,229.5,326.7,232.1,326.4,234.9z"/>
		<path fill="#F1543F" d="M177,253.8c-0.4-4.2-0.6-8.4-0.7-12.7C176.4,245.3,176.6,249.6,177,253.8z"/>
		<path fill="#F1543F" d="M178.9,269.8c-0.7-4.4-1.2-9-1.7-13.7C177.6,260.8,178.2,265.3,178.9,269.8z"/>
		<path fill="#F1543F" d="M312.5,295.5c3.2-9.4,6.2-18.8,8.5-28.4c0.9-3.7,1.6-7.2,2.3-10.6c-0.7,3.4-1.4,6.9-2.3,10.6
			c-0.4,1.5-0.9,3-1.3,4.5c-14.2,35.2-40.2,61.2-70.1,61.2c-30.3,0-56.8-26.9-70.8-63c5.4,35,16.9,61.3,16.9,61.3s4.9,16.6,3.2,33.9
			c13.9,9.7,30.2,15.4,47.7,15.4c21.3,0,40.8-8.3,56.3-22.2C300.8,334.4,308.2,308.3,312.5,295.5z"/>
		<path fill="#F1543F" d="M325.4,243.5c0.3-2.2,0.6-4.3,0.8-6.4C326,239.2,325.7,241.3,325.4,243.5z"/>
		<path fill="#F1543F" d="M323.8,253.4c0.4-2.3,0.8-4.6,1.1-6.8C324.6,248.8,324.2,251.1,323.8,253.4z"/>
	</g>
	<path fill="#4CDBC4" d="M422,462.8c-16-54.7-72.7-96.6-129.4-113.2c-0.8,28.2-82.8,28-82.8-0.9c-58.2,15.9-116.3,58.3-132.5,114
		L63.5,510h372.3L422,462.8z"/>
	<path fill="#4CDBC4" d="M422,462.8c-16-54.7-72.7-96.6-129.4-113.2c-0.8,28.2-82.8,28-82.8-0.9c-58.2,15.9-116.3,58.3-132.5,114
		L63.5,510h372.3L422,462.8z"/>
	<path fill="#FF7058" d="M100.3,343.9c0,0-2.3,61.7,57.1,59.4c59.4-2.3,38.3-72.2,38.3-72.2s-35.3-80.5-11.3-146.6
		c0,0,14.3-43.6,27.8-60.9c0,0,24.1,59.4,111.3,69.2c0,0,9.5,23.2-2.6,74.3c-2.3,9.6-5.4,19-8.5,28.4c-7.8,23-25.4,89.4,20.9,107.9
		c0,0,57.3,22,65.6-52.8c0,0-43.2,22.4-14.1-97.3c0,0,35.8-151.3-86.5-184.6C250.4,55.7,214,64,187.4,79
		c-38.1,21.4-61.9,61.5-66,105c-1.9,19.5-2,43.2,3.4,65.5c2.7,11.3,3.7,23,3.9,34.7C129.2,313.6,125.7,356.1,100.3,343.9z"/>
	<path fill="#FFD15C" d="M321,267c12.1-51.1,2.6-74.3,2.6-74.3c-87.2-9.8-111.3-69.2-111.3-69.2c-13.5,17.3-27.8,60.9-27.8,60.9
		c-10.3,28.3-9.7,59.2-5.7,85.3c14.1,36.1,40.5,63,70.8,63c29.8,0,55.8-26,70.1-61.2C320.1,270.1,320.6,268.6,321,267z"/>
	<path fill="#CDD6E0" d="M262.5,392.7c2.7-16.3-5.9-30.3-11.2-37c0.9-0.1-1.2-0.1-0.2,0c-5.3,6.7-13.9,20.7-11.2,37
		c0,0-13-4.7-23.7-14.9c2.3,31.6,34.9,61.9,34.9,61.9s32.5-30.1,34.9-61.7C275.3,388.1,262.5,392.7,262.5,392.7z"/>
	<g>
		<path fill="#F2F2F2" d="M251.1,355.7c-21.6-1.2-39.2-12.5-44.5-27.6c-20,45.6,33.3,64.7,33.3,64.7
			C237.2,376.4,245.9,362.5,251.1,355.7z"/>
		<path fill="#F2F2F2" d="M295.8,328.1c-5.3,15.1-22.9,26.4-44.5,27.6c5.2,6.7,13.9,20.7,11.2,37
			C262.5,392.7,315.7,373.7,295.8,328.1z"/>
	</g>
	<path fill="#F8B64C" d="M295.2,310.9c-13,13.6-28.7,21.8-45.5,21.8c-15.7,0-30.3-7.3-42.7-19.2l-0.3,14.5
		c5.3,15.1,22.9,26.4,44.4,27.6c0,0,0,0,0,0l0,0c-0.1,0.1,0.3,0.1,0.2,0c2.6-0.1,5.2-0.5,7.7-0.9c4.8-0.8,9.4-2.3,13.6-4.1
		c0.2-0.1,0.4-0.1,0.6-0.2c1.1-0.5,2.2-1.1,3.3-1.7c1-0.6,2.1-1.1,3.1-1.7c0,0,0.1-0.1,0.1-0.1c7.7-4.9,13.4-11.4,16-19L295.2,310.9
		z"/>
	<polygon fill="#40596B" points="256,2 37.6,58.9 256,115.8 474.4,58.9 	"/>
	<path fill="#334A5E" d="M256,115.8L137.5,84.9c0,12.3,0,20.9,0,45.5c77.5,27.9,159.6,27.9,237.1,0c0-24.6,0-33.2,0-45.5L256,115.8z
		"/>
	<g>
		<path fill="#F8B64C" d="M431.2,170.4c-2.2,0-4-1.8-4-4V62.9H256c-2.2,0-4-1.8-4-4c0-2.2,1.8-4,4-4h175.2c2.2,0,4,1.8,4,4v107.5
			C435.1,168.6,433.3,170.4,431.2,170.4z"/>
	</g>
	<polygon fill="#F8B64C" points="449.7,243.1 412.7,243.1 421.4,189.2 440.9,189.2 	"/>
	<path fill="#FFD15C" d="M431.2,198.1c-10.2,0-18.5-8.3-18.5-18.5s8.3-18.5,18.5-18.5c10.2,0,18.5,8.3,18.5,18.5
		S441.4,198.1,431.2,198.1z M431.2,171.7c-4.4,0-7.9,3.6-7.9,7.9c0,4.4,3.6,7.9,7.9,7.9c4.4,0,7.9-3.6,7.9-7.9
		C439.1,175.3,435.5,171.7,431.2,171.7z"/>
</g>
</svg>
