<?xml version="1.0" encoding="utf-8"?>
<!-- Generator: Adobe Illustrator 18.0.0, SVG Export Plug-In . SVG Version: 6.00 Build 0)  -->
<!DOCTYPE svg PUBLIC "-//W3C//DTD SVG 1.1//EN" "http://www.w3.org/Graphics/SVG/1.1/DTD/svg11.dtd">
<svg version="1.1" id="Layer_1" xmlns="http://www.w3.org/2000/svg" xmlns:xlink="http://www.w3.org/1999/xlink" x="0px" y="0px"
	 viewBox="0 0 512 512" enable-background="new 0 0 512 512" xml:space="preserve">
<g>
	<path fill="#40596B" d="M463,203.8v244.8c0,12.5-10,22.4-22.4,22.4h-421c-9.7,0-17.4-7.7-17.4-17.4V198.8c0-9.7,7.7-17.4,17.4-17.4
		h421C453,181.4,463,191.4,463,203.8z"/>
	<rect x="20.8" y="181.4" fill="#334A5E" width="423.6" height="262.3"/>
	<rect x="56.2" y="285" fill="#F8B64C" width="161.3" height="19"/>
	<rect x="56.2" y="237.2" fill="#F8B64C" width="161.3" height="19"/>
	<rect x="56.2" y="331.9" fill="#F8B64C" width="161.3" height="19"/>
	<rect x="56.2" y="379.6" fill="#F8B64C" width="161.3" height="19"/>
	<path fill="#F2F2F2" d="M41.1,122.2c61.9-22.3,129.6-22.3,191.5,0c0,99.6,0,199.1,0,298.7c-61.9-22.3-129.6-22.3-191.5,0V122.2z"/>
	<path fill="#84DBFF" d="M217.8,299.7c-52.8-15.8-109.1-15.8-162,0c0-6.3,0-12.7,0-19c52.8-15.8,109.1-15.8,162,0
		C217.8,287,217.8,293.4,217.8,299.7z"/>
	<path fill="#84DBFF" d="M217.8,347.4c-52.8-15.8-109.1-15.8-162,0c0-6.3,0-12.7,0-19c52.8-15.8,109.1-15.8,162,0
		C217.8,334.7,217.8,341.1,217.8,347.4z"/>
	<rect x="247.7" y="285" fill="#F8B64C" width="161.3" height="19"/>
	<rect x="247.7" y="237.2" fill="#F8B64C" width="161.3" height="19"/>
	<rect x="247.7" y="331.9" fill="#F8B64C" width="161.3" height="19"/>
	<rect x="247.7" y="379.6" fill="#F8B64C" width="161.3" height="19"/>
	<path fill="#CDD6E0" d="M424.1,122.2c-61.9-22.3-129.6-22.3-191.5,0c0,99.6,0,199.1,0,298.7c61.9-22.3,129.6-22.3,191.5,0V122.2z"
		/>
	<path fill="#FFD15C" d="M130.2,222.6c-23.8-5.1-50.5,0.2-74.3,14.8c0-25,0-50.1,0-75.1c23.8-14.6,50.5-19.9,74.3-14.8
		C130.2,172.5,130.2,197.5,130.2,222.6z"/>
	<path fill="#F1543F" d="M421.4,149.5l20.3,20.3L277.8,333.7c-5.6,5.6-14.7,5.6-20.3,0l0,0c-5.6-5.6-5.6-14.7,0-20.3L421.4,149.5z"
		/>
	<path fill="#FF7058" d="M401.1,129.1l20.3,20.3L257.5,313.4c-5.6,5.6-14.7,5.6-20.3,0l0,0c-5.6-5.6-5.6-14.7,0-20.3L401.1,129.1z"
		/>
	<path fill="#F1543F" d="M380.8,108.8l20.3,20.3L237.1,293.1c-5.6,5.6-14.7,5.6-20.3,0l0,0c-5.6-5.6-5.6-14.7,0-20.3L380.8,108.8z"
		/>
	<path fill="#FFD15C" d="M212.8,280.8c-0.6,4.3,0.7,8.9,4,12.2c5.6,5.6,14.7,5.6,20.3,0c-2.8,2.8-4.2,6.5-4.2,10.2
		c0,3.7,1.4,7.4,4.2,10.2c5.6,5.6,14.7,5.6,20.3,0c-5.6,5.6-5.6,14.7,0,20.3c3.3,3.3,7.9,4.6,12.2,4l-51.1,15.1l-29.6,8.7l8.7-29.6
		L212.8,280.8z"/>
	
		<rect x="382.4" y="104.8" transform="matrix(-0.7071 -0.7071 0.7071 -0.7071 638.0316 514.3221)" fill="#40596B" width="86.3" height="40.4"/>
	
		<rect x="390.2" y="115.2" transform="matrix(-0.7071 -0.7071 0.7071 -0.7071 656.9534 506.4844)" fill="#CDD6E0" width="86.3" height="4.1"/>
	
		<rect x="382.4" y="123" transform="matrix(-0.7071 -0.7071 0.7071 -0.7071 638.0316 514.3221)" fill="#CDD6E0" width="86.3" height="4.1"/>
	
		<rect x="374.5" y="130.8" transform="matrix(-0.7071 -0.7071 0.7071 -0.7071 619.1098 522.1597)" fill="#CDD6E0" width="86.3" height="4.1"/>
	<path fill="#F8B64C" d="M451.1,41.3l58.2,58.2c0.8,0.8,0.8,2,0,2.8l-38.9,38.9l-61-61l38.9-38.9C449,40.5,450.3,40.5,451.1,41.3z"
		/>
	<polygon fill="#334A5E" points="197.7,332 218.6,352.9 189,361.6 	"/>
</g>
</svg>
