<?xml version="1.0" encoding="utf-8"?>
<!-- Generator: Adobe Illustrator 18.0.0, SVG Export Plug-In . SVG Version: 6.00 Build 0)  -->
<!DOCTYPE svg PUBLIC "-//W3C//DTD SVG 1.1//EN" "http://www.w3.org/Graphics/SVG/1.1/DTD/svg11.dtd">
<svg version="1.1" id="Layer_1" xmlns="http://www.w3.org/2000/svg" xmlns:xlink="http://www.w3.org/1999/xlink" x="0px" y="0px"
	 viewBox="0 0 512 512" enable-background="new 0 0 512 512" xml:space="preserve">
<g>
	<path fill="#40596B" d="M487.3,19.4H24.7C12.2,19.4,2,29.6,2,42.1v300.1h508V42.1C510,29.6,499.8,19.4,487.3,19.4z"/>
	<rect x="35.8" y="51.3" fill="#FFFFFF" width="440.5" height="266.6"/>
	<g>
		<path fill="#FFD15C" d="M161.7,247.8l38.9,38.9l-24.5,7.3l-21.6,6.5c-4,1.2-7.8-2.5-6.6-6.6l6.5-21.6L161.7,247.8z"/>
		
			<rect x="305.9" y="104.6" transform="matrix(0.7071 -0.7071 0.7071 0.7071 -0.7517 262.3954)" fill="#ACB3BA" width="20.9" height="55.1"/>
		<path fill="#FF7058" d="M377.5,110l-34.2,34.2l-38.9-38.9L338.5,71c0.6-0.6,1.5-0.6,2,0l36.9,36.9C378,108.5,378,109.4,377.5,110z
			"/>
	</g>
	<path fill="#334A5E" d="M167.8,280.7c3.9,3.9,6.7,8.5,8.3,13.3l-21.6,6.5c-4,1.2-7.8-2.5-6.6-6.6l6.5-21.6
		C159.3,274.1,163.9,276.8,167.8,280.7z"/>
	<path fill="#F2F2F2" d="M2,342.2V381c0,12.5,10.2,22.7,22.7,22.7h468.4c9.4,0,16.9-7.6,16.9-16.9v-44.6H2z"/>
	<circle fill="#CDD6E0" cx="256" cy="373" r="12.1"/>
	<polygon fill="#CDD6E0" points="365.5,460.4 146.5,460.4 167.6,419.6 175.7,403.8 336.3,403.8 344.4,419.6 	"/>
	<path fill="#F2F2F2" d="M423.5,492.6H88.5v-29.3c0-1.6,1.3-2.8,2.8-2.8h329.4c1.6,0,2.8,1.3,2.8,2.8V492.6z"/>
	<polygon fill="#ACB3BA" points="344.4,419.6 167.6,419.6 175.7,403.8 336.3,403.8 	"/>
	<path fill="#ACB3BA" d="M214.3,110.3c-1.9-1.7-3.5,0-3.5,0c0,0-0.1,0.1-0.1,0.1l-30.3,30.3c0,0-0.1,0.1-0.1,0.1c0,0-2,1.7-0.1,3.6
		c1.9,1.9,3.8-0.1,3.8-0.2l30.3-30.3C214.3,113.9,216.2,112,214.3,110.3z"/>
	<g>
		
			<rect x="194" y="122.4" transform="matrix(0.7071 -0.7071 0.7071 0.7071 -39.551 194.2524)" fill="#FFD15C" width="41.5" height="44.9"/>
		<g>
			<path fill="#ACB3BA" d="M167.9,80.9c-20.7,3.8-16.9-12.5-16.9-12.5c-9,19.3-5.4,34.9-5.4,34.9c9.5,40.6,41.9,37,41.9,37
				l23.1-23.1C209.1,88.8,188.6,77.1,167.9,80.9z"/>
			<path fill="#ACB3BA" d="M271.9,174.9c-8.3-8.3-16.4-16.2-24.4-23.6l1.9-1.9c0,0,2-1.9,0.1-3.6c-1.9-1.7-3.5,0-3.5,0
				c0,0-0.1,0.1-0.1,0.1L215.6,176c0,0-0.1,0.1-0.1,0.1c0,0-2,1.7-0.1,3.6c1.9,1.9,3.8-0.1,3.8-0.2l2-2c7.5,8,15.4,16.1,23.6,24.4
				c57.2,57.2,109.7,97.6,117.2,90.1C369.5,284.6,329.1,232.1,271.9,174.9z"/>
		</g>
	</g>
	
		<rect x="154.7" y="175.9" transform="matrix(0.7071 -0.7071 0.7071 0.7071 -72.0509 232.8724)" fill="#84DBFF" width="180.7" height="55.1"/>
</g>
</svg>
