<?xml version="1.0" encoding="utf-8"?>
<!-- Generator: Adobe Illustrator 18.0.0, SVG Export Plug-In . SVG Version: 6.00 Build 0)  -->
<!DOCTYPE svg PUBLIC "-//W3C//DTD SVG 1.1//EN" "http://www.w3.org/Graphics/SVG/1.1/DTD/svg11.dtd">
<svg version="1.1" id="Layer_1" xmlns="http://www.w3.org/2000/svg" xmlns:xlink="http://www.w3.org/1999/xlink" x="0px" y="0px"
	 viewBox="0 0 512 512" enable-background="new 0 0 512 512" xml:space="preserve">
<g>
	<polygon fill="#40596B" points="417.3,510 344.6,510 290.4,395.5 287.9,390.1 270.5,353.3 343.2,353.3 360.6,390.1 363.1,395.5 	
		"/>
	<polygon fill="#40596B" points="241.5,353.3 224.2,390.1 221.6,395.5 167.5,510 94.6,510 148.8,395.5 151.4,390.1 168.7,353.3 	"/>
	<path fill="#4CDBC4" d="M477.4,67.2H34.6C16.6,67.2,2,52.6,2,34.6l0,0C2,16.6,16.6,2,34.6,2h442.8c18,0,32.6,14.6,32.6,32.6l0,0
		C510,52.6,495.4,67.2,477.4,67.2z"/>
	<rect x="33.4" y="67.2" fill="#F2F2F2" width="445.2" height="275.4"/>
	<rect x="388.2" y="107.9" fill="#ACB3BA" width="66.8" height="194.1"/>
	<rect x="277.8" y="132.9" fill="#FFD15C" width="66.8" height="169.1"/>
	<rect x="167.4" y="157.8" fill="#84DBFF" width="66.8" height="144.1"/>
	<rect x="57" y="182.8" fill="#CDD6E0" width="66.8" height="119.1"/>
	<path fill="#E0E1E2" d="M478.6,67.2v15.9h-444c-0.4,0-0.8,0-1.3-0.1V67.2H478.6z"/>
	<polygon fill="#334A5E" points="168.7,353.3 241.5,353.3 224.2,390.1 221.6,395.5 148.8,395.5 151.4,390.1 	"/>
	<polygon fill="#334A5E" points="363.1,395.5 290.4,395.5 287.9,390.1 270.5,353.3 343.2,353.3 360.6,390.1 	"/>
	<path fill="#4CDBC4" d="M491.5,379.6H20.5c-10.2,0-18.5-8.3-18.5-18.5l0,0c0-10.2,8.3-18.5,18.5-18.5h471.1
		c10.2,0,18.5,8.3,18.5,18.5l0,0C510,371.3,501.7,379.6,491.5,379.6z"/>
</g>
</svg>
