<?xml version="1.0" encoding="utf-8"?>
<!-- Generator: Adobe Illustrator 18.0.0, SVG Export Plug-In . SVG Version: 6.00 Build 0)  -->
<!DOCTYPE svg PUBLIC "-//W3C//DTD SVG 1.1//EN" "http://www.w3.org/Graphics/SVG/1.1/DTD/svg11.dtd">
<svg version="1.1" id="Layer_1" xmlns="http://www.w3.org/2000/svg" xmlns:xlink="http://www.w3.org/1999/xlink" x="0px" y="0px"
	 viewBox="0 0 512 512" enable-background="new 0 0 512 512" xml:space="preserve">
<g>
	<path fill="#84DBFF" d="M510,89v187.8c0,118.8-114,232.8-254,232.8S2,395.7,2,276.8V89h112v187.8c0,57.1,63.7,120.9,142,120.9
		S398,334,398,276.8V89H510z"/>
	<rect x="398" y="89" fill="#54C0EB" width="112" height="107.5"/>
	<rect x="2" y="89" fill="#54C0EB" width="112" height="107.5"/>
	<rect x="398" y="67.8" fill="#FF7058" width="112" height="112.8"/>
	<rect x="2" y="67.8" fill="#FF7058" width="112" height="112.8"/>
	<path fill="#FFFFFF" d="M85.1,113.6H68.6V97.2c0-5.8-4.7-10.6-10.6-10.6c-5.8,0-10.6,4.7-10.6,10.6v16.5H31
		c-5.8,0-10.6,4.7-10.6,10.6c0,5.8,4.7,10.6,10.6,10.6h16.5v16.5c0,5.8,4.7,10.6,10.6,10.6c5.8,0,10.6-4.7,10.6-10.6v-16.5h16.5
		c5.8,0,10.6-4.7,10.6-10.6C95.6,118.4,90.9,113.6,85.1,113.6z"/>
	<path fill="#FFFFFF" d="M481,113.6H427c-5.8,0-10.6,4.7-10.6,10.6c0,5.8,4.7,10.6,10.6,10.6H481c5.8,0,10.6-4.7,10.6-10.6
		C491.6,118.4,486.9,113.6,481,113.6z"/>
	<rect x="17.9" y="2.3" fill="#40596B" width="15.9" height="40.3"/>
	<rect x="50.1" y="2.3" fill="#40596B" width="15.9" height="57.3"/>
	<rect x="82.3" y="2.3" fill="#40596B" width="15.9" height="40.3"/>
	<rect x="413.8" y="2.3" fill="#40596B" width="15.9" height="40.3"/>
	<rect x="446.1" y="2.3" fill="#40596B" width="15.9" height="57.3"/>
	<rect x="478.3" y="2.3" fill="#40596B" width="15.9" height="40.3"/>
</g>
</svg>
