<?xml version="1.0" encoding="utf-8"?>
<!-- Generator: Adobe Illustrator 18.0.0, SVG Export Plug-In . SVG Version: 6.00 Build 0)  -->
<!DOCTYPE svg PUBLIC "-//W3C//DTD SVG 1.1//EN" "http://www.w3.org/Graphics/SVG/1.1/DTD/svg11.dtd">
<svg version="1.1" id="Layer_1" xmlns="http://www.w3.org/2000/svg" xmlns:xlink="http://www.w3.org/1999/xlink" x="0px" y="0px"
	 viewBox="0 0 512 512" enable-background="new 0 0 512 512" xml:space="preserve">
<g>
	<path fill="#ACB3BA" d="M403.3,505.1L403.3,505.1c-12.1,8.5-28.8,5.5-37.3-6.6L96.9,114.2l43.9-30.8l269.1,384.3
		C418.4,479.9,415.4,496.7,403.3,505.1z"/>
	<path fill="#FF7058" d="M63.3,19.5C19.5,50.2,8.8,110.6,39.5,154.4L198.2,43.3C167.5-0.5,107.1-11.2,63.3,19.5z"/>
	<path fill="#ACB3BA" d="M108.7,505.1L108.7,505.1c12.1,8.5,28.8,5.5,37.3-6.6l269.1-384.3l-43.9-30.8L102.1,467.8
		C93.6,479.9,96.6,496.7,108.7,505.1z"/>
	<path fill="#FF7058" d="M448.7,19.5c43.8,30.7,54.5,91.1,23.8,134.9L313.8,43.3C344.5-0.5,404.9-11.2,448.7,19.5z"/>
	<circle fill="#40596B" cx="256" cy="284.9" r="212"/>
	<path fill="#F2F2F2" d="M255.8,454.5c-93.5,0-169.6-76.1-169.6-169.6c0-93.5,76.1-169.6,169.6-169.6c93.5,0,169.6,76.1,169.6,169.6
		C425.4,378.4,349.3,454.5,255.8,454.5z"/>
	<g>
		<g>
			<circle fill="#CDD6E0" cx="256" cy="143.9" r="14.7"/>
			<circle fill="#CDD6E0" cx="256" cy="425.9" r="14.7"/>
		</g>
		<g>
			<circle fill="#CDD6E0" cx="397" cy="284.9" r="14.7"/>
			<circle fill="#CDD6E0" cx="115" cy="284.9" r="14.7"/>
		</g>
	</g>
	<path fill="#FF7058" d="M217.4,323.5L217.4,323.5c-1.5-1.5-1.5-3.9,0-5.5l133.3-133.3c1.5-1.5,3.9-1.5,5.5,0l0,0
		c1.5,1.5,1.5,3.9,0,5.5L222.9,323.5C221.4,325,218.9,325,217.4,323.5z"/>
	<circle fill="#FF7058" cx="217.7" cy="323.1" r="7.9"/>
	<path fill="#ACB3BA" d="M250.9,284.9L250.9,284.9c0-6.1,4.9-11,11-11h64.2c6.1,0,11,4.9,11,11l0,0c0,6.1-4.9,11-11,11h-64.2
		C255.8,295.9,250.9,290.9,250.9,284.9z"/>
	<path fill="#ACB3BA" d="M255.8,171L255.8,171c6.1,0,11,4.9,11,11v102.9c0,6.1-4.9,11-11,11l0,0c-6.1,0-11-4.9-11-11V182
		C244.8,175.9,249.7,171,255.8,171z"/>
	<circle fill="#334A5E" cx="256" cy="284.9" r="26"/>
</g>
</svg>
