<?xml version="1.0" encoding="utf-8"?>
<!-- Generator: Adobe Illustrator 18.0.0, SVG Export Plug-In . SVG Version: 6.00 Build 0)  -->
<!DOCTYPE svg PUBLIC "-//W3C//DTD SVG 1.1//EN" "http://www.w3.org/Graphics/SVG/1.1/DTD/svg11.dtd">
<svg version="1.1" id="Layer_1" xmlns="http://www.w3.org/2000/svg" xmlns:xlink="http://www.w3.org/1999/xlink" x="0px" y="0px"
	 viewBox="0 0 512 512" enable-background="new 0 0 512 512" xml:space="preserve">
<g>
	<path fill="#F8B64C" d="M176.1,407.3l-8.6-24.8c-3.4-9.9-8.8-18.5-16.1-25.8c-7-7-15.4-12.4-25-15.8l-24.3-8.8L428.4,5.8l11.6,11.6
		c34.7,34.7,34.7,91.2,0,125.9L176.1,407.3z"/>
	<path fill="#FFD15C" d="M335.9,407.4l-264-264c-34.7-34.7-34.7-91.2,0-125.9L83.6,5.8l326.3,326.3l-24.3,8.8
		c-9.5,3.4-17.9,8.8-25,15.8c-7.3,7.3-12.7,15.9-16.1,25.8L335.9,407.4z"/>
	<path fill="#40596B" d="M480.4,333.5c-19.1-19.1-44.5-29.6-71.5-29.6c-27,0-52.4,10.5-71.5,29.6c-19.1,19.1-29.6,44.5-29.6,71.5
		c0,27,10.5,52.4,29.6,71.5c19.1,19.1,44.5,29.6,71.5,29.6c27,0,52.4-10.5,71.5-29.6C499.5,457.4,510,432,510,405
		C510,378,499.5,352.6,480.4,333.5z M408.9,462.2c-31.6,0-57.2-25.6-57.2-57.2c0-31.6,25.6-57.2,57.2-57.2s57.2,25.6,57.2,57.2
		C466.1,436.6,440.5,462.2,408.9,462.2z"/>
	<path fill="#40596B" d="M174.6,333.5c-19.1-19.1-44.5-29.6-71.5-29.6c-27,0-52.4,10.5-71.5,29.6C12.5,352.6,2,378,2,405
		c0,27,10.5,52.4,29.6,71.5c19.1,19.1,44.5,29.6,71.5,29.6c27,0,52.4-10.5,71.5-29.6c19.1-19.1,29.6-44.5,29.6-71.5
		C204.3,378,193.7,352.6,174.6,333.5z M103.1,462.2c-31.6,0-57.2-25.6-57.2-57.2c0-31.6,25.6-57.2,57.2-57.2
		c31.6,0,57.2,25.6,57.2,57.2C160.3,436.6,134.7,462.2,103.1,462.2z"/>
	<circle fill="#FF7058" cx="253.6" cy="256" r="30.5"/>
	<circle fill="#FFFFFF" cx="253.6" cy="256" r="16.8"/>
</g>
</svg>
